{
.appVersion = "1312";
DisplayStrings = (
"&ß",
"ÂÂÄÄÀÀÅÅÉÊ/Edotaccent È/Lacute/Nacute/Ncaron/Racute/Rcaron/Tcaron/Ydieresis/Zacute/Zcaron/Lacute.ss01 ú"
);
copyright = "Copyright © 2018 by Valentin Papon. All rights reserved.";
customParameters = (
{
name = fsType;
value = (
2
);
},
{
name = vendorID;
value = VTF;
},
{
name = description;
value = "La famille Compagnon a été développée dans le cadre du cours de typographie de Benjamin Gomez à ÉESAB Rennes.";
},
{
name = openTypeHeadFlags;
value = (
);
},
{
name = openTypeNameLicense;
value = "";
},
{
name = openTypeNameLicenseURL;
value = "";
},
{
name = openTypeNameVersion;
value = "Version 1.000";
},
{
name = openTypeOS2Selection;
value = (
7
);
},
{
name = openTypeOS2StrikeoutPosition;
value = 50;
},
{
name = openTypeOS2StrikeoutSize;
value = 50;
},
{
name = openTypeOS2SubscriptXOffset;
value = 0;
},
{
name = openTypeOS2SubscriptXSize;
value = 650;
},
{
name = openTypeOS2SubscriptYOffset;
value = 75;
},
{
name = openTypeOS2SubscriptYSize;
value = 600;
},
{
name = openTypeOS2SuperscriptXOffset;
value = 0;
},
{
name = openTypeOS2SuperscriptXSize;
value = 650;
},
{
name = openTypeOS2SuperscriptYOffset;
value = 350;
},
{
name = openTypeOS2SuperscriptYSize;
value = 600;
},
{
name = postscriptBlueFuzz;
value = 1;
},
{
name = postscriptBlueScale;
value = 0.0396;
},
{
name = postscriptBlueShift;
value = 7;
},
{
name = postscriptForceBold;
value = 0;
},
{
name = postscriptIsFixedPitch;
value = 0;
},
{
name = license;

glyphs = (
{
glyphname = A;
lastChange = "2018-06-04 12:53:58 +0000";
layers = (
{
anchors = (
{
name = top;
position = "{355, 590}";
}
);
associatedMasterId = "BDF0B11D-FE68-4F4A-8590-9F0E2F87A31C";
layerId = "024D007D-5903-4E07-82FB-D71D3088B8B6";
paths = (
{
closed = 1;
nodes = (
"150 32 LINE",
"70 32 LINE",
"178 225 LINE",
"426 225 LINE",
"450 32 LINE",
"377 32 LINE",
"376 0 LINE",
"550 0 LINE",
"551 32 LINE",
"483 32 LINE",
"413 590 LINE",
"356 590 OFFCURVE",
"306 591 OFFCURVE",
"256 602 CURVE",
"245 572 LINE",
"272 564 OFFCURVE",
"303 561 OFFCURVE",
"337 558 CURVE",
"34 32 LINE",
"-28 32 LINE",
"-29 0 LINE",
"149 0 LINE"
);
},
{
closed = 1;
nodes = (
"387 558 LINE",
"422 257 LINE",
"196 257 LINE",
"368 558 LINE"
);
}
);
width = 600;
},
{
anchors = (
{
name = top;
position = "{385, 590}";
}
);
associatedMasterId = "BDF0B11D-FE68-4F4A-8590-9F0E2F87A31C";
layerId = "46FA10EE-0E0C-4E98-9BB3-9332012C3750";
paths = (
{
closed = 1;
nodes = (
"150 32 LINE",
"70 32 LINE",
"178 225 LINE",
"426 225 LINE",
"450 32 LINE",
"377 32 LINE",
"376 0 LINE",
"550 0 LINE",
"551 32 LINE",
"483 32 LINE",
"413 590 LINE",
"355 590 LINE",
"34 32 LINE",
"-28 32 LINE",
"-29 0 LINE",
"149 0 LINE"
);
},
{
closed = 1;
nodes = (
"387 558 LINE",
"422 257 LINE",
"196 257 LINE",
"368 558 LINE"
);
}
);
width = 600;
},
{
anchors = (
{
name = top;
position = "{454.8, 603.6}";
}
);
components = (
{
name = Swash;
transform = "{1, 0, 0, 1, 24, 0}";
}
);
layerId = "BDF0B11D-FE68-4F4A-8590-9F0E2F87A31C";
paths = (
{
closed = 1;
nodes = (
"15 0 LINE",
"165 0 LINE",
"171 30 LINE",
"117.3 30 LINE",
"438 555.6 LINE",
"438 30 LINE",
"376.8 30 LINE",
"370.8 0 LINE",
"530.4 0 LINE",
"536.4 30 LINE",
"468 30 LINE",
"468 590.4 LINE",
"423.6 590.4 LINE",
"83.4 30 LINE",
"22.2 30 LINE"
);
},
{
closed = 1;
nodes = (
"238.8 240 LINE",
"447.6 240 LINE",
"447.6 270 LINE",
"238.8 270 LINE"
);
}
);
width = 600;
},
{
anchors = (
{
name = top;
position = "{420, 590}";
}
);
associatedMasterId = "BDF0B11D-FE68-4F4A-8590-9F0E2F87A31C";
layerId = "3E90EE3F-67C7-441B-944A-48C5578ECBF1";
paths = (
{
closed = 1;
nodes = (
"14.5 0 LINE",
"209.5 0 LINE",
"209.5 30 LINE",
"132.5 30 LINE",
"420.5 555.5 LINE",
"420.5 30 LINE",
"314.5 30 LINE",
"314.667 0 LINE",
"525 0 LINE",
"525 30 LINE",
"450.5 30 LINE",
"450.5 590 LINE",
"405 590 LINE",
"98.5 30 LINE",
"14.5 30 LINE"
);
},
{
closed = 1;
nodes = (
"232.5 240 LINE",
"430 240 LINE",
"430 270.5 LINE",
"232.5 270.5 LINE"
);
}
);
width = 600;
},
{
anchors = (
{
name = top;
position = "{420, 590}";
}
);
associatedMasterId = "BDF0B11D-FE68-4F4A-8590-9F0E2F87A31C";
layerId = "188195A6-3C48-4B7E-9433-CE9985D13CEC";
paths = (
{
closed = 1;
nodes = (
"10.8 0 LINE",
"206.4 0 LINE",
"212.4 30 LINE",
"132.5 30 LINE",
"420.5 555.5 LINE",
"420.5 30 LINE",
"318 30 LINE",
"312 0 LINE",
"522 0 LINE",
"528 30 LINE",
"450.5 30 LINE",
"450.5 590 LINE",
"405 590 LINE",
"98.5 30 LINE",
"18 30 LINE"
);
},
{
closed = 1;
nodes = (
"232.5 240.5 LINE",
"430 240.5 LINE",
"430 270.5 LINE",
"232.5 270.5 LINE"
);
}
);
width = 600;
},
{
anchors = (
{
name = top;
position = "{420, 590}";
}
);
associatedMasterId = "BDF0B11D-FE68-4F4A-8590-9F0E2F87A31C";
components = (
{
name = Swash;
}
);
layerId = "78936476-AF0A-442B-824C-0914F7FCB05F";
paths = (
{
closed = 1;
nodes = (
"10.8 0 LINE",
"206.4 0 LINE",
"212.4 30 LINE",
"132.5 30 LINE",
"420.5 555.5 LINE",
"420.5 30 LINE",
"318 30 LINE",
"312 0 LINE",
"522 0 LINE",
"528 30 LINE",
"450.5 30 LINE",
"450.5 590 LINE",
"405 590 LINE",
"98.5 30 LINE",
"18 30 LINE"
);
},
{
closed = 1;
nodes = (
"232.5 240.5 LINE",
"430 240.5 LINE",
"430 270.5 LINE",
"232.5 270.5 LINE"
);
}
);
width = 600;
},
{
associatedMasterId = "BDF0B11D-FE68-4F4A-8590-9F0E2F87A31C";
layerId = "CD740F51-25FF-459A-AA3D-F130AC1BD218";
paths = (
{
closed = 1;
nodes = (
"21 30 LINE",
"21 0 LINE",
"209 0 LINE",
"209 30 LINE",
"120 30 LINE",
"187 226 LINE",
"412 226 LINE",
"479 30 LINE",
"390 30 LINE",
"390 0 LINE",
"578 0 LINE",
"578 30 LINE",
"511 30 LINE",
"321 590 LINE",
"319 590 LINE SMOOTH",
"268 590 OFFCURVE",
"227 592 OFFCURVE",
"177 603 CURVE",
"170 575 LINE",
"202 568 OFFCURVE",
"234 565 OFFCURVE",
"269 562 CURVE",
"88 30 LINE"
);
},
{
closed = 1;
nodes = (
"402 256 LINE",
"197 256 LINE",
"300 559 LINE"
);
}
);
width = 600;
}
);
leftKerningGroup = A2;
rightKerningGroup = A;
unicode = 0041;
},
{
glyphname = Aacute;
lastChange = "2018-06-10 22:21:28 +0000";
layers = (
{
components = (
{
name = A;
},
{
name = acute;
transform = "{1, 0, 0, 1, 96, 160.8}";
}
);
layerId = "BDF0B11D-FE68-4F4A-8590-9F0E2F87A31C";
width = 600;
},
{
associatedMasterId = "BDF0B11D-FE68-4F4A-8590-9F0E2F87A31C";
layerId = "503A1C46-F934-44FB-A59A-495C9A2692C7";
width = 600;
},
{
associatedMasterId = "BDF0B11D-FE68-4F4A-8590-9F0E2F87A31C";
layerId = "D665805D-61DF-42D2-80F5-880565CCB1A0";
width = 600;
},
{
associatedMasterId = "BDF0B11D-FE68-4F4A-8590-9F0E2F87A31C";
layerId = "693FD62F-EB1D-4CC9-AB7C-A2E65219A9DD";
width = 600;
},
{
associatedMasterId = "BDF0B11D-FE68-4F4A-8590-9F0E2F87A31C";
layerId = "E39C4C2B-0269-4575-99EF-53CABEE17505";
width = 600;
},
{
associatedMasterId = "BDF0B11D-FE68-4F4A-8590-9F0E2F87A31C";
layerId = "4EF12989-3357-4FC1-A4AC-9A506847A508";
width = 600;
},
{
associatedMasterId = "BDF0B11D-FE68-4F4A-8590-9F0E2F87A31C";
layerId = "92E0019B-3DFA-4550-B142-6A05E363AF9B";
width = 600;
},
{
associatedMasterId = "BDF0B11D-FE68-4F4A-8590-9F0E2F87A31C";
layerId = "CD740F51-25FF-459A-AA3D-F130AC1BD218";
paths = (
{
closed = 1;
nodes = (
"138 635 LINE",
"134 655 LINE",
"443 736 LINE",
"452 698 LINE"
);
},
{
closed = 1;
nodes = (
"21 30 LINE",
"21 0 LINE",
"209 0 LINE",
"209 30 LINE",
"120 30 LINE",
"187 226 LINE",
"412 226 LINE",
"479 30 LINE",
"390 30 LINE",
"390 0 LINE",
"578 0 LINE",
"578 30 LINE",
"511 30 LINE",
"321 590 LINE",
"319 590 LINE SMOOTH",
"268 590 OFFCURVE",
"227 592 OFFCURVE",
"177 603 CURVE",
"170 575 LINE",
"202 568 OFFCURVE",
"234 565 OFFCURVE",
"269 562 CURVE",
"88 30 LINE"
);
},
{
closed = 1;
nodes = (
"402 256 LINE",
"197 256 LINE",
"300 559 LINE"
);
}
);
width = 600;
}
);
unicode = 00C1;
},
{
glyphname = Acircumflex;
lastChange = "2020-04-02 10:12:31 +0000";
layers = (
{
components = (
{
name = A;
},
{
name = circumflex;
transform = "{1, 0, 0, 1, 64.8, 160.8}";
}
);
layerId = "BDF0B11D-FE68-4F4A-8590-9F0E2F87A31C";
width = 600;
},
{
associatedMasterId = "BDF0B11D-FE68-4F4A-8590-9F0E2F87A31C";
layerId = "503A1C46-F934-44FB-A59A-495C9A2692C7";
width = 600;
},
{
associatedMasterId = "BDF0B11D-FE68-4F4A-8590-9F0E2F87A31C";
layerId = "D665805D-61DF-42D2-80F5-880565CCB1A0";
width = 600;
},
{
associatedMasterId = "BDF0B11D-FE68-4F4A-8590-9F0E2F87A31C";
components = (
{
alignment = -1;
name = A;
},
{
alignment = -1;
name = circumflex;
transform = "{1, 0, 0, 1, 56, 147}";
}
);
layerId = "693FD62F-EB1D-4CC9-AB7C-A2E65219A9DD";
width = 600;
},
{
associatedMasterId = "BDF0B11D-FE68-4F4A-8590-9F0E2F87A31C";
layerId = "C1EB4BFB-9EF9-47C4-9FF3-D17966E455F7";
width = 600;
},
{
associatedMasterId = "BDF0B11D-FE68-4F4A-8590-9F0E2F87A31C";
layerId = "6C5AFFCD-A9AD-4F70-9629-67DF5BE68C61";
width = 600;
},
{
associatedMasterId = "BDF0B11D-FE68-4F4A-8590-9F0E2F87A31C";
components = (
{
alignment = -1;
name = A;
},
{
alignment = -1;
name = circumflex;
transform = "{1, 0, 0, 1, 56, 147}";
}
);
layerId = "B053D754-5E34-400F-9891-C24F7FBAB68C";
width = 600;
},
{
associatedMasterId = "BDF0B11D-FE68-4F4A-8590-9F0E2F87A31C";
layerId = "CD740F51-25FF-459A-AA3D-F130AC1BD218";
paths = (
{
closed = 1;
nodes = (
"94 641 LINE",
"299 747 LINE",
"505 641 LINE",
"499 628 LINE",
"299 711 LINE",
"99 628 LINE"
);
},
{
closed = 1;
nodes = (
"21 30 LINE",
"21 0 LINE",
"209 0 LINE",
"209 30 LINE",
"120 30 LINE",
"187 226 LINE",
"412 226 LINE",
"479 30 LINE",
"390 30 LINE",
"390 0 LINE",
"578 0 LINE",
"578 30 LINE",
"511 30 LINE",
"321 590 LINE",
"319 590 LINE SMOOTH",
"268 590 OFFCURVE",
"227 592 OFFCURVE",
"177 603 CURVE",
"170 575 LINE",
"202 568 OFFCURVE",
"234 565 OFFCURVE",
"269 562 CURVE",
"88 30 LINE"
);
},
{
closed = 1;
nodes = (
"402 256 LINE",
"197 256 LINE",
"300 559 LINE"
);
}
);
width = 600;
}
);
unicode = 00C2;
},
{
glyphname = Adieresis;
lastChange = "2020-04-02 10:12:31 +0000";
layers = (
{
components = (
{
name = A;
},
{
name = dieresis;
transform = "{1, 0, 0, 1, 94.8, 160.8}";
}
);
layerId = "BDF0B11D-FE68-4F4A-8590-9F0E2F87A31C";
width = 600;
},
{
associatedMasterId = "BDF0B11D-FE68-4F4A-8590-9F0E2F87A31C";
layerId = "503A1C46-F934-44FB-A59A-495C9A2692C7";
width = 600;
},
{
associatedMasterId = "BDF0B11D-FE68-4F4A-8590-9F0E2F87A31C";
layerId = "D665805D-61DF-42D2-80F5-880565CCB1A0";
width = 600;
},
{
associatedMasterId = "BDF0B11D-FE68-4F4A-8590-9F0E2F87A31C";
components = (
{
alignment = -1;
name = A;
},
{
alignment = -1;
name = dieresis;
transform = "{1, 0, 0, 1, 33, 147}";
}
);
layerId = "693FD62F-EB1D-4CC9-AB7C-A2E65219A9DD";
width = 600;
},
{
associatedMasterId = "BDF0B11D-FE68-4F4A-8590-9F0E2F87A31C";
layerId = "FC874044-1376-4444-A031-3EA7C1125B91";
width = 600;
},
{
associatedMasterId = "BDF0B11D-FE68-4F4A-8590-9F0E2F87A31C";
layerId = "B6AEE751-D2A7-4AFA-A66A-24C3AC18F5E2";
width = 600;
},
{
associatedMasterId = "BDF0B11D-FE68-4F4A-8590-9F0E2F87A31C";
components = (
{
alignment = -1;
name = A;
},
{
alignment = -1;
name = dieresis;
transform = "{1, 0, 0, 1, 33, 147}";
}
);
layerId = "558AD359-A7EE-4395-AC6C-74C2023CDC4B";
width = 600;
},
{
associatedMasterId = "BDF0B11D-FE68-4F4A-8590-9F0E2F87A31C";
layerId = "CD740F51-25FF-459A-AA3D-F130AC1BD218";
paths = (
{
closed = 1;
nodes = (
"221 641 OFFCURVE",
"236 656 OFFCURVE",
"236 675 CURVE SMOOTH",
"236 694 OFFCURVE",
"221 709 OFFCURVE",
"203 709 CURVE SMOOTH",
"184 709 OFFCURVE",
"169 694 OFFCURVE",
"169 675 CURVE SMOOTH",
"169 656 OFFCURVE",
"184 641 OFFCURVE",
"203 641 CURVE SMOOTH"
);
},
{
closed = 1;
nodes = (
"402 641 OFFCURVE",
"417 656 OFFCURVE",
"417 675 CURVE SMOOTH",
"417 694 OFFCURVE",
"402 709 OFFCURVE",
"384 709 CURVE SMOOTH",
"365 709 OFFCURVE",
"350 694 OFFCURVE",
"350 675 CURVE SMOOTH",
"350 656 OFFCURVE",
"365 641 OFFCURVE",
"384 641 CURVE SMOOTH"
);
},
{
closed = 1;
nodes = (
"21 30 LINE",
"21 0 LINE",
"209 0 LINE",
"209 30 LINE",
"120 30 LINE",
"187 226 LINE",
"412 226 LINE",
"479 30 LINE",
"390 30 LINE",
"390 0 LINE",
"578 0 LINE",
"578 30 LINE",
"511 30 LINE",
"321 590 LINE",
"319 590 LINE SMOOTH",
"268 590 OFFCURVE",
"227 592 OFFCURVE",
"177 603 CURVE",
"170 575 LINE",
"202 568 OFFCURVE",
"234 565 OFFCURVE",
"269 562 CURVE",
"88 30 LINE"
);
},
{
closed = 1;
nodes = (
"402 256 LINE",
"197 256 LINE",
"300 559 LINE"
);
}
);
width = 600;
}
);
leftKerningGroup = A2;
rightKerningGroup = A;
unicode = 00C4;
},
{
glyphname = Agrave;
lastChange = "2020-04-02 10:12:31 +0000";
layers = (
{
components = (
{
name = A;
},
{
name = grave;
transform = "{1, 0, 0, 1, 141.6, 160.8}";
}
);
layerId = "BDF0B11D-FE68-4F4A-8590-9F0E2F87A31C";
width = 600;
},
{
associatedMasterId = "BDF0B11D-FE68-4F4A-8590-9F0E2F87A31C";
layerId = "503A1C46-F934-44FB-A59A-495C9A2692C7";
width = 600;
},
{
associatedMasterId = "BDF0B11D-FE68-4F4A-8590-9F0E2F87A31C";
layerId = "D665805D-61DF-42D2-80F5-880565CCB1A0";
width = 600;
},
{
associatedMasterId = "BDF0B11D-FE68-4F4A-8590-9F0E2F87A31C";
components = (
{
alignment = -1;
name = A;
},
{
alignment = -1;
name = grave;
transform = "{1, 0, 0, 1, 68, 147}";
}
);
layerId = "693FD62F-EB1D-4CC9-AB7C-A2E65219A9DD";
width = 600;
},
{
associatedMasterId = "BDF0B11D-FE68-4F4A-8590-9F0E2F87A31C";
layerId = "6F64D701-148E-41C6-8B3F-CF0ECEEFA84A";
width = 600;
},
{
associatedMasterId = "BDF0B11D-FE68-4F4A-8590-9F0E2F87A31C";
layerId = "A862D224-AA72-4CBA-9B9F-FFB7319846A7";
width = 600;
},
{
associatedMasterId = "BDF0B11D-FE68-4F4A-8590-9F0E2F87A31C";
components = (
{
alignment = -1;
name = A;
},
{
alignment = -1;
name = grave;
transform = "{1, 0, 0, 1, 68, 147}";
}
);
layerId = "ADB20DAE-EDD1-4BF7-A331-BF9C162B6218";
width = 600;
},
{
associatedMasterId = "BDF0B11D-FE68-4F4A-8590-9F0E2F87A31C";
layerId = "CD740F51-25FF-459A-AA3D-F130AC1BD218";
paths = (
{
closed = 1;
nodes = (
"143 736 LINE",
"452 655 LINE",
"448 635 LINE",
"134 698 LINE"
);
},
{
closed = 1;
nodes = (
"21 30 LINE",
"21 0 LINE",
"209 0 LINE",
"209 30 LINE",
"120 30 LINE",
"187 226 LINE",
"412 226 LINE",
"479 30 LINE",
"390 30 LINE",
"390 0 LINE",
"578 0 LINE",
"578 30 LINE",
"511 30 LINE",
"321 590 LINE",
"319 590 LINE SMOOTH",
"268 590 OFFCURVE",
"227 592 OFFCURVE",
"177 603 CURVE",
"170 575 LINE",
"202 568 OFFCURVE",
"234 565 OFFCURVE",
"269 562 CURVE",
"88 30 LINE"
);
},
{
closed = 1;
nodes = (
"402 256 LINE",
"197 256 LINE",
"300 559 LINE"
);
}
);
width = 600;
}
);
leftKerningGroup = A2;
rightKerningGroup = A;
unicode = 00C0;
},
{
glyphname = Aring;
lastChange = "2020-04-02 10:12:31 +0000";
layers = (
{
components = (
{
name = A;
},
{
name = ring;
transform = "{1, 0, 0, 1, 82.8, 160.5}";
}
);
layerId = "BDF0B11D-FE68-4F4A-8590-9F0E2F87A31C";
width = 600;
},
{
associatedMasterId = "BDF0B11D-FE68-4F4A-8590-9F0E2F87A31C";
layerId = "503A1C46-F934-44FB-A59A-495C9A2692C7";
width = 600;
},
{
associatedMasterId = "BDF0B11D-FE68-4F4A-8590-9F0E2F87A31C";
layerId = "D665805D-61DF-42D2-80F5-880565CCB1A0";
width = 600;
},
{
associatedMasterId = "BDF0B11D-FE68-4F4A-8590-9F0E2F87A31C";
components = (
{
alignment = -1;
name = A;
},
{
alignment = -1;
name = ring;
transform = "{1, 0, 0, 1, 13, 147}";
}
);
layerId = "693FD62F-EB1D-4CC9-AB7C-A2E65219A9DD";
width = 600;
},
{
associatedMasterId = "BDF0B11D-FE68-4F4A-8590-9F0E2F87A31C";
layerId = "12EC7B01-4E68-4060-9803-49A012F44BBE";
width = 600;
},
{
associatedMasterId = "BDF0B11D-FE68-4F4A-8590-9F0E2F87A31C";
layerId = "30F0AEE7-0DEB-4DBD-B211-1AA9DBD63126";
width = 600;
},
{
associatedMasterId = "BDF0B11D-FE68-4F4A-8590-9F0E2F87A31C";
components = (
{
alignment = -1;
name = A;
},
{
alignment = -1;
name = ring;
transform = "{1, 0, 0, 1, 13, 147}";
}
);
layerId = "0A8C273A-BA43-48F0-9005-A45517D8D2E4";
width = 600;
},
{
associatedMasterId = "BDF0B11D-FE68-4F4A-8590-9F0E2F87A31C";
layerId = "CD740F51-25FF-459A-AA3D-F130AC1BD218";
paths = (
{
closed = 1;
nodes = (
"334 641 OFFCURVE",
"366 670 OFFCURVE",
"366 705 CURVE SMOOTH",
"366 741 OFFCURVE",
"334 769 OFFCURVE",
"299 769 CURVE SMOOTH",
"264 769 OFFCURVE",
"233 741 OFFCURVE",
"233 705 CURVE SMOOTH",
"233 670 OFFCURVE",
"264 641 OFFCURVE",
"299 641 CURVE SMOOTH"
);
},
{
closed = 1;
nodes = (
"274 661 OFFCURVE",
"255 680 OFFCURVE",
"255 705 CURVE SMOOTH",
"255 729 OFFCURVE",
"274 748 OFFCURVE",
"299 748 CURVE SMOOTH",
"323 748 OFFCURVE",
"342 729 OFFCURVE",
"342 705 CURVE SMOOTH",
"342 680 OFFCURVE",
"323 661 OFFCURVE",
"299 661 CURVE SMOOTH"
);
},
{
closed = 1;
nodes = (
"21 30 LINE",
"21 0 LINE",
"209 0 LINE",
"209 30 LINE",
"120 30 LINE",
"187 226 LINE",
"412 226 LINE",
"479 30 LINE",
"390 30 LINE",
"390 0 LINE",
"578 0 LINE",
"578 30 LINE",
"511 30 LINE",
"321 590 LINE",
"319 590 LINE SMOOTH",
"268 590 OFFCURVE",
"227 592 OFFCURVE",
"177 603 CURVE",
"170 575 LINE",
"202 568 OFFCURVE",
"234 565 OFFCURVE",
"269 562 CURVE",
"88 30 LINE"
);
},
{
closed = 1;
nodes = (
"402 256 LINE",
"197 256 LINE",
"300 559 LINE"
);
}
);
width = 600;
}
);
unicode = 00C5;
},
{
glyphname = Atilde;
lastChange = "2018-06-03 19:07:56 +0000";
layers = (
{
components = (
{
name = A;
}
);
layerId = "BDF0B11D-FE68-4F4A-8590-9F0E2F87A31C";
width = 600;
},
{
associatedMasterId = "BDF0B11D-FE68-4F4A-8590-9F0E2F87A31C";
layerId = "503A1C46-F934-44FB-A59A-495C9A2692C7";
width = 600;
},
{
associatedMasterId = "BDF0B11D-FE68-4F4A-8590-9F0E2F87A31C";
layerId = "D665805D-61DF-42D2-80F5-880565CCB1A0";
width = 600;
},
{
associatedMasterId = "BDF0B11D-FE68-4F4A-8590-9F0E2F87A31C";
components = (
{
name = A;
}
);
layerId = "693FD62F-EB1D-4CC9-AB7C-A2E65219A9DD";
width = 600;
},
{
associatedMasterId = "BDF0B11D-FE68-4F4A-8590-9F0E2F87A31C";
layerId = "0A02C3A2-5944-454A-B5E1-497052623729";
width = 600;
},
{
associatedMasterId = "BDF0B11D-FE68-4F4A-8590-9F0E2F87A31C";
layerId = "913D99AB-5314-4555-A2E2-3509D1D55CAB";
width = 600;
},
{
associatedMasterId = "BDF0B11D-FE68-4F4A-8590-9F0E2F87A31C";
components = (
{
name = A;
}
);
layerId = "63E1DEF5-033E-4719-811E-B8DFB5B801EF";
width = 600;
},
{
associatedMasterId = "BDF0B11D-FE68-4F4A-8590-9F0E2F87A31C";
layerId = "CD740F51-25FF-459A-AA3D-F130AC1BD218";
paths = (
{
closed = 1;
nodes = (
"316 681 OFFCURVE",
"299 754 OFFCURVE",
"227 754 CURVE SMOOTH",
"198 754 OFFCURVE",
"161 731 OFFCURVE",
"113 676 CURVE",
"134 656 LINE",
"174 703 OFFCURVE",
"200 724 OFFCURVE",
"227 724 CURVE SMOOTH",
"280 724 OFFCURVE",
"297 651 OFFCURVE",
"369 651 CURVE SMOOTH",
"398 651 OFFCURVE",
"435 672 OFFCURVE",
"482 728 CURVE",
"461 748 LINE",
"422 700 OFFCURVE",
"396 681 OFFCURVE",
"369 681 CURVE SMOOTH"
);
},
{
closed = 1;
nodes = (
"21 30 LINE",
"21 0 LINE",
"209 0 LINE",
"209 30 LINE",
"120 30 LINE",
"187 226 LINE",
"412 226 LINE",
"479 30 LINE",
"390 30 LINE",
"390 0 LINE",
"578 0 LINE",
"578 30 LINE",
"511 30 LINE",
"321 590 LINE",
"319 590 LINE SMOOTH",
"268 590 OFFCURVE",
"227 592 OFFCURVE",
"177 603 CURVE",
"170 575 LINE",
"202 568 OFFCURVE",
"234 565 OFFCURVE",
"269 562 CURVE",
"88 30 LINE"
);
},
{
closed = 1;
nodes = (
"402 256 LINE",
"197 256 LINE",
"300 559 LINE"
);
}
);
width = 600;
}
);
leftKerningGroup = A2;
rightKerningGroup = A;
unicode = 00C3;
},
{
glyphname = AE;
lastChange = "2018-06-03 19:07:56 +0000";
layers = (
{
layerId = "BDF0B11D-FE68-4F4A-8590-9F0E2F87A31C";
paths = (
{
closed = 1;
nodes = (
"253.8 590.4 LINE SMOOTH",
"173.1 590.4 OFFCURVE",
"143.1 497.1 OFFCURVE",
"143.4 468 CURVE",
"173.4 468 LINE",
"173.1 483.9 OFFCURVE",
"192.9 560.4 OFFCURVE",
"253.8 560.4 CURVE SMOOTH",
"318.6 560.4 LINE",
"211.8 30 LINE",
"191.4 30 LINE",
"184.2 0 LINE",
"547.8 0 LINE",
"587.4 210 LINE",
"557.4 213.6 LINE",
"522.6 30 LINE",
"241.8 30 LINE",
"292.2 279.6 LINE",
"453 279.6 LINE",
"432.6 189.6 LINE",
"463.8 189.6 LINE",
"507 380.4 LINE",
"475.8 380.4 LINE",
"460.2 309.6 LINE",
"298.2 309.6 LINE",
"348.6 560.4 LINE",
"624.6 560.4 LINE",
"587.4 380.4 LINE",
"618.6 380.4 LINE",
"661.8 590.4 LINE"
);
},
{
closed = 1;
nodes = (
"-4.5 30 LINE",
"-36 30 LINE",
"-36 0 LINE",
"64.2 0 LINE",
"70.2 30 LINE",
"28.2 30 LINE",
"316.2 555.6 LINE",
"346.2 590.4 LINE",
"301.8 590.4 LINE"
);
},
{
closed = 1;
nodes = (
"129 240 LINE",
"277.8 240 LINE",
"277.8 270 LINE",
"129 270 LINE"
);
}
);
width = 600;
},
{
associatedMasterId = "BDF0B11D-FE68-4F4A-8590-9F0E2F87A31C";
layerId = "503A1C46-F934-44FB-A59A-495C9A2692C7";
width = 600;
},
{
associatedMasterId = "BDF0B11D-FE68-4F4A-8590-9F0E2F87A31C";
layerId = "D665805D-61DF-42D2-80F5-880565CCB1A0";
width = 600;
},
{
anchors = (
{
name = top;
position = "{405, 590}";
}
);
associatedMasterId = "BDF0B11D-FE68-4F4A-8590-9F0E2F87A31C";
layerId = "693FD62F-EB1D-4CC9-AB7C-A2E65219A9DD";
paths = (
{
closed = 1;
nodes = (
"-37 1 LINE",
"119 1 LINE",
"119 35 LINE",
"35 35 LINE",
"345 590 LINE",
"303 590 LINE",
"2 35 LINE",
"-37 35 LINE"
);
},
{
closed = 1;
nodes = (
"137 245 LINE",
"274 245 LINE",
"274 278 LINE",
"137 278 LINE"
);
},
{
closed = 1;
nodes = (
"206 0 LINE",
"554 0 LINE",
"599 213 LINE",
"564 213 LINE",
"524 33 LINE",
"248 33 LINE",
"301 276 LINE",
"462 276 LINE",
"445 190 LINE",
"478 190 LINE",
"521 380 LINE",
"486 380 LINE",
"471 310 LINE",
"307 310 LINE",
"360 558 LINE",
"637 558 LINE",
"602 380 LINE",
"635 380 LINE",
"680 590 LINE",
"332 590 LINE"
);
}
);
width = 600;
},
{
associatedMasterId = "BDF0B11D-FE68-4F4A-8590-9F0E2F87A31C";
layerId = "CFA22B1E-64FA-4627-BD63-C4E2F721A71F";
width = 600;
},
{
associatedMasterId = "BDF0B11D-FE68-4F4A-8590-9F0E2F87A31C";
layerId = "C9186C01-1F36-40E7-BB9F-3B2CC20EE60A";
width = 600;
},
{
anchors = (
{
name = top;
position = "{405, 590}";
}
);
associatedMasterId = "BDF0B11D-FE68-4F4A-8590-9F0E2F87A31C";
layerId = "07E52AA1-DD86-4D10-AB5F-0C2E668A099F";
paths = (
{
closed = 1;
nodes = (
"-37 1 LINE",
"119 1 LINE",
"119 35 LINE",
"35 35 LINE",
"345 590 LINE",
"303 590 LINE",
"2 35 LINE",
"-37 35 LINE"
);
},
{
closed = 1;
nodes = (
"137 245 LINE",
"274 245 LINE",
"274 278 LINE",
"137 278 LINE"
);
},
{
closed = 1;
nodes = (
"206 0 LINE",
"554 0 LINE",
"599 213 LINE",
"564 213 LINE",
"524 33 LINE",
"248 33 LINE",
"301 276 LINE",
"462 276 LINE",
"445 190 LINE",
"478 190 LINE",
"521 380 LINE",
"486 380 LINE",
"471 310 LINE",
"307 310 LINE",
"360 558 LINE",
"637 558 LINE",
"602 380 LINE",
"635 380 LINE",
"680 590 LINE",
"332 590 LINE"
);
}
);
width = 600;
},
{
associatedMasterId = "BDF0B11D-FE68-4F4A-8590-9F0E2F87A31C";
layerId = "CD740F51-25FF-459A-AA3D-F130AC1BD218";
paths = (
{
closed = 1;
nodes = (
"199 0 LINE",
"11 0 LINE",
"11 30 LINE",
"78 30 LINE",
"259 562 LINE",
"224 565 OFFCURVE",
"192 568 OFFCURVE",
"160 575 CURVE",
"167 603 LINE",
"217 592 OFFCURVE",
"258 590 OFFCURVE",
"309 590 CURVE SMOOTH",
"580 590 LINE",
"588 494 LINE",
"558 491 LINE",
"553 560 LINE",
"320 560 LINE",
"320 280 LINE",
"449 280 LINE",
"449 400 LINE",
"479 400 LINE",
"479 135 LINE",
"449 135 LINE",
"449 250 LINE",
"320 250 LINE",
"320 30 LINE",
"553 30 LINE",
"558 96 LINE",
"588 93 LINE",
"580 0 LINE",
"290 0 LINE",
"290 250 LINE",
"185 250 LINE",
"110 30 LINE",
"199 30 LINE"
);
},
{
closed = 1;
nodes = (
"290 559 LINE",
"195 280 LINE",
"290 280 LINE"
);
}
);
width = 600;
}
);
unicode = 00C6;
},
{
glyphname = B;
lastChange = "2018-06-03 19:07:56 +0000";
layers = (
{
components = (
{
name = Swash;
transform = "{1, 0, 0, 1, -163, 0}";
}
);
layerId = "BDF0B11D-FE68-4F4A-8590-9F0E2F87A31C";
paths = (
{
closed = 1;
nodes = (
"421 294 OFFCURVE",
"514 273 OFFCURVE",
"511.2 192 CURVE SMOOTH",
"507 78 OFFCURVE",
"448 30 OFFCURVE",
"291.6 30 CURVE SMOOTH",
"126 30 LINE",
"182.4 294 LINE",
"344.4 294 LINE SMOOTH"
);
},
{
closed = 1;
nodes = (
"237.6 561.6 LINE",
"380.4 561.6 LINE SMOOTH",
"473 562 OFFCURVE",
"542 537 OFFCURVE",
"540 460.8 CURVE SMOOTH",
"538 375 OFFCURVE",
"452 323 OFFCURVE",
"338.4 322.8 CURVE SMOOTH",
"189.6 322.8 LINE"
);
},
{
closed = 1;
nodes = (
"512 323 OFFCURVE",
"573 385 OFFCURVE",
"570 460.8 CURVE SMOOTH",
"566 551 OFFCURVE",
"500 590 OFFCURVE",
"388.8 590.4 CURVE SMOOTH",
"212.4 590.4 LINE",
"206.4 562.8 LINE",
"207.6 562.8 LINE",
"94.8 30 LINE",
"32.4 30 LINE",
"26.4 0 LINE",
"288 0 LINE SMOOTH",
"468 0 OFFCURVE",
"535 60 OFFCURVE",
"541.2 193.2 CURVE SMOOTH",
"544 255 OFFCURVE",
"505 295 OFFCURVE",
"429.6 309.6 CURVE"
);
}
);
width = 600;
},
{
associatedMasterId = "BDF0B11D-FE68-4F4A-8590-9F0E2F87A31C";
layerId = "BCC88459-D2A8-46F9-8179-D05C9BCFA89F";
paths = (
{
closed = 1;
nodes = (
"-3 35 LINE",
"86 35 LINE",
"233 556 LINE",
"141 556 LINE",
"141 590 LINE",
"378 590 LINE SMOOTH",
"490 590 OFFCURVE",
"555 541 OFFCURVE",
"555 443 CURVE SMOOTH",
"555 386 OFFCURVE",
"519 336 OFFCURVE",
"474 325 CURVE",
"474 325 LINE",
"545 312 OFFCURVE",
"561 194 OFFCURVE",
"511 115 CURVE SMOOTH",
"451 20 OFFCURVE",
"392 1 OFFCURVE",
"244 1 CURVE SMOOTH",
"-3 1 LINE"
);
},
{
closed = 1;
nodes = (
"120 35 LINE",
"244 35 LINE SMOOTH",
"368 35 OFFCURVE",
"432 55 OFFCURVE",
"478 122 CURVE SMOOTH",
"533 202 OFFCURVE",
"495 309 OFFCURVE",
"418 309 CURVE SMOOTH",
"201 309 LINE"
);
},
{
closed = 1;
nodes = (
"207 343 LINE",
"378 342 LINE SMOOTH",
"469 341 OFFCURVE",
"521 373 OFFCURVE",
"521 443 CURVE SMOOTH",
"521 521 OFFCURVE",
"465 556 OFFCURVE",
"378 556 CURVE SMOOTH",
"267 556 LINE"
);
}
);
width = 600;
},
{
associatedMasterId = "BDF0B11D-FE68-4F4A-8590-9F0E2F87A31C";
layerId = "8598C3DB-98AA-491E-93D4-1A2ED56C93AC";
paths = (
{
closed = 1;
nodes = (
"221.7 561 LINE",
"391 560 LINE",
"475.2 560.1 OFFCURVE",
"537.3 527.1 OFFCURVE",
"527.4 438 CURVE SMOOTH",
"519.6 368.1 OFFCURVE",
"442.2 330 OFFCURVE",
"346 330 CURVE SMOOTH",
"164.5 330 LINE",
"157 300 LINE",
"332 300 LINE SMOOTH",
"447.6 300 OFFCURVE",
"529.2 268.2 OFFCURVE",
"506.7 167.1 CURVE SMOOTH",
"480 46.8 OFFCURVE",
"407.4 30.6 OFFCURVE",
"273.9 30 CURVE SMOOTH",
"105.9 29.4 LINE"
);
},
{
closed = 1;
nodes = (
"569.7 545.1 OFFCURVE",
"486 590.1 OFFCURVE",
"396 590 CURVE SMOOTH",
"377.1 590.1 OFFCURVE",
"253 590 OFFCURVE",
"197 590 CURVE",
"108 590.4 LINE",
"102 560.4 LINE",
"190.5 560 LINE",
"75 29.4 LINE",
"-12 30 LINE",
"-18 -1.2 LINE",
"84.9 -0.6 LINE",
"267.9 0 LINE",
"449.1 0 OFFCURVE",
"511.2 42.9 OFFCURVE",
"537.3 167.1 CURVE SMOOTH",
"554.7 249.3 OFFCURVE",
"498.3 312.9 OFFCURVE",
"442 313 CURVE",
"500.4 329.1 OFFCURVE",
"551.1 375 OFFCURVE",
"558 438 CURVE SMOOTH"
);
}
);
width = 600;
},
{
associatedMasterId = "BDF0B11D-FE68-4F4A-8590-9F0E2F87A31C";
components = (
{
name = Swash;
transform = "{1, 0, 0, 1, -165, 0}";
}
);
layerId = "792DE48E-023E-4560-8BB4-0B923B1170E4";
paths = (
{
closed = 1;
nodes = (
"505 300 OFFCURVE",
"566 372 OFFCURVE",
"576 438 CURVE SMOOTH",
"593 545 OFFCURVE",
"496 590 OFFCURVE",
"408 590.4 CURVE SMOOTH",
"244.8 590.4 LINE",
"204 590.4 LINE",
"210 560.4 LINE",
"238.8 560.4 LINE",
"123.6 30 LINE",
"36 30 LINE",
"30 -1.2 LINE",
"315.6 0 LINE SMOOTH",
"425 0 OFFCURVE",
"554 42 OFFCURVE",
"559.2 166.8 CURVE SMOOTH",
"563 247 OFFCURVE",
"492 302 OFFCURVE",
"440.4 313.2 CURVE",
"421.2 296.4 LINE",
"461 285 OFFCURVE",
"533 241 OFFCURVE",
"529.2 166.8 CURVE SMOOTH",
"522 48 OFFCURVE",
"388 30 OFFCURVE",
"321.6 30 CURVE SMOOTH",
"153.6 30 LINE",
"212.4 300 LINE",
"381.6 300 LINE SMOOTH"
);
},
{
closed = 1;
nodes = (
"219.6 330 LINE",
"270 561.6 LINE",
"403.2 560.4 LINE SMOOTH",
"485 560 OFFCURVE",
"558 527 OFFCURVE",
"546 438 CURVE SMOOTH",
"539 388 OFFCURVE",
"470 330 OFFCURVE",
"396 330 CURVE SMOOTH"
);
}
);
width = 600;
},
{
associatedMasterId = "BDF0B11D-FE68-4F4A-8590-9F0E2F87A31C";
layerId = "CD740F51-25FF-459A-AA3D-F130AC1BD218";
paths = (
{
closed = 1;
nodes = (
"487 322 OFFCURVE",
"521 382 OFFCURVE",
"521 438 CURVE SMOOTH",
"521 545 OFFCURVE",
"436 596 OFFCURVE",
"315 592 CURVE SMOOTH",
"286 591 OFFCURVE",
"193 590 OFFCURVE",
"152 590 CURVE SMOOTH",
"106 590 OFFCURVE",
"68 593 OFFCURVE",
"22 603 CURVE",
"15 575 LINE",
"46 568 OFFCURVE",
"92 560 OFFCURVE",
"123 560 CURVE",
"123 30 LINE",
"20 30 LINE",
"20 0 LINE",
"138 0 LINE SMOOTH",
"169 0 OFFCURVE",
"281 -3 OFFCURVE",
"311 -4 CURVE SMOOTH",
"438 -9 OFFCURVE",
"554 40 OFFCURVE",
"554 161 CURVE SMOOTH",
"554 254 OFFCURVE",
"486 303 OFFCURVE",
"420 313 CURVE"
);
},
{
closed = 1;
nodes = (
"491 354 OFFCURVE",
"420 328 OFFCURVE",
"326 328 CURVE SMOOTH",
"153 328 LINE",
"153 560 LINE",
"160 560 LINE SMOOTH",
"195 560 OFFCURVE",
"293 562 OFFCURVE",
"315 562 CURVE SMOOTH",
"426 562 OFFCURVE",
"491 524 OFFCURVE",
"491 438 CURVE SMOOTH"
);
},
{
closed = 1;
nodes = (
"153 31 LINE",
"153 298 LINE",
"326 298 LINE SMOOTH",
"440 298 OFFCURVE",
"524 254 OFFCURVE",
"524 161 CURVE SMOOTH",
"524 60 OFFCURVE",
"421 22 OFFCURVE",
"310 26 CURVE SMOOTH"
);
}
);
width = 600;
}
);
unicode = 0042;
},
{
glyphname = C;
lastChange = "2018-06-03 19:07:56 +0000";
layers = (
{
anchors = (
{
name = bottom;
position = "{268.8, -12}";
},
{
name = top;
position = "{382.8, 602.4}";
}
);
layerId = "BDF0B11D-FE68-4F4A-8590-9F0E2F87A31C";
paths = (
{
closed = 1;
nodes = (
"498 166.8 LINE",
"460 91 OFFCURVE",
"373 17 OFFCURVE",
"284.4 16.8 CURVE SMOOTH",
"167 17 OFFCURVE",
"95 93 OFFCURVE",
"93.6 206.4 CURVE SMOOTH",
"96 386 OFFCURVE",
"220 573 OFFCURVE",
"380.4 572.4 CURVE SMOOTH",
"488 572 OFFCURVE",
"523 513 OFFCURVE",
"518.4 458.4 CURVE",
"515 466 OFFCURVE",
"500 473 OFFCURVE",
"480 474 CURVE SMOOTH",
"453 475 OFFCURVE",
"425 448 OFFCURVE",
"423.6 418.8 CURVE SMOOTH",
"421 374 OFFCURVE",
"459 358 OFFCURVE",
"481.2 360 CURVE SMOOTH",
"521 363 OFFCURVE",
"554 402 OFFCURVE",
"553.2 454.8 CURVE SMOOTH",
"552 552 OFFCURVE",
"480 602 OFFCURVE",
"378 602.4 CURVE SMOOTH",
"203 603 OFFCURVE",
"66 406 OFFCURVE",
"64.8 207.6 CURVE SMOOTH",
"65 75 OFFCURVE",
"152 -13 OFFCURVE",
"282 -13.2 CURVE SMOOTH",
"382 -13 OFFCURVE",
"470 57 OFFCURVE",
"524.4 152.4 CURVE"
);
}
);
width = 600;
},
{
associatedMasterId = "BDF0B11D-FE68-4F4A-8590-9F0E2F87A31C";
layerId = "503A1C46-F934-44FB-A59A-495C9A2692C7";
width = 600;
},
{
associatedMasterId = "BDF0B11D-FE68-4F4A-8590-9F0E2F87A31C";
layerId = "D665805D-61DF-42D2-80F5-880565CCB1A0";
width = 600;
},
{
associatedMasterId = "BDF0B11D-FE68-4F4A-8590-9F0E2F87A31C";
layerId = "693FD62F-EB1D-4CC9-AB7C-A2E65219A9DD";
paths = (
{
closed = 1;
nodes = (
"448 191 LINE",
"451 96 OFFCURVE",
"339 20 OFFCURVE",
"269 20 CURVE SMOOTH",
"142 20 OFFCURVE",
"58 122 OFFCURVE",
"58 233 CURVE SMOOTH",
"58 399 OFFCURVE",
"146 567 OFFCURVE",
"323 567 CURVE SMOOTH",
"386 567 OFFCURVE",
"436 543 OFFCURVE",
"474 496 CURVE",
"470 440 LINE",
"505 439 LINE",
"516 590 LINE",
"481 590 LINE",
"477 543 LINE",
"432 583 OFFCURVE",
"386 601 OFFCURVE",
"323 601 CURVE SMOOTH",
"124 601 OFFCURVE",
"20 413 OFFCURVE",
"20 233 CURVE SMOOTH",
"20 87 OFFCURVE",
"133 -13 OFFCURVE",
"269 -13 CURVE SMOOTH",
"371 -13 OFFCURVE",
"493 79 OFFCURVE",
"487 191 CURVE"
);
}
);
width = 600;
},
{
associatedMasterId = "BDF0B11D-FE68-4F4A-8590-9F0E2F87A31C";
layerId = "28AF6DCA-8B7F-4A20-849E-05D9B2C2489D";
width = 600;
},
{
associatedMasterId = "BDF0B11D-FE68-4F4A-8590-9F0E2F87A31C";
layerId = "AE1D2507-5B20-4F07-8608-1D3B8C776DB6";
width = 600;
},
{
associatedMasterId = "BDF0B11D-FE68-4F4A-8590-9F0E2F87A31C";
layerId = "0A122A1F-CC0B-48D5-8656-32E0B67FB45B";
paths = (
{
closed = 1;
nodes = (
"448 191 LINE",
"451 96 OFFCURVE",
"339 20 OFFCURVE",
"269 20 CURVE SMOOTH",
"142 20 OFFCURVE",
"58 122 OFFCURVE",
"58 233 CURVE SMOOTH",
"58 399 OFFCURVE",
"146 567 OFFCURVE",
"323 567 CURVE SMOOTH",
"386 567 OFFCURVE",
"436 543 OFFCURVE",
"474 496 CURVE",
"470 440 LINE",
"505 439 LINE",
"516 590 LINE",
"481 590 LINE",
"477 543 LINE",
"432 583 OFFCURVE",
"386 601 OFFCURVE",
"323 601 CURVE SMOOTH",
"124 601 OFFCURVE",
"20 413 OFFCURVE",
"20 233 CURVE SMOOTH",
"20 87 OFFCURVE",
"133 -13 OFFCURVE",
"269 -13 CURVE SMOOTH",
"371 -13 OFFCURVE",
"493 79 OFFCURVE",
"487 191 CURVE"
);
}
);
width = 600;
},
{
anchors = (
{
name = top;
position = "{318, 604}";
}
);
associatedMasterId = "BDF0B11D-FE68-4F4A-8590-9F0E2F87A31C";
layerId = "4E8BBB74-622B-4CDB-B368-7FAEF4930F26";
paths = (
{
closed = 1;
nodes = (
"448 191 LINE",
"451 96 OFFCURVE",
"339 20 OFFCURVE",
"269 20 CURVE SMOOTH",
"142 20 OFFCURVE",
"58 122 OFFCURVE",
"58 233 CURVE SMOOTH",
"58 399 OFFCURVE",
"146 567 OFFCURVE",
"323 567 CURVE SMOOTH",
"386 567 OFFCURVE",
"436 543 OFFCURVE",
"474 496 CURVE",
"470 440 LINE",
"505 439 LINE",
"516 590 LINE",
"481 590 LINE",
"477 543 LINE",
"432 583 OFFCURVE",
"386 601 OFFCURVE",
"323 601 CURVE SMOOTH",
"124 601 OFFCURVE",
"20 413 OFFCURVE",
"20 233 CURVE SMOOTH",
"20 87 OFFCURVE",
"133 -13 OFFCURVE",
"269 -13 CURVE SMOOTH",
"371 -13 OFFCURVE",
"493 79 OFFCURVE",
"487 191 CURVE"
);
}
);
width = 600;
},
{
anchors = (
{
name = bottom;
position = "{268.8, -12}";
},
{
name = top;
position = "{382.8, 602.4}";
}
);
associatedMasterId = "BDF0B11D-FE68-4F4A-8590-9F0E2F87A31C";
layerId = "8D9D676B-9B8C-45C7-97DA-3F581E36AA22";
paths = (
{
closed = 1;
nodes = (
"477.6 105.6 LINE",
"420 49 OFFCURVE",
"344 16 OFFCURVE",
"273.6 16.8 CURVE SMOOTH",
"210 18 OFFCURVE",
"165 38 OFFCURVE",
"128.4 86.4 CURVE SMOOTH",
"90 138 OFFCURVE",
"87 213 OFFCURVE",
"103.2 288 CURVE SMOOTH",
"120 362 OFFCURVE",
"153 430 OFFCURVE",
"212.4 488.4 CURVE SMOOTH",
"266 541 OFFCURVE",
"330 572 OFFCURVE",
"396 572.4 CURVE SMOOTH",
"489 572 OFFCURVE",
"541 510 OFFCURVE",
"524.4 423.6 CURVE",
"520 434 OFFCURVE",
"497 440 OFFCURVE",
"480 439.2 CURVE SMOOTH",
"456 438 OFFCURVE",
"428 414 OFFCURVE",
"427.2 384 CURVE SMOOTH",
"428 338 OFFCURVE",
"467 323 OFFCURVE",
"489.6 325.2 CURVE SMOOTH",
"527 329 OFFCURVE",
"544 371 OFFCURVE",
"552 408 CURVE SMOOTH",
"577 515 OFFCURVE",
"512 602 OFFCURVE",
"393.6 602.4 CURVE SMOOTH",
"318 602 OFFCURVE",
"256 570 OFFCURVE",
"195.6 513.6 CURVE SMOOTH",
"136 458 OFFCURVE",
"92 380 OFFCURVE",
"73.2 288 CURVE SMOOTH",
"55 199 OFFCURVE",
"66 121.2 OFFCURVE",
"104.4 68.4 CURVE SMOOTH",
"141.6 15.6 OFFCURVE",
"202 -13 OFFCURVE",
"273.6 -13.2 CURVE SMOOTH",
"355 -13 OFFCURVE",
"430 18 OFFCURVE",
"496.8 81.6 CURVE"
);
}
);
width = 600;
},
{
associatedMasterId = "BDF0B11D-FE68-4F4A-8590-9F0E2F87A31C";
layerId = "CD740F51-25FF-459A-AA3D-F130AC1BD218";
paths = (
{
closed = 1;
nodes = (
"460 511 OFFCURVE",
"374 573 OFFCURVE",
"298 573 CURVE SMOOTH",
"159 573 OFFCURVE",
"63 449 OFFCURVE",
"63 288 CURVE SMOOTH",
"63 128 OFFCURVE",
"164 17 OFFCURVE",
"300 17 CURVE SMOOTH",
"426 17 OFFCURVE",
"508 106 OFFCURVE",
"552 231 CURVE",
"580 219 LINE",
"527 76 OFFCURVE",
"437 -13 OFFCURVE",
"300 -13 CURVE SMOOTH",
"140 -13 OFFCURVE",
"33 119 OFFCURVE",
"33 288 CURVE SMOOTH",
"33 464 OFFCURVE",
"138 603 OFFCURVE",
"298 603 CURVE SMOOTH",
"410 603 OFFCURVE",
"495 511 OFFCURVE",
"495 408 CURVE SMOOTH",
"495 367 OFFCURVE",
"473 333 OFFCURVE",
"434 333 CURVE SMOOTH",
"399 333 OFFCURVE",
"378 360 OFFCURVE",
"378 394 CURVE SMOOTH",
"378 437 OFFCURVE",
"435 460 OFFCURVE",
"460 430 CURVE"
);
}
);
width = 600;
}
);
leftKerningGroup = C2;
rightKerningGroup = C;
unicode = 0043;
},
{
glyphname = Ccedilla;
lastChange = "2018-06-03 19:07:56 +0000";
layers = (
{
components = (
{
name = C;
}
);
layerId = "BDF0B11D-FE68-4F4A-8590-9F0E2F87A31C";
width = 600;
},
{
associatedMasterId = "BDF0B11D-FE68-4F4A-8590-9F0E2F87A31C";
layerId = "503A1C46-F934-44FB-A59A-495C9A2692C7";
width = 600;
},
{
associatedMasterId = "BDF0B11D-FE68-4F4A-8590-9F0E2F87A31C";
layerId = "D665805D-61DF-42D2-80F5-880565CCB1A0";
width = 600;
},
{
associatedMasterId = "BDF0B11D-FE68-4F4A-8590-9F0E2F87A31C";
components = (
{
name = C;
}
);
layerId = "693FD62F-EB1D-4CC9-AB7C-A2E65219A9DD";
width = 600;
},
{
associatedMasterId = "BDF0B11D-FE68-4F4A-8590-9F0E2F87A31C";
layerId = "C8970E99-F846-477F-9332-F67E7567EDE7";
width = 600;
},
{
associatedMasterId = "BDF0B11D-FE68-4F4A-8590-9F0E2F87A31C";
layerId = "937BF47D-2C32-4BA1-81AF-9DFAEBE13F0C";
width = 600;
},
{
associatedMasterId = "BDF0B11D-FE68-4F4A-8590-9F0E2F87A31C";
components = (
{
name = C;
}
);
layerId = "FE884933-D4AC-45CF-BE00-52BA0898FF32";
width = 600;
},
{
associatedMasterId = "BDF0B11D-FE68-4F4A-8590-9F0E2F87A31C";
layerId = "CD740F51-25FF-459A-AA3D-F130AC1BD218";
paths = (
{
closed = 1;
nodes = (
"460 511 OFFCURVE",
"374 573 OFFCURVE",
"298 573 CURVE SMOOTH",
"159 573 OFFCURVE",
"63 449 OFFCURVE",
"63 288 CURVE SMOOTH",
"63 128 OFFCURVE",
"164 17 OFFCURVE",
"300 17 CURVE SMOOTH",
"426 17 OFFCURVE",
"508 106 OFFCURVE",
"552 231 CURVE",
"580 219 LINE",
"527 76 OFFCURVE",
"437 -13 OFFCURVE",
"300 -13 CURVE SMOOTH",
"140 -13 OFFCURVE",
"33 119 OFFCURVE",
"33 288 CURVE SMOOTH",
"33 464 OFFCURVE",
"138 603 OFFCURVE",
"298 603 CURVE SMOOTH",
"410 603 OFFCURVE",
"495 511 OFFCURVE",
"495 408 CURVE SMOOTH",
"495 367 OFFCURVE",
"473 333 OFFCURVE",
"434 333 CURVE SMOOTH",
"399 333 OFFCURVE",
"378 360 OFFCURVE",
"378 394 CURVE SMOOTH",
"378 437 OFFCURVE",
"435 460 OFFCURVE",
"460 430 CURVE"
);
},
{
closed = 1;
nodes = (
"29 -9 OFFCURVE",
"30 -9 OFFCURVE",
"30 -9 CURVE",
"32 -9 OFFCURVE",
"33 -8 OFFCURVE",
"33 -7 CURVE SMOOTH",
"33 -5 OFFCURVE",
"31 -4 OFFCURVE",
"30 -4 CURVE SMOOTH",
"28 -4 OFFCURVE",
"26 -6 OFFCURVE",
"26 -8 CURVE SMOOTH",
"26 -14 OFFCURVE",
"33 -17 OFFCURVE",
"40 -17 CURVE SMOOTH",
"45 -17 OFFCURVE",
"52 -16 OFFCURVE",
"52 -11 CURVE SMOOTH",
"52 -7 OFFCURVE",
"48 -5 OFFCURVE",
"44 -5 CURVE",
"44 1 LINE",
"42 1 LINE",
"42 -7 LINE",
"47 -7 OFFCURVE",
"50 -8 OFFCURVE",
"50 -11 CURVE SMOOTH",
"50 -14 OFFCURVE",
"44 -15 OFFCURVE",
"40 -15 CURVE SMOOTH",
"35 -15 OFFCURVE",
"28 -13 OFFCURVE",
"28 -8 CURVE"
);
}
);
width = 600;
}
);
leftKerningGroup = C2;
rightKerningGroup = C;
unicode = 00C7;
},
{
glyphname = D;
lastChange = "2018-06-03 19:07:56 +0000";
layers = (
{
associatedMasterId = "BDF0B11D-FE68-4F4A-8590-9F0E2F87A31C";
layerId = "503A1C46-F934-44FB-A59A-495C9A2692C7";
width = 600;
},
{
associatedMasterId = "BDF0B11D-FE68-4F4A-8590-9F0E2F87A31C";
layerId = "D665805D-61DF-42D2-80F5-880565CCB1A0";
width = 600;
},
{
associatedMasterId = "BDF0B11D-FE68-4F4A-8590-9F0E2F87A31C";
layerId = "693FD62F-EB1D-4CC9-AB7C-A2E65219A9DD";
paths = (
{
closed = 1;
nodes = (
"-50 1 LINE",
"238 1 LINE SMOOTH",
"394 1 OFFCURVE",
"502 135 OFFCURVE",
"537 298 CURVE SMOOTH",
"577 485 OFFCURVE",
"492 590 OFFCURVE",
"328 590 CURVE SMOOTH",
"61 590 LINE",
"61 556 LINE",
"185 556 LINE",
"74 35 LINE",
"-50 35 LINE"
);
},
{
closed = 1;
nodes = (
"108 35 LINE",
"219 556 LINE",
"327 556 LINE SMOOTH",
"473 556 OFFCURVE",
"543 466 OFFCURVE",
"502 298 CURVE SMOOTH",
"467 155 OFFCURVE",
"374 35 OFFCURVE",
"237 35 CURVE SMOOTH"
);
}
);
width = 600;
},
{
associatedMasterId = "BDF0B11D-FE68-4F4A-8590-9F0E2F87A31C";
layerId = "875AB982-C01E-415A-93BE-DF3286A23196";
width = 600;
},
{
associatedMasterId = "BDF0B11D-FE68-4F4A-8590-9F0E2F87A31C";
layerId = "0D7CECF5-12D1-4E2A-A539-D05D6527F875";
width = 600;
},
{
associatedMasterId = "BDF0B11D-FE68-4F4A-8590-9F0E2F87A31C";
layerId = "A4B69C84-E078-4CDB-8703-2482A8EF2A2D";
paths = (
{
closed = 1;
nodes = (
"-50 1 LINE",
"238 1 LINE SMOOTH",
"394 1 OFFCURVE",
"502 135 OFFCURVE",
"537 298 CURVE SMOOTH",
"577 485 OFFCURVE",
"492 590 OFFCURVE",
"328 590 CURVE SMOOTH",
"61 590 LINE",
"61 556 LINE",
"185 556 LINE",
"74 35 LINE",
"-50 35 LINE"
);
},
{
closed = 1;
nodes = (
"108 35 LINE",
"219 556 LINE",
"327 556 LINE SMOOTH",
"473 556 OFFCURVE",
"543 466 OFFCURVE",
"502 298 CURVE SMOOTH",
"467 155 OFFCURVE",
"374 35 OFFCURVE",
"237 35 CURVE SMOOTH"
);
}
);
width = 600;
},
{
anchors = (
{
name = top;
position = "{319, 601}";
}
);
associatedMasterId = "BDF0B11D-FE68-4F4A-8590-9F0E2F87A31C";
layerId = "9796A4EB-D0BB-4B44-8A84-7D179A268807";
paths = (
{
closed = 1;
nodes = (
"10 1 LINE",
"268 1 LINE SMOOTH",
"424 1 OFFCURVE",
"532 135 OFFCURVE",
"567 298 CURVE SMOOTH",
"607 485 OFFCURVE",
"522 590 OFFCURVE",
"358 590 CURVE SMOOTH",
"223 590 LINE",
"215 556 LINE",
"104 35 LINE",
"10 35 LINE"
);
},
{
closed = 1;
nodes = (
"138 35 LINE",
"249 556 LINE",
"357 556 LINE SMOOTH",
"503 556 OFFCURVE",
"573 466 OFFCURVE",
"532 298 CURVE SMOOTH",
"497 155 OFFCURVE",
"404 35 OFFCURVE",
"267 35 CURVE SMOOTH"
);
},
{
closed = 1;
nodes = (
"260 558 CURVE",
"272 590 LINE",
"215 590 OFFCURVE",
"165 591 OFFCURVE",
"115 602 CURVE",
"101 574 LINE",
"146 563 OFFCURVE",
"180 558 OFFCURVE"
);
}
);
width = 600;
},
{
anchors = (
{
name = top;
position = "{307.2, 601.2}";
}
);
components = (
{
name = Swash;
transform = "{1, 0, 0, 1, -153, 0}";
}
);
layerId = "BDF0B11D-FE68-4F4A-8590-9F0E2F87A31C";
paths = (
{
closed = 1;
nodes = (
"277.2 590.4 LINE",
"247.2 590.4 LINE",
"241.2 560.4 LINE",
"242.4 560.4 LINE",
"130.8 30 LINE",
"26.4 30 LINE",
"19.2 0 LINE",
"295.2 0 LINE SMOOTH",
"643.2 0 OFFCURVE",
"722 590 OFFCURVE",
"315.6 590.4 CURVE SMOOTH"
);
},
{
closed = 1;
nodes = (
"165.6 30 LINE",
"276 560.4 LINE",
"314.4 560.4 LINE SMOOTH",
"681 560 OFFCURVE",
"604.8 30 OFFCURVE",
"294 30 CURVE SMOOTH"
);
}
);
width = 600;
},
{
anchors = (
{
name = top;
position = "{319, 601}";
}
);
associatedMasterId = "BDF0B11D-FE68-4F4A-8590-9F0E2F87A31C";
components = (
{
name = Swash;
transform = "{1, 0, 0, 1, -168, 0}";
}
);
layerId = "E0AC3C52-94FF-4A04-A2E6-B9F6BC9C922C";
paths = (
{
closed = 1;
nodes = (
"24 0 LINE",
"300 0 LINE SMOOTH",
"456 0 OFFCURVE",
"564 134 OFFCURVE",
"598.8 297.6 CURVE SMOOTH",
"639 484 OFFCURVE",
"554 590 OFFCURVE",
"390 590.4 CURVE SMOOTH",
"198 590.4 LINE",
"192 560.4 LINE",
"247.2 560.4 LINE",
"135.6 30 LINE",
"31.2 30 LINE"
);
},
{
closed = 1;
nodes = (
"170.4 30 LINE",
"280.8 560.4 LINE",
"388.8 560.4 LINE SMOOTH",
"539 560 OFFCURVE",
"605 467 OFFCURVE",
"567.6 296.4 CURVE SMOOTH",
"535 148 OFFCURVE",
"436 30 OFFCURVE",
"298.8 30 CURVE SMOOTH"
);
}
);
width = 600;
},
{
associatedMasterId = "BDF0B11D-FE68-4F4A-8590-9F0E2F87A31C";
layerId = "CD740F51-25FF-459A-AA3D-F130AC1BD218";
paths = (
{
closed = 1;
nodes = (
"14 575 LINE",
"46 568 OFFCURVE",
"93 560 OFFCURVE",
"124 560 CURVE SMOOTH",
"125 560 LINE",
"125 30 LINE",
"32 30 LINE",
"32 0 LINE",
"283 0 LINE SMOOTH",
"360 0 OFFCURVE",
"424 22 OFFCURVE",
"473 61 CURVE SMOOTH",
"536 112 OFFCURVE",
"574 192 OFFCURVE",
"574 290 CURVE SMOOTH",
"574 378 OFFCURVE",
"545 456 OFFCURVE",
"492 511 CURVE SMOOTH",
"444 562 OFFCURVE",
"375 593 OFFCURVE",
"301 593 CURVE SMOOTH",
"258 593 OFFCURVE",
"218 589 OFFCURVE",
"163 589 CURVE SMOOTH",
"112 589 OFFCURVE",
"71 592 OFFCURVE",
"21 603 CURVE"
);
},
{
closed = 1;
nodes = (
"155 30 LINE",
"155 558 LINE",
"175 559 OFFCURVE",
"272 563 OFFCURVE",
"300 563 CURVE SMOOTH",
"441 561 OFFCURVE",
"544 446 OFFCURVE",
"544 290 CURVE SMOOTH",
"544 129 OFFCURVE",
"435 30 OFFCURVE",
"283 30 CURVE SMOOTH"
);
}
);
width = 600;
}
);
unicode = 0044;
userData = {
com.typemytype.robofont.guides = (
{
angle = 78;
isGlobal = 0;
magnetic = 5;
x = 121;
y = 239;
},
{
angle = 78;
isGlobal = 0;
magnetic = 5;
x = 83;
y = 239;
}
);
};
},
{
glyphname = Eth;
lastChange = "2018-06-03 19:07:56 +0000";
layers = (
{
components = (
{
name = D;
}
);
layerId = "BDF0B11D-FE68-4F4A-8590-9F0E2F87A31C";
paths = (
{
closed = 1;
nodes = (
"91.2 285.6 LINE",
"321 285 LINE",
"327 313 LINE",
"96 313.2 LINE"
);
}
);
width = 600;
},
{
associatedMasterId = "BDF0B11D-FE68-4F4A-8590-9F0E2F87A31C";
layerId = "CD740F51-25FF-459A-AA3D-F130AC1BD218";
paths = (
{
closed = 1;
nodes = (
"445 561 OFFCURVE",
"377 593 OFFCURVE",
"303 593 CURVE SMOOTH",
"260 593 OFFCURVE",
"220 589 OFFCURVE",
"165 589 CURVE SMOOTH",
"114 589 OFFCURVE",
"73 592 OFFCURVE",
"23 603 CURVE",
"16 575 LINE",
"48 568 OFFCURVE",
"95 560 OFFCURVE",
"126 560 CURVE SMOOTH",
"127 560 LINE",
"127 325 LINE",
"40 325 LINE",
"40 295 LINE",
"127 295 LINE",
"127 30 LINE",
"34 30 LINE",
"34 0 LINE",
"285 0 LINE SMOOTH",
"362 0 OFFCURVE",
"426 22 OFFCURVE",
"475 61 CURVE SMOOTH",
"538 111 OFFCURVE",
"576 192 OFFCURVE",
"576 290 CURVE SMOOTH",
"576 378 OFFCURVE",
"547 456 OFFCURVE",
"494 511 CURVE SMOOTH"
);
},
{
closed = 1;
nodes = (
"157 30 LINE",
"157 295 LINE",
"243 295 LINE",
"243 325 LINE",
"157 325 LINE",
"157 558 LINE",
"177 559 OFFCURVE",
"274 563 OFFCURVE",
"302 563 CURVE SMOOTH",
"443 563 OFFCURVE",
"546 446 OFFCURVE",
"546 290 CURVE SMOOTH",
"546 129 OFFCURVE",
"437 30 OFFCURVE",
"285 30 CURVE SMOOTH"
);
}
);
width = 600;
}
);
unicode = 00D0;
},
{
glyphname = E;
lastChange = "2018-06-03 19:07:56 +0000";
layers = (
{
associatedMasterId = "BDF0B11D-FE68-4F4A-8590-9F0E2F87A31C";
layerId = "503A1C46-F934-44FB-A59A-495C9A2692C7";
width = 600;
},
{
associatedMasterId = "BDF0B11D-FE68-4F4A-8590-9F0E2F87A31C";
layerId = "D665805D-61DF-42D2-80F5-880565CCB1A0";
width = 600;
},
{
anchors = (
{
name = top;
position = "{395, 590}";
}
);
associatedMasterId = "BDF0B11D-FE68-4F4A-8590-9F0E2F87A31C";
layerId = "693FD62F-EB1D-4CC9-AB7C-A2E65219A9DD";
paths = (
{
closed = 1;
nodes = (
"20 0 LINE",
"488 0 LINE",
"528 210 LINE",
"495 213 LINE",
"461 33 LINE",
"179 33 LINE",
"232 276 LINE",
"393 276 LINE",
"376 190 LINE",
"409 190 LINE",
"452 380 LINE",
"417 380 LINE",
"402 310 LINE",
"238 310 LINE",
"291 558 LINE",
"572 558 LINE",
"533 380 LINE",
"565 380 LINE",
"611 589 LINE",
"133 590 LINE",
"133 557 LINE",
"257 558 LINE",
"144 33 LINE",
"20 33 LINE"
);
}
);
width = 600;
},
{
associatedMasterId = "BDF0B11D-FE68-4F4A-8590-9F0E2F87A31C";
layerId = "EE666026-3CE3-4600-BB9D-C05A639AC856";
width = 600;
},
{
associatedMasterId = "BDF0B11D-FE68-4F4A-8590-9F0E2F87A31C";
layerId = "D795E400-7641-41CA-AD98-75D153CA1F1E";
width = 600;
},
{
anchors = (
{
name = top;
position = "{395, 590}";
}
);
associatedMasterId = "BDF0B11D-FE68-4F4A-8590-9F0E2F87A31C";
layerId = "0C1199E4-D3EE-45DE-B14F-0D89119AABE3";
paths = (
{
closed = 1;
nodes = (
"20 0 LINE",
"488 0 LINE",
"528 210 LINE",
"495 213 LINE",
"461 33 LINE",
"179 33 LINE",
"232 276 LINE",
"393 276 LINE",
"376 190 LINE",
"409 190 LINE",
"452 380 LINE",
"417 380 LINE",
"402 310 LINE",
"238 310 LINE",
"291 558 LINE",
"572 558 LINE",
"533 380 LINE",
"565 380 LINE",
"611 589 LINE",
"133 590 LINE",
"133 557 LINE",
"257 558 LINE",
"144 33 LINE",
"20 33 LINE"
);
}
);
width = 600;
},
{
anchors = (
{
name = top;
position = "{395, 590}";
}
);
associatedMasterId = "BDF0B11D-FE68-4F4A-8590-9F0E2F87A31C";
layerId = "D607AB40-3BB8-4EF8-AA7C-7DF80135EDD7";
paths = (
{
closed = 1;
nodes = (
"29 0 LINE",
"467 0 LINE",
"507 210 LINE",
"474 213 LINE",
"440 33 LINE",
"158 33 LINE",
"211 276 LINE",
"372 276 LINE",
"355 190 LINE",
"388 190 LINE",
"431 380 LINE",
"396 380 LINE",
"381 310 LINE",
"217 310 LINE",
"270 558 LINE",
"551 558 LINE",
"512 380 LINE",
"544 380 LINE",
"590 589 LINE",
"242 590 LINE",
"236 558 LINE",
"123 33 LINE",
"29 33 LINE"
);
},
{
closed = 1;
nodes = (
"266 558 CURVE",
"278 590 LINE",
"221 590 OFFCURVE",
"171 591 OFFCURVE",
"121 602 CURVE",
"107 574 LINE",
"152 563 OFFCURVE",
"186 558 OFFCURVE"
);
}
);
width = 600;
},
{
anchors = (
{
name = top;
position = "{395, 590}";
}
);
associatedMasterId = "BDF0B11D-FE68-4F4A-8590-9F0E2F87A31C";
layerId = "A7B4C8A9-1715-48CE-A289-FEBBD390ADDB";
paths = (
{
closed = 1;
nodes = (
"402 310 LINE",
"217.2 309.6 LINE",
"217.2 279.6 LINE",
"402 279.6 LINE"
);
},
{
closed = 1;
nodes = (
"288 559.2 LINE",
"588 559.2 LINE",
"550.8 380.4 LINE",
"582 380.4 LINE",
"625.2 589.2 LINE",
"136.8 590.4 LINE",
"129.6 559.2 LINE",
"256.8 559.2 LINE",
"150 30 LINE",
"24 30 LINE",
"16.8 0 LINE",
"488.4 0 LINE",
"528 210 LINE",
"495.6 213.6 LINE",
"460.8 30 LINE",
"181.2 30 LINE"
);
},
{
closed = 1;
nodes = (
"370.8 189.6 LINE",
"402 189.6 LINE",
"445.2 380.4 LINE",
"414 380.4 LINE"
);
}
);
width = 600;
},
{
anchors = (
{
name = top;
position = "{395, 590}";
}
);
associatedMasterId = "BDF0B11D-FE68-4F4A-8590-9F0E2F87A31C";
components = (
{
name = Swash;
transform = "{1, 0, 0, 1, -128, 0}";
}
);
layerId = "3198F2F8-E9DE-4DFF-A8A9-F77F7CB35507";
paths = (
{
closed = 1;
nodes = (
"426 309.6 LINE",
"241.2 309.6 LINE",
"241.2 279.6 LINE",
"426 279.6 LINE"
);
},
{
closed = 1;
nodes = (
"312 560.4 LINE",
"510 560.4 LINE SMOOTH",
"625 560 OFFCURVE",
"571 467 OFFCURVE",
"546 417.6 CURVE",
"570 400.8 LINE",
"611 476 OFFCURVE",
"658 590 OFFCURVE",
"510 590.4 CURVE SMOOTH",
"222 590.4 LINE",
"216 560.4 LINE",
"280.8 560.4 LINE",
"174 30 LINE",
"48 30 LINE",
"40.8 0 LINE",
"512.4 0 LINE",
"552 210 LINE",
"519.6 213.6 LINE",
"484.8 30 LINE",
"205.2 30 LINE"
);
},
{
closed = 1;
nodes = (
"394.8 189.6 LINE",
"426 189.6 LINE",
"469.2 380.4 LINE",
"438 380.4 LINE"
);
}
);
width = 600;
},
{
anchors = (
{
name = top;
position = "{391.2, 602.4}";
}
);
layerId = "BDF0B11D-FE68-4F4A-8590-9F0E2F87A31C";
paths = (
{
closed = 1;
nodes = (
"207.6 590.4 LINE SMOOTH",
"123 590 OFFCURVE",
"93 497 OFFCURVE",
"97.2 468 CURVE",
"127.2 468 LINE",
"123 484 OFFCURVE",
"143 560 OFFCURVE",
"207.6 560.4 CURVE SMOOTH",
"272.4 560.4 LINE",
"165.6 30 LINE",
"73.2 30 LINE",
"66 0 LINE",
"489.6 0 LINE",
"534 210 LINE",
"504 213.6 LINE",
"464.4 30 LINE",
"195.6 30 LINE",
"246 279.6 LINE",
"406.8 279.6 LINE",
"386.4 189.6 LINE",
"417.6 189.6 LINE",
"460.8 380.4 LINE",
"429.6 380.4 LINE",
"414 309.6 LINE",
"252 309.6 LINE",
"302.4 560.4 LINE",
"576 560.4 LINE",
"538.8 380.4 LINE",
"570 380.4 LINE",
"613.2 590.4 LINE"
);
}
);
width = 600;
},
{
associatedMasterId = "BDF0B11D-FE68-4F4A-8590-9F0E2F87A31C";
layerId = "CD740F51-25FF-459A-AA3D-F130AC1BD218";
paths = (
{
closed = 1;
nodes = (
"27 0 LINE",
"27 30 LINE",
"161 30 LINE",
"161 560 LINE",
"27 560 LINE",
"27 590 LINE",
"535 590 LINE",
"554 373 LINE",
"524 370 LINE",
"508 560 LINE",
"191 560 LINE",
"191 307 LINE",
"369 307 LINE",
"369 427 LINE",
"399 427 LINE",
"399 162 LINE",
"369 162 LINE",
"369 277 LINE",
"191 277 LINE",
"191 30 LINE",
"508 30 LINE",
"526 220 LINE",
"556 217 LINE",
"535 0 LINE"
);
}
);
width = 600;
}
);
leftKerningGroup = E2;
rightKerningGroup = E2;
unicode = 0045;
userData = {
com.typemytype.robofont.guides = (
{
angle = 78;
isGlobal = 0;
magnetic = 5;
x = 259;
y = 239;
},
{
angle = 78;
isGlobal = 0;
magnetic = 5;
x = 420;
y = 239;
},
{
angle = 78;
isGlobal = 0;
magnetic = 5;
x = 386;
y = 239;
},
{
angle = 0;
isGlobal = 0;
magnetic = 5;
x = 0;
y = 558;
}
);
};
},
{
glyphname = Eacute;
lastChange = "2020-04-02 10:12:31 +0000";
layers = (
{
components = (
{
name = E;
},
{
name = acute;
transform = "{1, 0, 0, 1, 32.4, 159.6}";
}
);
layerId = "BDF0B11D-FE68-4F4A-8590-9F0E2F87A31C";
width = 600;
},
{
associatedMasterId = "BDF0B11D-FE68-4F4A-8590-9F0E2F87A31C";
layerId = "503A1C46-F934-44FB-A59A-495C9A2692C7";
width = 600;
},
{
associatedMasterId = "BDF0B11D-FE68-4F4A-8590-9F0E2F87A31C";
layerId = "D665805D-61DF-42D2-80F5-880565CCB1A0";
width = 600;
},
{
associatedMasterId = "BDF0B11D-FE68-4F4A-8590-9F0E2F87A31C";
components = (
{
name = E;
},
{
name = acute;
transform = "{1, 0, 0, 1, 105.9, 147}";
}
);
layerId = "693FD62F-EB1D-4CC9-AB7C-A2E65219A9DD";
width = 600;
},
{
associatedMasterId = "BDF0B11D-FE68-4F4A-8590-9F0E2F87A31C";
layerId = "17BB2DA8-9A29-4D26-BD7D-CF339EE778CB";
width = 600;
},
{
associatedMasterId = "BDF0B11D-FE68-4F4A-8590-9F0E2F87A31C";
layerId = "04895D34-0CB5-4CA7-86DB-5D45FD031BCF";
width = 600;
},
{
associatedMasterId = "BDF0B11D-FE68-4F4A-8590-9F0E2F87A31C";
components = (
{
alignment = -1;
name = E;
},
{
alignment = -1;
name = acute;
transform = "{1, 0, 0, 1, 106, 147}";
}
);
layerId = "803E1250-7AB5-4C55-8C25-56821D2E91ED";
width = 600;
},
{
associatedMasterId = "BDF0B11D-FE68-4F4A-8590-9F0E2F87A31C";
layerId = "CD740F51-25FF-459A-AA3D-F130AC1BD218";
paths = (
{
closed = 1;
nodes = (
"157 635 LINE",
"153 655 LINE",
"462 736 LINE",
"471 698 LINE"
);
},
{
closed = 1;
nodes = (
"27 0 LINE",
"27 30 LINE",
"161 30 LINE",
"161 560 LINE",
"27 560 LINE",
"27 590 LINE",
"535 590 LINE",
"554 373 LINE",
"524 370 LINE",
"508 560 LINE",
"191 560 LINE",
"191 307 LINE",
"369 307 LINE",
"369 427 LINE",
"399 427 LINE",
"399 162 LINE",
"369 162 LINE",
"369 277 LINE",
"191 277 LINE",
"191 30 LINE",
"508 30 LINE",
"526 220 LINE",
"556 217 LINE",
"535 0 LINE"
);
}
);
width = 600;
}
);
unicode = 00C9;
},
{
glyphname = Ecircumflex;
lastChange = "2020-04-02 10:12:31 +0000";
layers = (
{
components = (
{
name = E;
},
{
name = circumflex;
transform = "{1, 0, 0, 1, 1.2, 159.6}";
}
);
layerId = "BDF0B11D-FE68-4F4A-8590-9F0E2F87A31C";
width = 600;
},
{
associatedMasterId = "BDF0B11D-FE68-4F4A-8590-9F0E2F87A31C";
layerId = "503A1C46-F934-44FB-A59A-495C9A2692C7";
width = 600;
},
{
associatedMasterId = "BDF0B11D-FE68-4F4A-8590-9F0E2F87A31C";
layerId = "D665805D-61DF-42D2-80F5-880565CCB1A0";
width = 600;
},
{
associatedMasterId = "BDF0B11D-FE68-4F4A-8590-9F0E2F87A31C";
components = (
{
name = E;
},
{
name = circumflex;
transform = "{1, 0, 0, 1, 45.9, 147}";
}
);
layerId = "693FD62F-EB1D-4CC9-AB7C-A2E65219A9DD";
width = 600;
},
{
associatedMasterId = "BDF0B11D-FE68-4F4A-8590-9F0E2F87A31C";
layerId = "B171BC71-2051-44C9-90BD-0B5079D77C64";
width = 600;
},
{
associatedMasterId = "BDF0B11D-FE68-4F4A-8590-9F0E2F87A31C";
layerId = "7B77605C-0AAE-4559-97F0-222205117FFC";
width = 600;
},
{
associatedMasterId = "BDF0B11D-FE68-4F4A-8590-9F0E2F87A31C";
components = (
{
alignment = -1;
name = E;
},
{
alignment = -1;
name = circumflex;
transform = "{1, 0, 0, 1, 46, 147}";
}
);
layerId = "5A029585-16F3-4CE9-ADFE-92CDCAEC8448";
width = 600;
},
{
associatedMasterId = "BDF0B11D-FE68-4F4A-8590-9F0E2F87A31C";
layerId = "CD740F51-25FF-459A-AA3D-F130AC1BD218";
paths = (
{
closed = 1;
nodes = (
"113 641 LINE",
"318 747 LINE",
"524 641 LINE",
"518 628 LINE",
"318 711 LINE",
"118 628 LINE"
);
},
{
closed = 1;
nodes = (
"27 0 LINE",
"27 30 LINE",
"161 30 LINE",
"161 560 LINE",
"27 560 LINE",
"27 590 LINE",
"535 590 LINE",
"554 373 LINE",
"524 370 LINE",
"508 560 LINE",
"191 560 LINE",
"191 307 LINE",
"369 307 LINE",
"369 427 LINE",
"399 427 LINE",
"399 162 LINE",
"369 162 LINE",
"369 277 LINE",
"191 277 LINE",
"191 30 LINE",
"508 30 LINE",
"526 220 LINE",
"556 217 LINE",
"535 0 LINE"
);
}
);
width = 600;
}
);
unicode = 00CA;
},
{
glyphname = Edieresis;
lastChange = "2018-06-03 19:07:56 +0000";
layers = (
{
components = (
{
name = E;
},
{
name = dieresis;
transform = "{1, 0, 0, 1, 31.2, 159.6}";
}
);
layerId = "BDF0B11D-FE68-4F4A-8590-9F0E2F87A31C";
width = 600;
},
{
associatedMasterId = "BDF0B11D-FE68-4F4A-8590-9F0E2F87A31C";
layerId = "503A1C46-F934-44FB-A59A-495C9A2692C7";
width = 600;
},
{
associatedMasterId = "BDF0B11D-FE68-4F4A-8590-9F0E2F87A31C";
layerId = "D665805D-61DF-42D2-80F5-880565CCB1A0";
width = 600;
},
{
associatedMasterId = "BDF0B11D-FE68-4F4A-8590-9F0E2F87A31C";
components = (
{
name = E;
}
);
layerId = "693FD62F-EB1D-4CC9-AB7C-A2E65219A9DD";
paths = (
{
closed = 1;
nodes = (
"290 707 CURVE SMOOTH",
"290 684 OFFCURVE",
"311 664 OFFCURVE",
"334 664 CURVE SMOOTH",
"358 664 OFFCURVE",
"377 684 OFFCURVE",
"377 707 CURVE SMOOTH",
"377 730 OFFCURVE",
"358 750 OFFCURVE",
"334 750 CURVE SMOOTH",
"311 750 OFFCURVE",
"290 730 OFFCURVE"
);
}
);
width = 600;
},
{
associatedMasterId = "BDF0B11D-FE68-4F4A-8590-9F0E2F87A31C";
layerId = "D8EA44CE-44D8-4CEB-95F6-B27D6358DF2A";
width = 600;
},
{
associatedMasterId = "BDF0B11D-FE68-4F4A-8590-9F0E2F87A31C";
layerId = "D85A8D91-7B36-49BD-A83A-F396A616387B";
width = 600;
},
{
associatedMasterId = "BDF0B11D-FE68-4F4A-8590-9F0E2F87A31C";
components = (
{
name = E;
}
);
layerId = "CA03E645-B51F-41A0-BB74-FFEB4BED575B";
paths = (
{
closed = 1;
nodes = (
"290 707 CURVE SMOOTH",
"290 684 OFFCURVE",
"311 664 OFFCURVE",
"334 664 CURVE SMOOTH",
"358 664 OFFCURVE",
"377 684 OFFCURVE",
"377 707 CURVE SMOOTH",
"377 730 OFFCURVE",
"358 750 OFFCURVE",
"334 750 CURVE SMOOTH",
"311 750 OFFCURVE",
"290 730 OFFCURVE"
);
}
);
width = 600;
},
{
associatedMasterId = "BDF0B11D-FE68-4F4A-8590-9F0E2F87A31C";
layerId = "CD740F51-25FF-459A-AA3D-F130AC1BD218";
paths = (
{
closed = 1;
nodes = (
"240 641 OFFCURVE",
"255 656 OFFCURVE",
"255 675 CURVE SMOOTH",
"255 694 OFFCURVE",
"240 709 OFFCURVE",
"222 709 CURVE SMOOTH",
"203 709 OFFCURVE",
"188 694 OFFCURVE",
"188 675 CURVE SMOOTH",
"188 656 OFFCURVE",
"203 641 OFFCURVE",
"222 641 CURVE SMOOTH"
);
},
{
closed = 1;
nodes = (
"421 641 OFFCURVE",
"436 656 OFFCURVE",
"436 675 CURVE SMOOTH",
"436 694 OFFCURVE",
"421 709 OFFCURVE",
"403 709 CURVE SMOOTH",
"384 709 OFFCURVE",
"369 694 OFFCURVE",
"369 675 CURVE SMOOTH",
"369 656 OFFCURVE",
"384 641 OFFCURVE",
"403 641 CURVE SMOOTH"
);
},
{
closed = 1;
nodes = (
"27 0 LINE",
"27 30 LINE",
"161 30 LINE",
"161 560 LINE",
"27 560 LINE",
"27 590 LINE",
"535 590 LINE",
"554 373 LINE",
"524 370 LINE",
"508 560 LINE",
"191 560 LINE",
"191 307 LINE",
"369 307 LINE",
"369 427 LINE",
"399 427 LINE",
"399 162 LINE",
"369 162 LINE",
"369 277 LINE",
"191 277 LINE",
"191 30 LINE",
"508 30 LINE",
"526 220 LINE",
"556 217 LINE",
"535 0 LINE"
);
}
);
width = 600;
}
);
leftKerningGroup = E2;
rightKerningGroup = E2;
unicode = 00CB;
},
{
glyphname = Egrave;
lastChange = "2020-04-02 10:12:31 +0000";
layers = (
{
components = (
{
name = E;
},
{
name = grave;
transform = "{1, 0, 0, 1, 78, 159.6}";
}
);
layerId = "BDF0B11D-FE68-4F4A-8590-9F0E2F87A31C";
width = 600;
},
{
associatedMasterId = "BDF0B11D-FE68-4F4A-8590-9F0E2F87A31C";
layerId = "503A1C46-F934-44FB-A59A-495C9A2692C7";
width = 600;
},
{
associatedMasterId = "BDF0B11D-FE68-4F4A-8590-9F0E2F87A31C";
layerId = "D665805D-61DF-42D2-80F5-880565CCB1A0";
width = 600;
},
{
associatedMasterId = "BDF0B11D-FE68-4F4A-8590-9F0E2F87A31C";
components = (
{
name = E;
},
{
name = grave;
transform = "{1, 0, 0, 1, 57.9, 147}";
}
);
layerId = "693FD62F-EB1D-4CC9-AB7C-A2E65219A9DD";
width = 600;
},
{
associatedMasterId = "BDF0B11D-FE68-4F4A-8590-9F0E2F87A31C";
layerId = "BE7A4342-21F6-4A1D-B20D-80AF02C1DE3B";
width = 600;
},
{
associatedMasterId = "BDF0B11D-FE68-4F4A-8590-9F0E2F87A31C";
layerId = "3B1314E2-3963-416B-8B5B-1B0EE5E02836";
width = 600;
},
{
associatedMasterId = "BDF0B11D-FE68-4F4A-8590-9F0E2F87A31C";
components = (
{
alignment = -1;
name = E;
},
{
alignment = -1;
name = grave;
transform = "{1, 0, 0, 1, 58, 147}";
}
);
layerId = "E3588B87-73E0-4FE6-BA3E-9505F64B3666";
width = 600;
},
{
associatedMasterId = "BDF0B11D-FE68-4F4A-8590-9F0E2F87A31C";
layerId = "CD740F51-25FF-459A-AA3D-F130AC1BD218";
paths = (
{
closed = 1;
nodes = (
"162 736 LINE",
"471 655 LINE",
"467 635 LINE",
"153 698 LINE"
);
},
{
closed = 1;
nodes = (
"27 0 LINE",
"27 30 LINE",
"161 30 LINE",
"161 560 LINE",
"27 560 LINE",
"27 590 LINE",
"535 590 LINE",
"554 373 LINE",
"524 370 LINE",
"508 560 LINE",
"191 560 LINE",
"191 307 LINE",
"369 307 LINE",
"369 427 LINE",
"399 427 LINE",
"399 162 LINE",
"369 162 LINE",
"369 277 LINE",
"191 277 LINE",
"191 30 LINE",
"508 30 LINE",
"526 220 LINE",
"556 217 LINE",
"535 0 LINE"
);
}
);
width = 600;
}
);
leftKerningGroup = E2;
rightKerningGroup = E2;
unicode = 00C8;
},
{
glyphname = F;
lastChange = "2018-06-03 19:07:56 +0000";
layers = (
{
associatedMasterId = "BDF0B11D-FE68-4F4A-8590-9F0E2F87A31C";
layerId = "503A1C46-F934-44FB-A59A-495C9A2692C7";
width = 600;
},
{
associatedMasterId = "BDF0B11D-FE68-4F4A-8590-9F0E2F87A31C";
layerId = "D665805D-61DF-42D2-80F5-880565CCB1A0";
width = 600;
},
{
associatedMasterId = "BDF0B11D-FE68-4F4A-8590-9F0E2F87A31C";
layerId = "693FD62F-EB1D-4CC9-AB7C-A2E65219A9DD";
paths = (
{
closed = 1;
nodes = (
"20 0 LINE",
"315 0 LINE",
"315 33 LINE",
"179 33 LINE",
"232 276 LINE",
"393 276 LINE",
"376 190 LINE",
"409 190 LINE",
"452 380 LINE",
"417 380 LINE",
"402 310 LINE",
"238 310 LINE",
"291 558 LINE",
"572 558 LINE",
"533 380 LINE",
"565 380 LINE",
"611 589 LINE",
"133 590 LINE",
"133 557 LINE",
"257 558 LINE",
"144 33 LINE",
"20 33 LINE"
);
}
);
width = 600;
},
{
associatedMasterId = "BDF0B11D-FE68-4F4A-8590-9F0E2F87A31C";
layerId = "24280339-986A-4CF4-B15D-3759C6FC5026";
width = 600;
},
{
associatedMasterId = "BDF0B11D-FE68-4F4A-8590-9F0E2F87A31C";
layerId = "95826404-9EA5-4EDB-8012-8B5830D34A32";
width = 600;
},
{
associatedMasterId = "BDF0B11D-FE68-4F4A-8590-9F0E2F87A31C";
layerId = "254CC18E-CEC3-474F-A99B-C3571E943A49";
paths = (
{
closed = 1;
nodes = (
"234 590 OFFCURVE",
"184 591 OFFCURVE",
"134 602 CURVE",
"120 574 LINE",
"159 564 OFFCURVE",
"190 559 OFFCURVE",
"250 558 CURVE",
"137 33 LINE",
"13 33 LINE",
"13 0 LINE",
"308 0 LINE",
"308 33 LINE",
"172 33 LINE",
"225 276 LINE",
"386 276 LINE",
"369 190 LINE",
"402 190 LINE",
"445 380 LINE",
"410 380 LINE",
"395 310 LINE",
"231 310 LINE",
"284 558 LINE",
"565 558 LINE",
"526 380 LINE",
"558 380 LINE",
"604 589 LINE",
"291 590 LINE SMOOTH"
);
}
);
width = 600;
},
{
layerId = "BDF0B11D-FE68-4F4A-8590-9F0E2F87A31C";
paths = (
{
closed = 1;
nodes = (
"194.4 590.4 LINE SMOOTH",
"112 590 OFFCURVE",
"81.6 496.8 OFFCURVE",
"84 468 CURVE",
"114 468 LINE",
"111.6 483.6 OFFCURVE",
"132 560.4 OFFCURVE",
"194.4 560.4 CURVE SMOOTH",
"259.2 560.4 LINE",
"152.4 30 LINE",
"7.2 30 LINE",
"0 0 LINE",
"318 0 LINE",
"331.2 30 LINE",
"182.4 30 LINE",
"232.8 279.6 LINE",
"393.6 279.6 LINE",
"373.2 189.6 LINE",
"404.4 189.6 LINE",
"447.6 380.4 LINE",
"416.4 380.4 LINE",
"400.8 309.6 LINE",
"238.8 309.6 LINE",
"289.2 560.4 LINE",
"565.2 560.4 LINE",
"528 380.4 LINE",
"559.2 380.4 LINE",
"602.4 590.4 LINE"
);
}
);
width = 600;
},
{
associatedMasterId = "BDF0B11D-FE68-4F4A-8590-9F0E2F87A31C";
layerId = "DB41039E-CF4E-4A4C-A20B-8CE34A758296";
paths = (
{
closed = 1;
nodes = (
"20.4 0 LINE",
"315.6 0 LINE",
"315.6 33.6 LINE",
"178.8 33.6 LINE",
"231.6 276 LINE",
"393.6 276 LINE",
"375.6 189.6 LINE",
"409.2 189.6 LINE",
"452.4 380.4 LINE",
"417.6 380.4 LINE",
"402 309.6 LINE",
"237.6 309.6 LINE",
"291.6 558 LINE",
"572.4 558 LINE",
"532.8 380.4 LINE",
"565.2 380.4 LINE",
"610.8 589.2 LINE",
"133.2 590.4 LINE",
"133.2 556.8 LINE",
"256.8 558 LINE",
"144 33.6 LINE",
"20.4 33.6 LINE"
);
}
);
width = 600;
},
{
associatedMasterId = "BDF0B11D-FE68-4F4A-8590-9F0E2F87A31C";
layerId = "7BACFF20-5F61-469A-9382-4AA43F6C799B";
paths = (
{
closed = 1;
nodes = (
"402 310 LINE",
"217.2 309.6 LINE",
"217.2 279.6 LINE",
"402 279.6 LINE"
);
},
{
closed = 1;
nodes = (
"288 559.2 LINE",
"588 559.2 LINE",
"550.8 391.2 LINE",
"582 391.2 LINE",
"625.2 589.2 LINE",
"136.8 590.4 LINE",
"129.6 559.2 LINE",
"256.8 559.2 LINE",
"150 30 LINE",
"24 30 LINE",
"16.8 0 LINE",
"312 0 LINE",
"319.2 30 LINE",
"181.2 30 LINE"
);
},
{
closed = 1;
nodes = (
"370.8 189.6 LINE",
"402 189.6 LINE",
"445.2 380.4 LINE",
"414 380.4 LINE"
);
}
);
width = 600;
},
{
associatedMasterId = "BDF0B11D-FE68-4F4A-8590-9F0E2F87A31C";
layerId = "CD740F51-25FF-459A-AA3D-F130AC1BD218";
paths = (
{
closed = 1;
nodes = (
"23 0 LINE",
"23 31 LINE",
"155 31 LINE",
"155 560 LINE",
"23 560 LINE",
"23 590 LINE",
"532 590 LINE",
"556 303 LINE",
"526 300 LINE",
"504 560 LINE",
"185 560 LINE",
"185 307 LINE",
"364 307 LINE",
"364 430 LINE",
"394 430 LINE",
"394 165 LINE",
"364 165 LINE",
"364 277 LINE",
"185 277 LINE",
"185 31 LINE",
"319 31 LINE",
"319 0 LINE"
);
}
);
width = 600;
}
);
leftKerningGroup = E2;
unicode = 0046;
},
{
glyphname = G;
lastChange = "2018-06-03 19:07:56 +0000";
layers = (
{
associatedMasterId = "BDF0B11D-FE68-4F4A-8590-9F0E2F87A31C";
layerId = "503A1C46-F934-44FB-A59A-495C9A2692C7";
width = 600;
},
{
associatedMasterId = "BDF0B11D-FE68-4F4A-8590-9F0E2F87A31C";
layerId = "D665805D-61DF-42D2-80F5-880565CCB1A0";
width = 600;
},
{
associatedMasterId = "BDF0B11D-FE68-4F4A-8590-9F0E2F87A31C";
layerId = "693FD62F-EB1D-4CC9-AB7C-A2E65219A9DD";
paths = (
{
closed = 1;
nodes = (
"401 -2 LINE",
"434 -2 LINE",
"501 235 LINE",
"568 235 LINE",
"569 264 LINE",
"385 264 LINE",
"384 235 LINE",
"470 235 LINE",
"432 115 OFFCURVE",
"349 25 OFFCURVE",
"242 25 CURVE SMOOTH",
"119 25 OFFCURVE",
"87 142 OFFCURVE",
"118 289 CURVE",
"143 419 OFFCURVE",
"254 558 OFFCURVE",
"388 558 CURVE SMOOTH",
"484 558 OFFCURVE",
"523 496 OFFCURVE",
"499 409 CURVE",
"529 402 LINE",
"575 572 LINE",
"545 578 LINE",
"527 515 LINE",
"502 570 OFFCURVE",
"453 589 OFFCURVE",
"389 589 CURVE SMOOTH",
"238 589 OFFCURVE",
"119 447 OFFCURVE",
"86 295 CURVE SMOOTH",
"52 135 OFFCURVE",
"91 -6 OFFCURVE",
"242 -6 CURVE SMOOTH",
"312 -6 OFFCURVE",
"397 47 OFFCURVE",
"434 104 CURVE"
);
}
);
width = 600;
},
{
associatedMasterId = "BDF0B11D-FE68-4F4A-8590-9F0E2F87A31C";
layerId = "BA4390D6-0912-4CD0-AFFE-D16398B341D2";
width = 600;
},
{
associatedMasterId = "BDF0B11D-FE68-4F4A-8590-9F0E2F87A31C";
layerId = "C55DFB75-7D96-46BB-935A-6772F2291392";
width = 600;
},
{
associatedMasterId = "BDF0B11D-FE68-4F4A-8590-9F0E2F87A31C";
layerId = "777F99A2-5003-4C1B-890A-11464C9EB17D";
paths = (
{
closed = 1;
nodes = (
"401 -2 LINE",
"434 -2 LINE",
"501 235 LINE",
"568 235 LINE",
"569 264 LINE",
"385 264 LINE",
"384 235 LINE",
"470 235 LINE",
"432 115 OFFCURVE",
"349 25 OFFCURVE",
"242 25 CURVE SMOOTH",
"119 25 OFFCURVE",
"87 142 OFFCURVE",
"118 289 CURVE",
"143 419 OFFCURVE",
"254 558 OFFCURVE",
"388 558 CURVE SMOOTH",
"484 558 OFFCURVE",
"523 496 OFFCURVE",
"499 409 CURVE",
"529 402 LINE",
"575 572 LINE",
"545 578 LINE",
"527 515 LINE",
"502 570 OFFCURVE",
"453 589 OFFCURVE",
"389 589 CURVE SMOOTH",
"238 589 OFFCURVE",
"119 447 OFFCURVE",
"86 295 CURVE SMOOTH",
"52 135 OFFCURVE",
"91 -6 OFFCURVE",
"242 -6 CURVE SMOOTH",
"312 -6 OFFCURVE",
"397 47 OFFCURVE",
"434 104 CURVE"
);
}
);
width = 600;
},
{
associatedMasterId = "BDF0B11D-FE68-4F4A-8590-9F0E2F87A31C";
layerId = "B5168E6F-6CE0-4D0E-A00A-12823B409135";
paths = (
{
closed = 1;
nodes = (
"370.8 -9.6 LINE",
"404.4 -9.6 LINE",
"471.6 228 LINE",
"537.6 228 LINE",
"538.8 256.8 LINE",
"355.2 256.8 LINE",
"354 228 LINE",
"440.4 228 LINE",
"402 109 OFFCURVE",
"319 19 OFFCURVE",
"212.4 18 CURVE SMOOTH",
"89 17 OFFCURVE",
"57 136 OFFCURVE",
"87.6 282 CURVE",
"113 413 OFFCURVE",
"224 563 OFFCURVE",
"357.6 562.8 CURVE SMOOTH",
"454 563 OFFCURVE",
"493 490 OFFCURVE",
"469.2 402 CURVE",
"499.2 394.8 LINE",
"544.8 565.2 LINE",
"514.8 571.2 LINE",
"496.8 507.6 LINE",
"472 564 OFFCURVE",
"423 595 OFFCURVE",
"358.8 594 CURVE SMOOTH",
"208 592 OFFCURVE",
"89 441 OFFCURVE",
"56.4 288 CURVE SMOOTH",
"22 129 OFFCURVE",
"61 -16 OFFCURVE",
"212.4 -13.2 CURVE SMOOTH",
"282 -12 OFFCURVE",
"367 41 OFFCURVE",
"404.4 97.2 CURVE"
);
}
);
width = 600;
},
{
anchors = (
{
name = top;
position = "{348, 602.4}";
}
);
associatedMasterId = "BDF0B11D-FE68-4F4A-8590-9F0E2F87A31C";
layerId = "90186EC2-1FB7-4493-BEF8-94050A246C3C";
paths = (
{
closed = 1;
nodes = (
"410.4 0 LINE",
"441.6 0 LINE",
"483.6 228 LINE",
"543.6 228 LINE",
"552 258 LINE",
"368.4 258 LINE",
"360 228 LINE",
"450 228 LINE",
"418 126 OFFCURVE",
"332 19 OFFCURVE",
"237.6 18 CURVE SMOOTH",
"127 17 OFFCURVE",
"68 133 OFFCURVE",
"94.8 279.6 CURVE SMOOTH",
"122 426 OFFCURVE",
"234 572 OFFCURVE",
"367.2 572.4 CURVE SMOOTH",
"464 573 OFFCURVE",
"503 512 OFFCURVE",
"478.8 423.6 CURVE",
"508.8 416.4 LINE",
"537.6 523.2 LINE",
"507.6 529.2 LINE",
"506.4 529.2 LINE",
"482 586 OFFCURVE",
"433 605 OFFCURVE",
"368.4 603.6 CURVE SMOOTH",
"218 600 OFFCURVE",
"103 457 OFFCURVE",
"66 288 CURVE SMOOTH",
"31 129 OFFCURVE",
"103 -16 OFFCURVE",
"237.6 -13.2 CURVE SMOOTH",
"307 -12 OFFCURVE",
"389 42 OFFCURVE",
"435.6 129.6 CURVE"
);
}
);
width = 600;
},
{
anchors = (
{
name = top;
position = "{357.6, 602.4}";
}
);
layerId = "BDF0B11D-FE68-4F4A-8590-9F0E2F87A31C";
paths = (
{
closed = 1;
nodes = (
"433.2 117.6 LINE",
"383 62 OFFCURVE",
"302 17 OFFCURVE",
"252 16.8 CURVE SMOOTH",
"134 16 OFFCURVE",
"62 93 OFFCURVE",
"61.2 206.4 CURVE SMOOTH",
"60 386 OFFCURVE",
"220 573 OFFCURVE",
"380.4 572.4 CURVE SMOOTH",
"488 572 OFFCURVE",
"516 533 OFFCURVE",
"518.4 469.2 CURVE",
"515 477 OFFCURVE",
"500 484 OFFCURVE",
"480 484.8 CURVE SMOOTH",
"453 486 OFFCURVE",
"432 463 OFFCURVE",
"432 433.2 CURVE SMOOTH",
"432 407 OFFCURVE",
"458 384 OFFCURVE",
"481.2 385.2 CURVE SMOOTH",
"522 387 OFFCURVE",
"551 413 OFFCURVE",
"549.6 465.6 CURVE SMOOTH",
"549 563 OFFCURVE",
"480 602 OFFCURVE",
"378 602.4 CURVE SMOOTH",
"203 603 OFFCURVE",
"33 406 OFFCURVE",
"32.4 207.6 CURVE SMOOTH",
"32 75 OFFCURVE",
"119 -13 OFFCURVE",
"249.6 -13.2 CURVE SMOOTH",
"320 -13 OFFCURVE",
"408 45 OFFCURVE",
"423.6 73.2 CURVE"
);
},
{
closed = 1;
nodes = (
"405.6 0 LINE",
"436.8 0 LINE",
"489.6 235.2 LINE",
"568.8 235.2 LINE",
"577.2 265.2 LINE",
"375.6 265.2 LINE",
"367.2 235.2 LINE",
"458.4 235.2 LINE"
);
}
);
width = 600;
},
{
anchors = (
{
name = top;
position = "{357.6, 602.4}";
}
);
associatedMasterId = "BDF0B11D-FE68-4F4A-8590-9F0E2F87A31C";
layerId = "B5BC8267-7187-43E6-8FD8-0F9DD2D327EC";
paths = (
{
closed = 1;
nodes = (
"399.6 0 LINE",
"430.8 0 LINE",
"481.2 284.4 LINE",
"561.6 284.4 LINE",
"570 314.4 LINE",
"368.4 314.4 LINE",
"360 284.4 LINE",
"451.2 284.4 LINE",
"430.8 177.6 LINE",
"411 139 OFFCURVE",
"314 18 OFFCURVE",
"228 16.8 CURVE SMOOTH",
"117 16 OFFCURVE",
"57 130 OFFCURVE",
"85.2 279.6 CURVE SMOOTH",
"112 426 OFFCURVE",
"224 572 OFFCURVE",
"357.6 572.4 CURVE SMOOTH",
"454 573 OFFCURVE",
"493 512 OFFCURVE",
"469.2 423.6 CURVE",
"499.2 423.6 LINE",
"546 589.2 LINE",
"514.8 589.2 LINE",
"496.8 529.2 LINE",
"472 586 OFFCURVE",
"423 604 OFFCURVE",
"358.8 602.4 CURVE SMOOTH",
"208 599 OFFCURVE",
"93 457 OFFCURVE",
"56.4 288 CURVE SMOOTH",
"22 129 OFFCURVE",
"93 -16 OFFCURVE",
"228 -13.2 CURVE SMOOTH",
"297 -12 OFFCURVE",
"386 56 OFFCURVE",
"422.4 126 CURVE"
);
}
);
width = 600;
},
{
associatedMasterId = "BDF0B11D-FE68-4F4A-8590-9F0E2F87A31C";
layerId = "CD740F51-25FF-459A-AA3D-F130AC1BD218";
paths = (
{
closed = 1;
nodes = (
"465 533 OFFCURVE",
"380 573 OFFCURVE",
"286 573 CURVE SMOOTH",
"145 573 OFFCURVE",
"59 454 OFFCURVE",
"59 288 CURVE SMOOTH",
"59 130 OFFCURVE",
"139 17 OFFCURVE",
"283 17 CURVE SMOOTH",
"373 17 OFFCURVE",
"479 114 OFFCURVE",
"479 206 CURVE SMOOTH",
"479 235 LINE",
"290 235 LINE",
"290 265 LINE",
"582 265 LINE",
"582 235 LINE",
"509 235 LINE",
"509 0 LINE",
"479 0 LINE",
"479 116 LINE",
"441 46 OFFCURVE",
"365 -13 OFFCURVE",
"283 -13 CURVE SMOOTH",
"120 -13 OFFCURVE",
"29 117 OFFCURVE",
"29 288 CURVE SMOOTH",
"29 465 OFFCURVE",
"123 603 OFFCURVE",
"286 603 CURVE SMOOTH",
"420 603 OFFCURVE",
"505 536 OFFCURVE",
"505 439 CURVE SMOOTH",
"505 398 OFFCURVE",
"482 367 OFFCURVE",
"448 367 CURVE SMOOTH",
"410 367 OFFCURVE",
"388 392 OFFCURVE",
"388 424 CURVE SMOOTH",
"388 473 OFFCURVE",
"451 488 OFFCURVE",
"474 455 CURVE"
);
}
);
width = 600;
}
);
leftKerningGroup = G2;
rightKerningGroup = G2;
unicode = 0047;
},
{
glyphname = H;
lastChange = "2018-06-03 19:07:56 +0000";
layers = (
{
layerId = "BDF0B11D-FE68-4F4A-8590-9F0E2F87A31C";
paths = (
{
closed = 1;
nodes = (
"554.4 560.4 LINE",
"643.2 560.4 LINE",
"649.2 590.4 LINE",
"439.2 590.4 LINE",
"433.2 560.4 LINE",
"524.4 560.4 LINE",
"417.6 30 LINE",
"326.4 30 LINE",
"320.4 0 LINE",
"532.8 0 LINE",
"538.8 30 LINE",
"447.6 30 LINE"
);
},
{
closed = 1;
nodes = (
"160.8 279.6 LINE",
"474 279.6 LINE",
"480 309.6 LINE",
"166.8 309.6 LINE"
);
},
{
closed = 1;
nodes = (
"218.4 560.4 LINE",
"307.2 560.4 LINE",
"313.2 590.4 LINE",
"103.2 590.4 LINE",
"97.2 560.4 LINE",
"188.4 560.4 LINE",
"81.6 30 LINE",
"-9.6 30 LINE",
"-15.6 0 LINE",
"196.8 0 LINE",
"202.8 30 LINE",
"111.6 30 LINE"
);
}
);
width = 600;
},
{
associatedMasterId = "BDF0B11D-FE68-4F4A-8590-9F0E2F87A31C";
layerId = "503A1C46-F934-44FB-A59A-495C9A2692C7";
width = 600;
},
{
associatedMasterId = "BDF0B11D-FE68-4F4A-8590-9F0E2F87A31C";
layerId = "D665805D-61DF-42D2-80F5-880565CCB1A0";
width = 600;
},
{
associatedMasterId = "BDF0B11D-FE68-4F4A-8590-9F0E2F87A31C";
layerId = "693FD62F-EB1D-4CC9-AB7C-A2E65219A9DD";
paths = (
{
closed = 1;
nodes = (
"-20 35 LINE",
"-20 0 LINE",
"199 0 LINE",
"199 35 LINE",
"107 35 LINE",
"157 281 LINE",
"464 281 LINE",
"414 35 LINE",
"322 35 LINE",
"322 0 LINE",
"540 0 LINE",
"540 35 LINE",
"448 35 LINE",
"557 555 LINE",
"649 555 LINE",
"649 588 LINE",
"431 588 LINE",
"431 555 LINE",
"523 555 LINE",
"471 315 LINE",
"164 315 LINE",
"216 555 LINE",
"308 555 LINE",
"308 588 LINE",
"89 588 LINE",
"89 555 LINE",
"182 555 LINE",
"73 35 LINE"
);
}
);
width = 600;
},
{
associatedMasterId = "BDF0B11D-FE68-4F4A-8590-9F0E2F87A31C";
layerId = "A76F6D61-C161-4DEE-96C8-F2B51266DD6F";
width = 600;
},
{
associatedMasterId = "BDF0B11D-FE68-4F4A-8590-9F0E2F87A31C";
layerId = "BC8B2C0E-8BB9-4040-BEDA-28ACAB651B57";
width = 600;
},
{
associatedMasterId = "BDF0B11D-FE68-4F4A-8590-9F0E2F87A31C";
layerId = "D1AD70EC-5232-499C-AB08-201640BC1357";
paths = (
{
closed = 1;
nodes = (
"-20 35 LINE",
"-20 0 LINE",
"199 0 LINE",
"199 35 LINE",
"107 35 LINE",
"157 281 LINE",
"464 281 LINE",
"414 35 LINE",
"322 35 LINE",
"322 0 LINE",
"540 0 LINE",
"540 35 LINE",
"448 35 LINE",
"557 555 LINE",
"649 555 LINE",
"649 588 LINE",
"431 588 LINE",
"431 555 LINE",
"523 555 LINE",
"471 315 LINE",
"164 315 LINE",
"216 555 LINE",
"308 555 LINE",
"308 588 LINE",
"89 588 LINE",
"89 555 LINE",
"182 555 LINE",
"73 35 LINE"
);
}
);
width = 600;
},
{
associatedMasterId = "BDF0B11D-FE68-4F4A-8590-9F0E2F87A31C";
layerId = "5AEDEDD7-5EE0-42F3-BC5F-6912A4A48212";
paths = (
{
closed = 1;
nodes = (
"30 30 LINE",
"30 0 LINE",
"246 0 LINE",
"246 30 LINE",
"150 30 LINE",
"150 288 LINE",
"450 288 LINE",
"450 30 LINE",
"360 30 LINE",
"360 0 LINE",
"578.4 0 LINE",
"578.4 30 LINE",
"480 30 LINE",
"480 560.4 LINE",
"570 560.4 LINE",
"570 590.4 LINE",
"360 590.4 LINE",
"358.8 560.4 LINE",
"450 560.4 LINE",
"450 318 LINE",
"150 318 LINE",
"154.8 559.2 LINE",
"240 559.2 LINE",
"240 589.2 LINE",
"30 589.2 LINE",
"30 559.2 LINE",
"120 559.2 LINE",
"120 30 LINE"
);
}
);
width = 600;
},
{
associatedMasterId = "BDF0B11D-FE68-4F4A-8590-9F0E2F87A31C";
layerId = "CD740F51-25FF-459A-AA3D-F130AC1BD218";
paths = (
{
closed = 1;
nodes = (
"246 0 LINE",
"12 0 LINE",
"12 30 LINE",
"109 30 LINE",
"109 560 LINE",
"12 560 LINE",
"12 590 LINE",
"246 590 LINE",
"246 560 LINE",
"139 560 LINE",
"139 318 LINE",
"461 318 LINE",
"461 560 LINE",
"354 560 LINE",
"354 590 LINE",
"588 590 LINE",
"588 560 LINE",
"491 560 LINE",
"491 30 LINE",
"588 30 LINE",
"588 0 LINE",
"354 0 LINE",
"354 30 LINE",
"461 30 LINE",
"461 288 LINE",
"139 288 LINE",
"139 30 LINE",
"246 30 LINE"
);
}
);
width = 600;
}
);
unicode = 0048;
},
{
glyphname = I;
lastChange = "2018-06-03 19:07:56 +0000";
layers = (
{
associatedMasterId = "BDF0B11D-FE68-4F4A-8590-9F0E2F87A31C";
layerId = "503A1C46-F934-44FB-A59A-495C9A2692C7";
width = 600;
},
{
associatedMasterId = "BDF0B11D-FE68-4F4A-8590-9F0E2F87A31C";
layerId = "D665805D-61DF-42D2-80F5-880565CCB1A0";
width = 600;
},
{
associatedMasterId = "BDF0B11D-FE68-4F4A-8590-9F0E2F87A31C";
layerId = "693FD62F-EB1D-4CC9-AB7C-A2E65219A9DD";
paths = (
{
closed = 1;
nodes = (
"59 0 LINE",
"463 0 LINE",
"463 33 LINE",
"279 33 LINE",
"391 557 LINE",
"575 557 LINE",
"575 590 LINE",
"171 590 LINE",
"171 557 LINE",
"358 557 LINE",
"246 33 LINE",
"59 33 LINE"
);
}
);
width = 600;
},
{
associatedMasterId = "BDF0B11D-FE68-4F4A-8590-9F0E2F87A31C";
layerId = "1A79AE4E-C079-4597-B1FC-1DBB36D216AC";
width = 600;
},
{
associatedMasterId = "BDF0B11D-FE68-4F4A-8590-9F0E2F87A31C";
layerId = "F2AA4B2F-00C7-4141-921D-A43BA7B430BB";
width = 600;
},
{
anchors = (
{
name = top;
position = "{367.2, 592.8}";
}
);
associatedMasterId = "BDF0B11D-FE68-4F4A-8590-9F0E2F87A31C";
components = (
{
name = Swash;
transform = "{1, 0, 0, 1, -174, -1}";
}
);
layerId = "FFC3D32E-13BB-4A94-AC6F-AE88B0F1102A";
paths = (
{
closed = 1;
nodes = (
"261.6 28.8 LINE",
"147.6 28.8 LINE",
"140.4 -1.2 LINE",
"356.4 -1.2 LINE",
"363.6 28.8 LINE",
"291.6 28.8 LINE",
"404.4 559.2 LINE",
"639.6 559.2 LINE",
"645.6 589.2 LINE",
"206.4 589.2 LINE",
"199.2 559.2 LINE",
"374.4 559.2 LINE"
);
}
);
width = 600;
},
{
anchors = (
{
name = top;
position = "{380.4, 602.4}";
}
);
layerId = "BDF0B11D-FE68-4F4A-8590-9F0E2F87A31C";
paths = (
{
closed = 1;
nodes = (
"388.8 560.4 LINE",
"570 560.4 LINE",
"576 590.4 LINE",
"154.8 590.4 LINE",
"148.8 560.4 LINE",
"358.8 560.4 LINE",
"252 30 LINE",
"70.8 30 LINE",
"64.8 0 LINE",
"458.4 0 LINE",
"464.4 30 LINE",
"282 30 LINE"
);
}
);
width = 600;
},
{
associatedMasterId = "BDF0B11D-FE68-4F4A-8590-9F0E2F87A31C";
layerId = "CD740F51-25FF-459A-AA3D-F130AC1BD218";
paths = (
{
closed = 1;
nodes = (
"502 560 LINE",
"315 560 LINE",
"315 30 LINE",
"502 30 LINE",
"502 0 LINE",
"98 0 LINE",
"98 30 LINE",
"285 30 LINE",
"285 560 LINE",
"98 560 LINE",
"98 590 LINE",
"502 590 LINE"
);
}
);
width = 600;
}
);
leftKerningGroup = I2;
rightKerningGroup = I2;
unicode = 0049;
},
{
glyphname = Iacute;
lastChange = "2018-06-03 19:07:56 +0000";
layers = (
{
components = (
{
name = I;
},
{
name = acute;
transform = "{1, 0, 0, 1, 21.6, 159.6}";
}
);
layerId = "BDF0B11D-FE68-4F4A-8590-9F0E2F87A31C";
width = 600;
},
{
associatedMasterId = "BDF0B11D-FE68-4F4A-8590-9F0E2F87A31C";
layerId = "503A1C46-F934-44FB-A59A-495C9A2692C7";
width = 600;
},
{
associatedMasterId = "BDF0B11D-FE68-4F4A-8590-9F0E2F87A31C";
layerId = "D665805D-61DF-42D2-80F5-880565CCB1A0";
width = 600;
},
{
associatedMasterId = "BDF0B11D-FE68-4F4A-8590-9F0E2F87A31C";
layerId = "693FD62F-EB1D-4CC9-AB7C-A2E65219A9DD";
width = 600;
},
{
associatedMasterId = "BDF0B11D-FE68-4F4A-8590-9F0E2F87A31C";
layerId = "77D3A3B4-7086-47C7-B9F6-66758271746F";
width = 600;
},
{
associatedMasterId = "BDF0B11D-FE68-4F4A-8590-9F0E2F87A31C";
layerId = "07532996-76D6-4658-904A-95F4A16B693C";
width = 600;
},
{
associatedMasterId = "BDF0B11D-FE68-4F4A-8590-9F0E2F87A31C";
layerId = "0D2CF1C8-850C-4FDD-8FB8-950C1583ECE5";
width = 600;
},
{
associatedMasterId = "BDF0B11D-FE68-4F4A-8590-9F0E2F87A31C";
layerId = "CD740F51-25FF-459A-AA3D-F130AC1BD218";
paths = (
{
closed = 1;
nodes = (
"138 635 LINE",
"134 655 LINE",
"443 736 LINE",
"452 698 LINE"
);
},
{
closed = 1;
nodes = (
"502 560 LINE",
"315 560 LINE",
"315 30 LINE",
"502 30 LINE",
"502 0 LINE",
"98 0 LINE",
"98 30 LINE",
"285 30 LINE",
"285 560 LINE",
"98 560 LINE",
"98 590 LINE",
"502 590 LINE"
);
}
);
width = 600;
}
);
unicode = 00CD;
},
{
glyphname = Icircumflex;
lastChange = "2018-06-03 19:07:56 +0000";
layers = (
{
components = (
{
name = I;
},
{
name = circumflex;
transform = "{1, 0, 0, 1, -9.6, 159.6}";
}
);
layerId = "BDF0B11D-FE68-4F4A-8590-9F0E2F87A31C";
width = 600;
},
{
associatedMasterId = "BDF0B11D-FE68-4F4A-8590-9F0E2F87A31C";
layerId = "503A1C46-F934-44FB-A59A-495C9A2692C7";
width = 600;
},
{
associatedMasterId = "BDF0B11D-FE68-4F4A-8590-9F0E2F87A31C";
layerId = "D665805D-61DF-42D2-80F5-880565CCB1A0";
width = 600;
},
{
associatedMasterId = "BDF0B11D-FE68-4F4A-8590-9F0E2F87A31C";
layerId = "693FD62F-EB1D-4CC9-AB7C-A2E65219A9DD";
width = 600;
},
{
associatedMasterId = "BDF0B11D-FE68-4F4A-8590-9F0E2F87A31C";
layerId = "8DB7ECD1-EBDB-4174-80A2-A5F2BB1C22C0";
width = 600;
},
{
associatedMasterId = "BDF0B11D-FE68-4F4A-8590-9F0E2F87A31C";
layerId = "0B0EE22D-3924-4528-BCB4-6C26F137EDDD";
width = 600;
},
{
associatedMasterId = "BDF0B11D-FE68-4F4A-8590-9F0E2F87A31C";
layerId = "14394A12-4C6B-4F89-88FE-B1EA2A07AD94";
width = 600;
},
{
associatedMasterId = "BDF0B11D-FE68-4F4A-8590-9F0E2F87A31C";
layerId = "CD740F51-25FF-459A-AA3D-F130AC1BD218";
paths = (
{
closed = 1;
nodes = (
"94 641 LINE",
"299 747 LINE",
"505 641 LINE",
"499 628 LINE",
"299 711 LINE",
"99 628 LINE"
);
},
{
closed = 1;
nodes = (
"502 560 LINE",
"315 560 LINE",
"315 30 LINE",
"502 30 LINE",
"502 0 LINE",
"98 0 LINE",
"98 30 LINE",
"285 30 LINE",
"285 560 LINE",
"98 560 LINE",
"98 590 LINE",
"502 590 LINE"
);
}
);
width = 600;
}
);
unicode = 00CE;
},
{
glyphname = Idieresis;
lastChange = "2018-06-03 19:07:56 +0000";
layers = (
{
components = (
{
name = I;
},
{
name = dieresis;
transform = "{1, 0, 0, 1, 20.4, 159.6}";
}
);
layerId = "BDF0B11D-FE68-4F4A-8590-9F0E2F87A31C";
width = 600;
},
{
associatedMasterId = "BDF0B11D-FE68-4F4A-8590-9F0E2F87A31C";
layerId = "503A1C46-F934-44FB-A59A-495C9A2692C7";
width = 600;
},
{
associatedMasterId = "BDF0B11D-FE68-4F4A-8590-9F0E2F87A31C";
layerId = "D665805D-61DF-42D2-80F5-880565CCB1A0";
width = 600;
},
{
associatedMasterId = "BDF0B11D-FE68-4F4A-8590-9F0E2F87A31C";
components = (
{
name = I;
}
);
layerId = "693FD62F-EB1D-4CC9-AB7C-A2E65219A9DD";
paths = (
{
closed = 1;
nodes = (
"267 560 CURVE SMOOTH",
"267 537 OFFCURVE",
"288 517 OFFCURVE",
"311 517 CURVE SMOOTH",
"335 517 OFFCURVE",
"354 537 OFFCURVE",
"354 560 CURVE SMOOTH",
"354 583 OFFCURVE",
"335 603 OFFCURVE",
"311 603 CURVE SMOOTH",
"288 603 OFFCURVE",
"267 583 OFFCURVE"
);
}
);
width = 600;
},
{
associatedMasterId = "BDF0B11D-FE68-4F4A-8590-9F0E2F87A31C";
layerId = "3DDE8B04-7B2B-49E2-B141-DA466398E834";
width = 600;
},
{
associatedMasterId = "BDF0B11D-FE68-4F4A-8590-9F0E2F87A31C";
layerId = "1FD6030C-E332-4A6A-B7CE-2C526B6E59FA";
width = 600;
},
{
associatedMasterId = "BDF0B11D-FE68-4F4A-8590-9F0E2F87A31C";
components = (
{
name = I;
}
);
layerId = "6677095D-298A-4BF1-9F67-19C69C972639";
paths = (
{
closed = 1;
nodes = (
"267 560 CURVE SMOOTH",
"267 537 OFFCURVE",
"288 517 OFFCURVE",
"311 517 CURVE SMOOTH",
"335 517 OFFCURVE",
"354 537 OFFCURVE",
"354 560 CURVE SMOOTH",
"354 583 OFFCURVE",
"335 603 OFFCURVE",
"311 603 CURVE SMOOTH",
"288 603 OFFCURVE",
"267 583 OFFCURVE"
);
}
);
width = 600;
},
{
associatedMasterId = "BDF0B11D-FE68-4F4A-8590-9F0E2F87A31C";
layerId = "CD740F51-25FF-459A-AA3D-F130AC1BD218";
paths = (
{
closed = 1;
nodes = (
"221 641 OFFCURVE",
"236 656 OFFCURVE",
"236 675 CURVE SMOOTH",
"236 694 OFFCURVE",
"221 709 OFFCURVE",
"203 709 CURVE SMOOTH",
"184 709 OFFCURVE",
"169 694 OFFCURVE",
"169 675 CURVE SMOOTH",
"169 656 OFFCURVE",
"184 641 OFFCURVE",
"203 641 CURVE SMOOTH"
);
},
{
closed = 1;
nodes = (
"402 641 OFFCURVE",
"417 656 OFFCURVE",
"417 675 CURVE SMOOTH",
"417 694 OFFCURVE",
"402 709 OFFCURVE",
"384 709 CURVE SMOOTH",
"365 709 OFFCURVE",
"350 694 OFFCURVE",
"350 675 CURVE SMOOTH",
"350 656 OFFCURVE",
"365 641 OFFCURVE",
"384 641 CURVE SMOOTH"
);
},
{
closed = 1;
nodes = (
"502 560 LINE",
"315 560 LINE",
"315 30 LINE",
"502 30 LINE",
"502 0 LINE",
"98 0 LINE",
"98 30 LINE",
"285 30 LINE",
"285 560 LINE",
"98 560 LINE",
"98 590 LINE",
"502 590 LINE"
);
}
);
width = 600;
}
);
unicode = 00CF;
},
{
glyphname = Igrave;
lastChange = "2018-06-03 19:07:56 +0000";
layers = (
{
components = (
{
name = I;
},
{
name = grave;
transform = "{1, 0, 0, 1, 67.2, 159.6}";
}
);
layerId = "BDF0B11D-FE68-4F4A-8590-9F0E2F87A31C";
width = 600;
},
{
associatedMasterId = "BDF0B11D-FE68-4F4A-8590-9F0E2F87A31C";
layerId = "503A1C46-F934-44FB-A59A-495C9A2692C7";
width = 600;
},
{
associatedMasterId = "BDF0B11D-FE68-4F4A-8590-9F0E2F87A31C";
layerId = "D665805D-61DF-42D2-80F5-880565CCB1A0";
width = 600;
},
{
associatedMasterId = "BDF0B11D-FE68-4F4A-8590-9F0E2F87A31C";
layerId = "693FD62F-EB1D-4CC9-AB7C-A2E65219A9DD";
width = 600;
},
{
associatedMasterId = "BDF0B11D-FE68-4F4A-8590-9F0E2F87A31C";
layerId = "81F9B509-B775-4BC3-BF7B-E381F03C09B4";
width = 600;
},
{
associatedMasterId = "BDF0B11D-FE68-4F4A-8590-9F0E2F87A31C";
layerId = "FA023D4C-1FA5-4056-B170-88BBD8E2DF71";
width = 600;
},
{
associatedMasterId = "BDF0B11D-FE68-4F4A-8590-9F0E2F87A31C";
layerId = "3382CC0F-A722-4D25-8C67-89D43D18D2BC";
width = 600;
},
{
associatedMasterId = "BDF0B11D-FE68-4F4A-8590-9F0E2F87A31C";
layerId = "CD740F51-25FF-459A-AA3D-F130AC1BD218";
paths = (
{
closed = 1;
nodes = (
"143 736 LINE",
"452 655 LINE",
"448 635 LINE",
"134 698 LINE"
);
},
{
closed = 1;
nodes = (
"502 560 LINE",
"315 560 LINE",
"315 30 LINE",
"502 30 LINE",
"502 0 LINE",
"98 0 LINE",
"98 30 LINE",
"285 30 LINE",
"285 560 LINE",
"98 560 LINE",
"98 590 LINE",
"502 590 LINE"
);
}
);
width = 600;
}
);
unicode = 00CC;
},
{
glyphname = J;
lastChange = "2018-06-03 19:07:56 +0000";
layers = (
{
layerId = "BDF0B11D-FE68-4F4A-8590-9F0E2F87A31C";
paths = (
{
closed = 1;
nodes = (
"66.9 75.9 OFFCURVE",
"117.9 17.1 OFFCURVE",
"207.6 16.8 CURVE SMOOTH",
"320.1 16.5 OFFCURVE",
"384.3 90 OFFCURVE",
"430.8 304.8 CURVE SMOOTH",
"486 560.4 LINE",
"282 560.4 LINE",
"289.2 589.2 LINE",
"665.1 589.2 LINE",
"657.9 560.4 LINE",
"516 560.4 LINE",
"462 304.8 LINE SMOOTH",
"411.6 66.6 OFFCURVE",
"333.9 -12.3 OFFCURVE",
"207.6 -13.2 CURVE SMOOTH",
"99 -14.1 OFFCURVE",
"33 62.1 OFFCURVE",
"36 134.4 CURVE SMOOTH",
"39.6 221.1 OFFCURVE",
"96.9 263.1 OFFCURVE",
"152.4 261.6 CURVE SMOOTH",
"183 260.7 OFFCURVE",
"204 240.9 OFFCURVE",
"205.2 217.2 CURVE SMOOTH",
"206.4 192.9 OFFCURVE",
"189 170.1 OFFCURVE",
"156 170.4 CURVE SMOOTH",
"131.1 170.7 OFFCURVE",
"111 201.9 OFFCURVE",
"122.4 226.8 CURVE",
"111.9 225 OFFCURVE",
"65.1 194.4 OFFCURVE",
"66 135.6 CURVE SMOOTH"
);
}
);
width = 600;
},
{
associatedMasterId = "BDF0B11D-FE68-4F4A-8590-9F0E2F87A31C";
layerId = "503A1C46-F934-44FB-A59A-495C9A2692C7";
width = 600;
},
{
associatedMasterId = "BDF0B11D-FE68-4F4A-8590-9F0E2F87A31C";
layerId = "D665805D-61DF-42D2-80F5-880565CCB1A0";
width = 600;
},
{
associatedMasterId = "BDF0B11D-FE68-4F4A-8590-9F0E2F87A31C";
layerId = "693FD62F-EB1D-4CC9-AB7C-A2E65219A9DD";
paths = (
{
closed = 1;
nodes = (
"247 590 LINE",
"247 557 LINE",
"432 557 LINE",
"374 306 OFFCURVE",
"326 20 OFFCURVE",
"170 20 CURVE SMOOTH",
"103 20 OFFCURVE",
"58 98 OFFCURVE",
"60 164 CURVE SMOOTH",
"61 204 OFFCURVE",
"79 214 OFFCURVE",
"79 214 CURVE",
"96 214 OFFCURVE",
"109 196 OFFCURVE",
"127 196 CURVE SMOOTH",
"154 196 OFFCURVE",
"177 219 OFFCURVE",
"177 246 CURVE SMOOTH",
"177 273 OFFCURVE",
"154 296 OFFCURVE",
"127 296 CURVE SMOOTH",
"64 296 OFFCURVE",
"31 237 OFFCURVE",
"31 164 CURVE SMOOTH",
"31 90 OFFCURVE",
"68 -11 OFFCURVE",
"169 -11 CURVE SMOOTH",
"306 -11 OFFCURVE",
"365 85 OFFCURVE",
"461 557 CURVE",
"606 557 LINE",
"606 590 LINE"
);
}
);
width = 600;
},
{
associatedMasterId = "BDF0B11D-FE68-4F4A-8590-9F0E2F87A31C";
layerId = "BD2A6363-A565-4C94-B9C0-78A8CA1A7DEE";
width = 600;
},
{
associatedMasterId = "BDF0B11D-FE68-4F4A-8590-9F0E2F87A31C";
layerId = "CE19B26A-65E2-467D-9862-42F760F2BFA6";
width = 600;
},
{
associatedMasterId = "BDF0B11D-FE68-4F4A-8590-9F0E2F87A31C";
layerId = "67E202D9-8CB2-448C-87A0-CFC7D6C1B61D";
paths = (
{
closed = 1;
nodes = (
"247 590 LINE",
"247 557 LINE",
"432 557 LINE",
"374 306 OFFCURVE",
"326 20 OFFCURVE",
"170 20 CURVE SMOOTH",
"103 20 OFFCURVE",
"58 98 OFFCURVE",
"60 164 CURVE SMOOTH",
"61 204 OFFCURVE",
"79 214 OFFCURVE",
"79 214 CURVE",
"96 214 OFFCURVE",
"109 196 OFFCURVE",
"127 196 CURVE SMOOTH",
"154 196 OFFCURVE",
"177 219 OFFCURVE",
"177 246 CURVE SMOOTH",
"177 273 OFFCURVE",
"154 296 OFFCURVE",
"127 296 CURVE SMOOTH",
"64 296 OFFCURVE",
"31 237 OFFCURVE",
"31 164 CURVE SMOOTH",
"31 90 OFFCURVE",
"68 -11 OFFCURVE",
"169 -11 CURVE SMOOTH",
"306 -11 OFFCURVE",
"365 85 OFFCURVE",
"461 557 CURVE",
"606 557 LINE",
"606 590 LINE"
);
}
);
width = 600;
},
{
associatedMasterId = "BDF0B11D-FE68-4F4A-8590-9F0E2F87A31C";
layerId = "EFBF2857-1104-4DFB-96BC-35C21D8679F5";
paths = (
{
closed = 1;
nodes = (
"247 590 LINE",
"247 557 LINE",
"428 557 LINE",
"318 49 OFFCURVE",
"266 20 OFFCURVE",
"197 20 CURVE SMOOTH",
"101 21 OFFCURVE",
"58 98 OFFCURVE",
"60 164 CURVE SMOOTH",
"61 204 OFFCURVE",
"79 214 OFFCURVE",
"79 214 CURVE",
"79 214 OFFCURVE",
"119 179 OFFCURVE",
"149 193 CURVE SMOOTH",
"175 205 OFFCURVE",
"179 222 OFFCURVE",
"179 249 CURVE SMOOTH",
"179 276 OFFCURVE",
"154 296 OFFCURVE",
"127 296 CURVE SMOOTH",
"64 296 OFFCURVE",
"27 237 OFFCURVE",
"27 164 CURVE SMOOTH",
"27 90 OFFCURVE",
"68 -10 OFFCURVE",
"194 -11 CURVE SMOOTH",
"308 -12 OFFCURVE",
"351 37 OFFCURVE",
"461 557 CURVE",
"606 557 LINE",
"606 590 LINE"
);
}
);
width = 600;
},
{
associatedMasterId = "BDF0B11D-FE68-4F4A-8590-9F0E2F87A31C";
layerId = "19B7A1B2-533E-434C-9CD5-8B933146DFA5";
paths = (
{
closed = 1;
nodes = (
"46 103 OFFCURVE",
"60 62 OFFCURVE",
"91 33 CURVE SMOOTH",
"124 3 OFFCURVE",
"163 -13 OFFCURVE",
"210 -13 CURVE SMOOTH",
"337 -13 OFFCURVE",
"424 45 OFFCURVE",
"464 233 CURVE SMOOTH",
"532 555 LINE",
"672 555 LINE",
"679 587 LINE",
"275 587 LINE",
"268 555 LINE",
"499 555 LINE",
"431 233 LINE SMOOTH",
"403 100 OFFCURVE",
"342 19 OFFCURVE",
"216 19 CURVE SMOOTH",
"183 19 OFFCURVE",
"148 32 OFFCURVE",
"122 56 CURVE SMOOTH",
"93 83 OFFCURVE",
"81 114 OFFCURVE",
"88 148 CURVE SMOOTH",
"94 176 OFFCURVE",
"114 204 OFFCURVE",
"138 224 CURVE",
"135 199 OFFCURVE",
"144 176 OFFCURVE",
"161 176 CURVE SMOOTH",
"184 176 OFFCURVE",
"203 192 OFFCURVE",
"208 216 CURVE SMOOTH",
"213 240 OFFCURVE",
"197 263 OFFCURVE",
"170 263 CURVE SMOOTH",
"118 263 OFFCURVE",
"70 213 OFFCURVE",
"56 148 CURVE SMOOTH"
);
}
);
width = 600;
},
{
associatedMasterId = "BDF0B11D-FE68-4F4A-8590-9F0E2F87A31C";
layerId = "7A9CB8FB-A6BE-4FF2-B37C-CE3AECF329EB";
paths = (
{
closed = 1;
nodes = (
"-34 60 OFFCURVE",
"49 -13 OFFCURVE",
"140.4 -13.2 CURVE SMOOTH",
"344.4 -14.4 OFFCURVE",
"364 93 OFFCURVE",
"459.6 560.4 CURVE",
"613.2 560.4 LINE",
"620.4 589.2 LINE",
"220.8 589.2 LINE",
"213.6 560.4 LINE",
"429.6 560.4 LINE",
"333 102 OFFCURVE",
"321.6 15.6 OFFCURVE",
"140.4 16.8 CURVE SMOOTH",
"67 17 OFFCURVE",
"0 70 OFFCURVE",
"16.8 147.6 CURVE SMOOTH",
"23 176 OFFCURVE",
"45 212 OFFCURVE",
"68.4 224.4 CURVE",
"56 199 OFFCURVE",
"76 172 OFFCURVE",
"100.8 171.6 CURVE SMOOTH",
"133 171 OFFCURVE",
"150 194 OFFCURVE",
"150 218.4 CURVE SMOOTH",
"150 242 OFFCURVE",
"128 262 OFFCURVE",
"100.8 262.8 CURVE SMOOTH",
"44 264 OFFCURVE",
"3 213 OFFCURVE",
"-13.2 147.6 CURVE SMOOTH"
);
}
);
width = 600;
},
{
associatedMasterId = "BDF0B11D-FE68-4F4A-8590-9F0E2F87A31C";
layerId = "CD740F51-25FF-459A-AA3D-F130AC1BD218";
paths = (
{
closed = 1;
nodes = (
"95 268 OFFCURVE",
"50 224 OFFCURVE",
"50 145 CURVE SMOOTH",
"50 52 OFFCURVE",
"152 -13 OFFCURVE",
"245 -13 CURVE SMOOTH",
"382 -13 OFFCURVE",
"447 84 OFFCURVE",
"447 243 CURVE SMOOTH",
"447 560 LINE",
"585 560 LINE",
"585 590 LINE",
"172 590 LINE",
"172 560 LINE",
"417 560 LINE",
"417 243 LINE SMOOTH",
"417 107 OFFCURVE",
"371 17 OFFCURVE",
"244 17 CURVE SMOOTH",
"161 17 OFFCURVE",
"83 73 OFFCURVE",
"80 145 CURVE SMOOTH",
"78 186 OFFCURVE",
"91 202 OFFCURVE",
"104 216 CURVE",
"98 194 OFFCURVE",
"116 165 OFFCURVE",
"149 165 CURVE SMOOTH",
"178 165 OFFCURVE",
"197 184 OFFCURVE",
"196 215 CURVE SMOOTH",
"195 244 OFFCURVE",
"176 268 OFFCURVE",
"136 268 CURVE SMOOTH"
);
}
);
width = 600;
}
);
unicode = 004A;
},
{
glyphname = K;
lastChange = "2018-06-03 19:07:56 +0000";
layers = (
{
associatedMasterId = "BDF0B11D-FE68-4F4A-8590-9F0E2F87A31C";
layerId = "503A1C46-F934-44FB-A59A-495C9A2692C7";
width = 600;
},
{
associatedMasterId = "BDF0B11D-FE68-4F4A-8590-9F0E2F87A31C";
layerId = "D665805D-61DF-42D2-80F5-880565CCB1A0";
width = 600;
},
{
associatedMasterId = "BDF0B11D-FE68-4F4A-8590-9F0E2F87A31C";
layerId = "693FD62F-EB1D-4CC9-AB7C-A2E65219A9DD";
paths = (
{
closed = 1;
nodes = (
"-12 0 LINE",
"174 0 LINE",
"174 28 LINE",
"95 28 LINE",
"148 214 LINE",
"235 303 LINE",
"359 28 LINE",
"283 28 LINE",
"283 0 LINE",
"468 0 LINE",
"468 28 LINE",
"392 28 LINE",
"259 323 LINE",
"478 560 LINE",
"559 560 LINE",
"559 590 LINE",
"384 590 LINE",
"384 560 LINE",
"445 560 LINE",
"160 264 LINE",
"242 560 LINE",
"314 560 LINE",
"315 590 LINE",
"131 590 LINE",
"131 560 LINE",
"211 560 LINE",
"64 28 LINE",
"-12 28 LINE"
);
}
);
width = 600;
},
{
associatedMasterId = "BDF0B11D-FE68-4F4A-8590-9F0E2F87A31C";
layerId = "59A9478D-CFFC-4BB8-A805-A5E86EC61A57";
width = 600;
},
{
associatedMasterId = "BDF0B11D-FE68-4F4A-8590-9F0E2F87A31C";
layerId = "BE9E8ADD-1945-4934-B0D3-9FEC8BC2FA01";
width = 600;
},
{
annotations = (
{
position = "{268.983, 288.503}";
type = Plus;
},
{
position = "{318.474, 347.305}";
type = Arrow;
}
);
associatedMasterId = "BDF0B11D-FE68-4F4A-8590-9F0E2F87A31C";
layerId = "06101267-EC4B-4EF1-9641-BA4C528376D2";
paths = (
{
closed = 1;
nodes = (
"-12 0 LINE",
"174 0 LINE",
"174 28 LINE",
"95 28 LINE",
"148 214 LINE",
"235 303 LINE",
"359 28 LINE",
"283 28 LINE",
"283 0 LINE",
"468 0 LINE",
"468 28 LINE",
"392 28 LINE",
"259 323 LINE",
"478 560 LINE",
"559 560 LINE",
"559 590 LINE",
"384 590 LINE",
"384 560 LINE",
"445 560 LINE",
"160 264 LINE",
"242 560 LINE",
"314 560 LINE",
"315 590 LINE",
"131 590 LINE",
"131 560 LINE",
"211 560 LINE",
"64 28 LINE",
"-12 28 LINE"
);
}
);
width = 600;
},
{
associatedMasterId = "BDF0B11D-FE68-4F4A-8590-9F0E2F87A31C";
layerId = "54D9B5FA-2597-451A-9BBB-7C3403FC62B4";
paths = (
{
closed = 1;
nodes = (
"-12 0 LINE",
"174 0 LINE",
"174 28 LINE",
"95 28 LINE",
"148 214 LINE",
"235 303 LINE",
"359 28 LINE",
"283 28 LINE",
"283 0 LINE",
"468 0 LINE",
"468 28 LINE",
"392 28 LINE",
"259 323 LINE",
"478 560 LINE",
"559 560 LINE",
"559 590 LINE",
"384 590 LINE",
"384 560 LINE",
"445 560 LINE",
"160 264 LINE",
"242 560 LINE",
"314 560 LINE",
"315 590 LINE",
"131 590 LINE",
"131 560 LINE",
"211 560 LINE",
"64 28 LINE",
"-12 28 LINE"
);
}
);
width = 600;
},
{
associatedMasterId = "BDF0B11D-FE68-4F4A-8590-9F0E2F87A31C";
layerId = "91E8D2CF-CA09-4601-9E95-30D92F5C6F15";
paths = (
{
closed = 1;
nodes = (
"559.2 560.4 LINE",
"628.8 560.4 LINE",
"636 590.4 LINE",
"434.4 590.4 LINE",
"427.2 560.4 LINE",
"516 560.4 LINE",
"136.8 230.4 LINE",
"207.6 560.4 LINE",
"297.6 560.4 LINE",
"304.8 590.4 LINE",
"106.8 590.4 LINE",
"100.8 559.2 LINE",
"177.6 560.4 LINE",
"64.8 30 LINE",
"0 30 LINE",
"-6 0 LINE",
"177.6 0 LINE",
"183.6 30 LINE",
"94.8 30 LINE",
"127.2 181.2 LINE"
);
},
{
closed = 1;
nodes = (
"231.6 276 LINE",
"337.2 90 LINE SMOOTH",
"374 25 OFFCURVE",
"410 -13 OFFCURVE",
"447.6 -13.2 CURVE SMOOTH",
"492 -13 OFFCURVE",
"547 10 OFFCURVE",
"571.2 111.6 CURVE",
"540 111.6 LINE",
"530 66 OFFCURVE",
"500 17 OFFCURVE",
"454.8 16.8 CURVE SMOOTH",
"420 17 OFFCURVE",
"397 47 OFFCURVE",
"364.8 103.2 CURVE SMOOTH",
"256.8 295.2 LINE"
);
}
);
width = 600;
},
{
associatedMasterId = "BDF0B11D-FE68-4F4A-8590-9F0E2F87A31C";
layerId = "F9C17FD6-274B-4468-8C6A-62E6A6C4E03E";
paths = (
{
closed = 1;
nodes = (
"200.4 560.4 LINE",
"289.2 560.4 LINE",
"296.4 590.4 LINE",
"98.4 590.4 LINE",
"92.4 559.2 LINE",
"169.2 560.4 LINE",
"56.4 30 LINE",
"-8.4 30 LINE",
"-14.4 0 LINE",
"169.2 0 LINE",
"175.2 30 LINE",
"87.6 30 LINE"
);
},
{
closed = 1;
nodes = (
"106.8 163.2 LINE",
"510 560.4 LINE",
"579.6 560.4 LINE",
"586.8 590.4 LINE",
"385.2 590.4 LINE",
"378 560.4 LINE",
"466.8 560.4 LINE",
"116.4 212.4 LINE"
);
},
{
closed = 1;
nodes = (
"300 367.2 LINE",
"348 109 OFFCURVE",
"375 -13 OFFCURVE",
"451.2 -13.2 CURVE SMOOTH",
"497 -13 OFFCURVE",
"552 10 OFFCURVE",
"574.8 111.6 CURVE",
"543.6 111.6 LINE",
"535 66 OFFCURVE",
"505 17 OFFCURVE",
"458.4 16.8 CURVE SMOOTH",
"397 17 OFFCURVE",
"381 111 OFFCURVE",
"325.2 386.4 CURVE"
);
}
);
width = 600;
},
{
associatedMasterId = "BDF0B11D-FE68-4F4A-8590-9F0E2F87A31C";
layerId = "D8DC92E2-4C98-4A8B-B559-C93EB08E9B2A";
paths = (
{
closed = 1;
nodes = (
"193.2 560.4 LINE",
"283.2 560.4 LINE",
"290.4 590.4 LINE",
"79.2 590.4 LINE",
"73.2 559.2 LINE",
"163.2 560.4 LINE",
"50.4 30 LINE",
"-42 30 LINE",
"-48 0 LINE",
"162 0 LINE",
"168 30 LINE",
"80.4 30 LINE"
);
},
{
closed = 1;
nodes = (
"99.6 164.4 LINE",
"571.2 560.4 LINE",
"662.4 560.4 LINE",
"669.6 590.4 LINE",
"450 590.4 LINE",
"442.8 560.4 LINE",
"524.4 560.4 LINE",
"109.2 212.4 LINE"
);
},
{
closed = 1;
nodes = (
"265.2 320.4 LINE",
"373 62 OFFCURVE",
"377 -14 OFFCURVE",
"466.8 -13.2 CURVE SMOOTH",
"498 -13 OFFCURVE",
"554 10 OFFCURVE",
"579.6 111.6 CURVE",
"548.4 111.6 LINE",
"537 66 OFFCURVE",
"510 17 OFFCURVE",
"465.6 16.8 CURVE SMOOTH",
"402 17 OFFCURVE",
"407 64 OFFCURVE",
"290.4 339.6 CURVE"
);
}
);
width = 600;
},
{
associatedMasterId = "BDF0B11D-FE68-4F4A-8590-9F0E2F87A31C";
layerId = "5A24C306-D7CD-4A4B-A5F6-762661ECC4AA";
paths = (
{
closed = 1;
nodes = (
"264 560.4 LINE",
"354 560.4 LINE",
"361.2 590.4 LINE",
"150 590.4 LINE",
"144 559.2 LINE",
"234 560.4 LINE",
"121.2 30 LINE",
"28.8 30 LINE",
"22.8 0 LINE",
"232.8 0 LINE",
"238.8 30 LINE",
"151.2 30 LINE"
);
},
{
closed = 1;
nodes = (
"196.8 248.4 LINE",
"566.4 560.4 LINE",
"657.6 560.4 LINE",
"664.8 590.4 LINE",
"445.2 590.4 LINE",
"438 560.4 LINE",
"519.6 560.4 LINE",
"206.4 296.4 LINE"
);
},
{
closed = 1;
nodes = (
"246 320.4 LINE",
"355 62 OFFCURVE",
"359 -14 OFFCURVE",
"447.6 -13.2 CURVE SMOOTH",
"480 -13 OFFCURVE",
"536 10 OFFCURVE",
"560.4 111.6 CURVE",
"529.2 111.6 LINE",
"519 66 OFFCURVE",
"492 17 OFFCURVE",
"446.4 16.8 CURVE SMOOTH",
"384 17 OFFCURVE",
"389 64 OFFCURVE",
"271.2 339.6 CURVE"
);
}
);
width = 600;
},
{
associatedMasterId = "BDF0B11D-FE68-4F4A-8590-9F0E2F87A31C";
layerId = "F7209754-7AA7-491A-8D8D-F0D81C476AA8";
paths = (
{
closed = 1;
nodes = (
"205.2 560.4 LINE",
"271.2 560.4 LINE",
"278.4 590.4 LINE",
"91.2 590.4 LINE",
"85.2 559.2 LINE",
"175.2 560.4 LINE",
"62.4 30 LINE",
"-12 30 LINE",
"-18 0 LINE",
"165 0 LINE",
"171 30 LINE",
"92.4 30 LINE"
);
},
{
closed = 1;
nodes = (
"124.2 232.5 LINE",
"515.4 560.4 LINE",
"606.6 560.4 LINE",
"613.8 590.4 LINE",
"418.2 590.4 LINE",
"411 560.4 LINE",
"468.6 560.4 LINE",
"133.8 280.5 LINE"
);
},
{
closed = 1;
nodes = (
"489 66 OFFCURVE",
"462 17.1 OFFCURVE",
"431.7 16.8 CURVE SMOOTH",
"368.4 16.2 OFFCURVE",
"453.9 330.9 OFFCURVE",
"212.1 330.9 CURVE SMOOTH",
"198.9 330.9 LINE",
"197.7 300.6 LINE",
"211.5 300.6 LINE SMOOTH",
"433.2 300.6 OFFCURVE",
"320.4 -13.5 OFFCURVE",
"429.6 -12.9 CURVE SMOOTH",
"473.7 -12.6 OFFCURVE",
"509.4 24 OFFCURVE",
"530.4 111.6 CURVE",
"499.2 111.6 LINE"
);
}
);
width = 600;
},
{
layerId = "BDF0B11D-FE68-4F4A-8590-9F0E2F87A31C";
paths = (
{
closed = 1;
nodes = (
"205.2 560.4 LINE",
"295.2 560.4 LINE",
"302.4 590.4 LINE",
"91.2 590.4 LINE",
"85.2 559.2 LINE",
"175.2 560.4 LINE",
"62.4 30 LINE",
"-30 30 LINE",
"-36 0 LINE",
"174 0 LINE",
"180 30 LINE",
"92.4 30 LINE"
);
},
{
closed = 1;
nodes = (
"94.8 164.4 LINE",
"566.4 560.4 LINE",
"657.6 560.4 LINE",
"664.8 590.4 LINE",
"445.2 590.4 LINE",
"438 560.4 LINE",
"519.6 560.4 LINE",
"104.4 212.4 LINE"
);
},
{
closed = 1;
nodes = (
"246 320.4 LINE",
"361.2 47.7 OFFCURVE",
"361.2 -14.1 OFFCURVE",
"447.6 -13.2 CURVE SMOOTH",
"479.1 -12.9 OFFCURVE",
"533.1 8.7 OFFCURVE",
"558.3 103.8 CURVE",
"529.2 111.6 LINE",
"507 50.1 OFFCURVE",
"492 16.5 OFFCURVE",
"446.4 16.8 CURVE SMOOTH",
"382.5 17.1 OFFCURVE",
"388.2 63.6 OFFCURVE",
"270.9 339.3 CURVE"
);
}
);
width = 600;
},
{
associatedMasterId = "BDF0B11D-FE68-4F4A-8590-9F0E2F87A31C";
layerId = "CD740F51-25FF-459A-AA3D-F130AC1BD218";
paths = (
{
closed = 1;
nodes = (
"263 0 LINE",
"263 32 LINE",
"157 32 LINE",
"157 169 LINE",
"284 312 LINE",
"406 90 LINE SMOOTH",
"446 18 OFFCURVE",
"476 -13 OFFCURVE",
"520 -13 CURVE SMOOTH",
"567 -13 OFFCURVE",
"611 22 OFFCURVE",
"611 99 CURVE SMOOTH",
"611 126 LINE",
"581 126 LINE",
"581 100 LINE SMOOTH",
"581 42 OFFCURVE",
"558 17 OFFCURVE",
"520 17 CURVE SMOOTH",
"482 17 OFFCURVE",
"455 62 OFFCURVE",
"431 106 CURVE SMOOTH",
"305 335 LINE",
"500 560 LINE",
"571 560 LINE",
"571 590 LINE",
"349 590 LINE",
"349 560 LINE",
"461 560 LINE",
"157 214 LINE",
"157 560 LINE",
"263 560 LINE",
"263 590 LINE",
"10 590 LINE",
"10 560 LINE",
"127 560 LINE",
"127 32 LINE",
"10 32 LINE",
"10 0 LINE"
);
}
);
width = 600;
}
);
leftKerningGroup = K;
rightKerningGroup = K2;
unicode = 004B;
},
{
glyphname = L;
lastChange = "2018-06-03 19:07:56 +0000";
layers = (
{
anchors = (
{
name = top;
position = "{360, 602.4}";
}
);
layerId = "BDF0B11D-FE68-4F4A-8590-9F0E2F87A31C";
paths = (
{
closed = 1;
nodes = (
"496.8 518.4 LINE",
"465 578 OFFCURVE",
"412 603 OFFCURVE",
"360 602.4 CURVE SMOOTH",
"289 602 OFFCURVE",
"217 554 OFFCURVE",
"196.8 456 CURVE SMOOTH",
"105.6 30 LINE",
"26.4 30 LINE",
"20.4 0 LINE",
"477.6 0 LINE",
"514.8 188.4 LINE",
"484.8 192 LINE",
"452.4 30 LINE",
"136.8 30 LINE",
"225.6 450 LINE SMOOTH",
"243 532 OFFCURVE",
"301 572 OFFCURVE",
"358.8 572.4 CURVE SMOOTH",
"402 573 OFFCURVE",
"446 552 OFFCURVE",
"472.8 500.4 CURVE"
);
}
);
width = 600;
},
{
associatedMasterId = "BDF0B11D-FE68-4F4A-8590-9F0E2F87A31C";
layerId = "503A1C46-F934-44FB-A59A-495C9A2692C7";
width = 600;
},
{
associatedMasterId = "BDF0B11D-FE68-4F4A-8590-9F0E2F87A31C";
layerId = "D665805D-61DF-42D2-80F5-880565CCB1A0";
width = 600;
},
{
anchors = (
{
name = top;
position = "{355, 603}";
}
);
associatedMasterId = "BDF0B11D-FE68-4F4A-8590-9F0E2F87A31C";
layerId = "693FD62F-EB1D-4CC9-AB7C-A2E65219A9DD";
paths = (
{
closed = 1;
nodes = (
"11 0 LINE",
"518 0 LINE",
"570 236 LINE",
"539 236 LINE",
"487 31 LINE",
"145 31 LINE",
"260 558 LINE",
"362 558 LINE",
"362 589 LINE",
"126 589 LINE",
"126 558 LINE",
"228 558 LINE",
"113 31 LINE",
"11 31 LINE"
);
}
);
width = 600;
},
{
associatedMasterId = "BDF0B11D-FE68-4F4A-8590-9F0E2F87A31C";
layerId = "F0811190-086D-4348-99C8-3F6335117133";
width = 600;
},
{
associatedMasterId = "BDF0B11D-FE68-4F4A-8590-9F0E2F87A31C";
layerId = "E245F53A-EA7F-4744-A8E5-2FC33A15C3C1";
width = 600;
},
{
anchors = (
{
name = top;
position = "{355, 603}";
}
);
associatedMasterId = "BDF0B11D-FE68-4F4A-8590-9F0E2F87A31C";
layerId = "99158946-A22A-4C96-AB44-1E06C1FE9E40";
paths = (
{
closed = 1;
nodes = (
"11 0 LINE",
"518 0 LINE",
"570 236 LINE",
"539 236 LINE",
"487 31 LINE",
"145 31 LINE",
"260 558 LINE",
"362 558 LINE",
"362 589 LINE",
"126 589 LINE",
"126 558 LINE",
"228 558 LINE",
"113 31 LINE",
"11 31 LINE"
);
}
);
width = 600;
},
{
anchors = (
{
name = top;
position = "{355, 603}";
}
);
associatedMasterId = "BDF0B11D-FE68-4F4A-8590-9F0E2F87A31C";
layerId = "9CFF5A2B-C9E3-4988-94F3-64681525A1EC";
paths = (
{
closed = 1;
nodes = (
"31 0 LINE",
"481 0 LINE",
"532 236 LINE",
"501 236 LINE",
"457 31 LINE",
"165 31 LINE",
"280 558 LINE",
"382 558 LINE",
"382 589 LINE",
"146 589 LINE",
"146 558 LINE",
"248 558 LINE",
"133 31 LINE",
"31 31 LINE"
);
}
);
width = 600;
},
{
associatedMasterId = "BDF0B11D-FE68-4F4A-8590-9F0E2F87A31C";
layerId = "8651FB32-8676-4C0B-98EF-75DD8884AD5A";
paths = (
{
closed = 1;
nodes = (
"252 559.2 LINE",
"368.4 559.2 LINE",
"374.4 589.2 LINE",
"99.6 590.4 LINE",
"93.6 559.2 LINE",
"220.8 559.2 LINE",
"114 30 LINE",
"34.8 30 LINE",
"28.8 0 LINE",
"488.4 0 LINE",
"528 210 LINE",
"495.6 213.6 LINE",
"460.8 30 LINE",
"145.2 30 LINE"
);
}
);
width = 600;
},
{
associatedMasterId = "BDF0B11D-FE68-4F4A-8590-9F0E2F87A31C";
components = (
{
name = Swash;
transform = "{1, 0, 0, 1, -159, 0}";
}
);
layerId = "E8265E4B-3ABA-4D0F-AF45-26815881ECED";
name = "Swash simple";
paths = (
{
closed = 1;
nodes = (
"300 560.4 LINE",
"416.4 560.4 LINE",
"422.4 590.4 LINE",
"207.6 590.4 LINE",
"201.6 560.4 LINE",
"268.8 560.4 LINE",
"162 30 LINE",
"82.8 30 LINE",
"76.8 0 LINE",
"536.4 0 LINE",
"576 210 LINE",
"543.6 213.6 LINE",
"508.8 30 LINE",
"193.2 30 LINE"
);
}
);
width = 600;
},
{
associatedMasterId = "BDF0B11D-FE68-4F4A-8590-9F0E2F87A31C";
layerId = "5BF9E3FD-FB6E-4AF7-AFD6-CDBA055884D0";
paths = (
{
closed = 1;
nodes = (
"492 522 LINE",
"445 610 OFFCURVE",
"372 604 OFFCURVE",
"346.8 603.6 CURVE SMOOTH",
"290 603 OFFCURVE",
"221 571 OFFCURVE",
"196.8 456 CURVE SMOOTH",
"105.6 30 LINE",
"26.4 30 LINE",
"20.4 0 LINE",
"480 0 LINE",
"502.8 122.4 LINE",
"470.4 126 LINE",
"452.4 30 LINE",
"136.8 30 LINE",
"225.6 450 LINE SMOOTH",
"245 544 OFFCURVE",
"302 575 OFFCURVE",
"346.8 573.6 CURVE SMOOTH",
"366 573 OFFCURVE",
"429 584 OFFCURVE",
"472.8 500.4 CURVE"
);
}
);
width = 600;
},
{
associatedMasterId = "BDF0B11D-FE68-4F4A-8590-9F0E2F87A31C";
layerId = "CD740F51-25FF-459A-AA3D-F130AC1BD218";
paths = (
{
closed = 1;
nodes = (
"178 30 LINE",
"534 30 LINE",
"556 291 LINE",
"586 287 LINE",
"562 0 LINE",
"36 0 LINE",
"36 30 LINE",
"148 30 LINE",
"148 560 LINE",
"36 560 LINE",
"36 590 LINE",
"290 590 LINE",
"290 560 LINE",
"178 560 LINE"
);
}
);
width = 600;
}
);
leftKerningGroup = L;
rightKerningGroup = L;
unicode = 004C;
},
{
glyphname = Lslash;
lastChange = "2018-06-03 19:07:56 +0000";
layers = (
{
components = (
{
name = L;
}
);
layerId = "BDF0B11D-FE68-4F4A-8590-9F0E2F87A31C";
paths = (
{
closed = 1;
nodes = (
"36 236.4 LINE",
"48 210 LINE",
"336 351.6 LINE",
"324 378 LINE"
);
}
);
width = 600;
},
{
associatedMasterId = "BDF0B11D-FE68-4F4A-8590-9F0E2F87A31C";
layerId = "CD740F51-25FF-459A-AA3D-F130AC1BD218";
paths = (
{
closed = 1;
nodes = (
"586 287 LINE",
"556 291 LINE",
"534 30 LINE",
"178 30 LINE",
"178 293 LINE",
"290 346 LINE",
"290 379 LINE",
"178 326 LINE",
"178 560 LINE",
"290 560 LINE",
"290 590 LINE",
"36 590 LINE",
"36 560 LINE",
"148 560 LINE",
"148 311 LINE",
"36 258 LINE",
"36 225 LINE",
"148 278 LINE",
"148 30 LINE",
"36 30 LINE",
"36 0 LINE",
"562 0 LINE"
);
}
);
width = 600;
}
);
unicode = 0141;
},
{
glyphname = M;
lastChange = "2018-06-03 19:07:56 +0000";
layers = (
{
associatedMasterId = "BDF0B11D-FE68-4F4A-8590-9F0E2F87A31C";
layerId = "503A1C46-F934-44FB-A59A-495C9A2692C7";
width = 600;
},
{
associatedMasterId = "BDF0B11D-FE68-4F4A-8590-9F0E2F87A31C";
layerId = "D665805D-61DF-42D2-80F5-880565CCB1A0";
width = 600;
},
{
associatedMasterId = "BDF0B11D-FE68-4F4A-8590-9F0E2F87A31C";
layerId = "693FD62F-EB1D-4CC9-AB7C-A2E65219A9DD";
paths = (
{
closed = 1;
nodes = (
"-11 0 LINE",
"145 0 LINE",
"145 33 LINE",
"81 33 LINE",
"208 557 LINE",
"209 557 LINE",
"227 0 LINE",
"274 0 LINE",
"538 557 LINE",
"411 33 LINE",
"355 33 LINE",
"355 0 LINE",
"510 0 LINE",
"510 33 LINE",
"445 33 LINE",
"571 557 LINE",
"637 557 LINE",
"637 590 LINE",
"519 590 LINE",
"256 37 LINE",
"244 590 LINE",
"112 590 LINE",
"112 557 LINE",
"175 557 LINE",
"46 33 LINE",
"-11 33 LINE"
);
}
);
width = 600;
},
{
associatedMasterId = "BDF0B11D-FE68-4F4A-8590-9F0E2F87A31C";
layerId = "C8C14496-EA1E-469F-808E-A054CCA9254E";
width = 600;
},
{
associatedMasterId = "BDF0B11D-FE68-4F4A-8590-9F0E2F87A31C";
layerId = "89E8B8A4-092E-4997-8706-F618BECCBBE6";
width = 600;
},
{
associatedMasterId = "BDF0B11D-FE68-4F4A-8590-9F0E2F87A31C";
layerId = "FDF4D170-8265-4DD2-A5B2-B95B2CD445C8";
paths = (
{
closed = 1;
nodes = (
"-11 0 LINE",
"145 0 LINE",
"145 33 LINE",
"81 33 LINE",
"208 557 LINE",
"209 557 LINE",
"227 0 LINE",
"274 0 LINE",
"538 557 LINE",
"411 33 LINE",
"355 33 LINE",
"355 0 LINE",
"510 0 LINE",
"510 33 LINE",
"445 33 LINE",
"571 557 LINE",
"637 557 LINE",
"637 590 LINE",
"519 590 LINE",
"256 37 LINE",
"244 590 LINE",
"112 590 LINE",
"112 557 LINE",
"175 557 LINE",
"46 33 LINE",
"-11 33 LINE"
);
}
);
width = 600;
},
{
associatedMasterId = "BDF0B11D-FE68-4F4A-8590-9F0E2F87A31C";
layerId = "AC1AEE12-A025-4EE3-A3AA-8B68F7C4F255";
paths = (
{
closed = 1;
nodes = (
"-11 0 LINE",
"145 0 LINE",
"145 33 LINE",
"81 33 LINE",
"208 557 LINE",
"209 557 LINE",
"227 0 LINE",
"274 0 LINE",
"538 557 LINE",
"411 33 LINE",
"355 33 LINE",
"355 0 LINE",
"510 0 LINE",
"510 33 LINE",
"445 33 LINE",
"571 557 LINE",
"637 557 LINE",
"637 590 LINE",
"519 590 LINE",
"256 37 LINE",
"244 590 LINE",
"112 590 LINE",
"112 557 LINE",
"175 557 LINE",
"46 33 LINE",
"-11 33 LINE"
);
}
);
width = 600;
},
{
associatedMasterId = "BDF0B11D-FE68-4F4A-8590-9F0E2F87A31C";
layerId = "FF3452B5-CF37-4C3E-98FD-E27CC04A7DE9";
paths = (
{
closed = 1;
nodes = (
"292.8 0 LINE",
"450 560.4 LINE",
"450 30 LINE",
"374.4 30 LINE",
"374.4 0 LINE",
"537.6 0 LINE",
"537.6 30 LINE",
"480 30 LINE",
"480 560.4 LINE",
"537.6 560.4 LINE",
"537.6 590.4 LINE",
"427.2 589.2 LINE",
"270 30 LINE",
"112.8 589.2 LINE",
"2.4 590.4 LINE",
"2.4 560.4 LINE",
"60 560.4 LINE",
"60 30 LINE",
"2.4 30 LINE",
"2.4 0 LINE",
"165.6 0 LINE",
"165.6 30 LINE",
"90 30 LINE",
"90 560.4 LINE",
"247.2 0 LINE"
);
}
);
width = 600;
},
{
associatedMasterId = "BDF0B11D-FE68-4F4A-8590-9F0E2F87A31C";
layerId = "C88DD181-C1C4-4845-A2BE-E8A4FE1946F7";
paths = (
{
closed = 1;
nodes = (
"266.4 0 LINE",
"542.4 560.4 LINE",
"429.6 30 LINE",
"354 30 LINE",
"348 0 LINE",
"511.2 0 LINE",
"517.2 30 LINE",
"459.6 30 LINE",
"572.4 560.4 LINE",
"630 560.4 LINE",
"636 590.4 LINE",
"525.6 589.2 LINE",
"249.6 30 LINE",
"211.2 589.2 LINE",
"88.8 590.4 LINE",
"82.8 560.4 LINE",
"152.4 560.4 LINE",
"39.6 30 LINE",
"-18 30 LINE",
"-24 0 LINE",
"139.2 0 LINE",
"145.2 30 LINE",
"69.6 30 LINE",
"182.4 560.4 LINE",
"220.8 0 LINE"
);
}
);
width = 600;
},
{
associatedMasterId = "BDF0B11D-FE68-4F4A-8590-9F0E2F87A31C";
components = (
{
name = Swash;
transform = "{1, 0, 0, 1, -200, 0}";
},
{
name = Swash;
transform = "{-0.40674, -0.91355, -0.91355, 0.40674, 1174, 607}";
}
);
layerId = "82238333-BAD8-4E3B-B7AA-11C1A275D924";
paths = (
{
closed = 1;
nodes = (
"488.4 513.6 LINE",
"249.6 30 LINE",
"211.2 589.2 LINE",
"148.8 590.4 LINE",
"142.8 560.4 LINE",
"152.4 560.4 LINE",
"39.6 30 LINE",
"-18 30 LINE",
"-24 0 LINE",
"139.2 0 LINE",
"145.2 30 LINE",
"69.6 30 LINE",
"182.4 560.4 LINE",
"220.8 0 LINE",
"266.4 0 LINE",
"505.2 484.8 LINE"
);
},
{
closed = 1;
nodes = (
"517.2 560.4 LINE",
"404.4 30 LINE",
"328.8 30 LINE",
"322.8 0 LINE",
"486 0 LINE",
"492 30 LINE",
"434.4 30 LINE",
"547.2 560.4 LINE"
);
}
);
width = 600;
},
{
layerId = "BDF0B11D-FE68-4F4A-8590-9F0E2F87A31C";
paths = (
{
closed = 1;
nodes = (
"300 0 LINE",
"576 560.4 LINE",
"463.2 30 LINE",
"400.8 30 LINE",
"394.8 0 LINE",
"552 0 LINE",
"558 30 LINE",
"493.2 30 LINE",
"606 560.4 LINE",
"666 560.4 LINE",
"673.2 590.4 LINE",
"558 590.4 LINE",
"283.2 34.8 LINE",
"244.8 590.4 LINE",
"182.4 590.4 LINE",
"176.4 560.4 LINE",
"186 560.4 LINE",
"73.2 30 LINE",
"9.6 30 LINE",
"3.6 0 LINE",
"157.2 0 LINE",
"163.2 30 LINE",
"103.2 30 LINE",
"216 560.4 LINE",
"254.4 0 LINE"
);
},
{
closed = 1;
nodes = (
"88.8 468 LINE",
"85 484 OFFCURVE",
"105 560 OFFCURVE",
"169.2 560.4 CURVE SMOOTH",
"229.2 560.4 LINE",
"229.2 590.4 LINE",
"169.2 590.4 LINE SMOOTH",
"85 590 OFFCURVE",
"55 497 OFFCURVE",
"58.8 468 CURVE"
);
}
);
width = 600;
},
{
associatedMasterId = "BDF0B11D-FE68-4F4A-8590-9F0E2F87A31C";
layerId = "CD740F51-25FF-459A-AA3D-F130AC1BD218";
paths = (
{
closed = 1;
nodes = (
"318 64 LINE",
"282 64 LINE",
"113 553 LINE",
"113 30 LINE",
"179 30 LINE",
"179 0 LINE",
"17 0 LINE",
"17 30 LINE",
"83 30 LINE",
"83 560 LINE",
"17 560 LINE",
"17 590 LINE",
"132 590 LINE",
"300 103 LINE",
"468 590 LINE",
"585 590 LINE",
"585 560 LINE",
"517 560 LINE",
"517 30 LINE",
"583 30 LINE",
"583 0 LINE",
"421 0 LINE",
"421 30 LINE",
"487 30 LINE",
"487 553 LINE"
);
}
);
width = 600;
}
);
unicode = 004D;
userData = {
com.typemytype.robofont.guides = (
{
angle = 0;
isGlobal = 0;
magnetic = 5;
x = 0;
y = 549;
}
);
};
},
{
glyphname = N;
lastChange = "2018-06-03 19:07:56 +0000";
layers = (
{
anchors = (
{
name = top;
position = "{378, 602.4}";
}
);
layerId = "BDF0B11D-FE68-4F4A-8590-9F0E2F87A31C";
paths = (
{
closed = 1;
nodes = (
"280.8 590.4 LINE",
"201 590.4 LINE",
"195 560.4 LINE",
"225.6 560.4 LINE",
"112.8 30 LINE",
"55.2 30 LINE",
"49.2 0 LINE",
"212.4 0 LINE",
"218.4 30 LINE",
"142.8 30 LINE",
"255.6 560.4 LINE",
"402 0 LINE",
"432 0 LINE"
);
},
{
closed = 1;
nodes = (
"645.6 560.4 LINE",
"651.6 590.4 LINE",
"460.8 590.4 LINE",
"454.8 560.4 LINE",
"536.4 560.4 LINE",
"417.6 0 LINE",
"448.8 0 LINE",
"566.4 560.4 LINE"
);
},
{
closed = 1;
nodes = (
"123 468 LINE",
"120.6 483.6 OFFCURVE",
"141 560.4 OFFCURVE",
"203.4 560.4 CURVE SMOOTH",
"263.4 560.4 LINE",
"263.4 590.4 LINE",
"203.4 590.4 LINE SMOOTH",
"120.6 590.4 OFFCURVE",
"90.6 496.8 OFFCURVE",
"93 468 CURVE"
);
}
);
width = 600;
},
{
associatedMasterId = "BDF0B11D-FE68-4F4A-8590-9F0E2F87A31C";
layerId = "503A1C46-F934-44FB-A59A-495C9A2692C7";
width = 600;
},
{
associatedMasterId = "BDF0B11D-FE68-4F4A-8590-9F0E2F87A31C";
layerId = "D665805D-61DF-42D2-80F5-880565CCB1A0";
width = 600;
},
{
anchors = (
{
name = top;
position = "{385, 602}";
}
);
associatedMasterId = "BDF0B11D-FE68-4F4A-8590-9F0E2F87A31C";
layerId = "693FD62F-EB1D-4CC9-AB7C-A2E65219A9DD";
paths = (
{
closed = 1;
nodes = (
"33 0 LINE",
"221 0 LINE",
"221 33 LINE",
"142 33 LINE",
"263 555 LINE",
"404 0 LINE",
"454 0 LINE",
"582 557 LINE",
"658 557 LINE",
"658 590 LINE",
"470 589 LINE",
"470 557 LINE",
"549 557 LINE",
"429 39 LINE",
"288 589 LINE",
"151 589 LINE",
"151 556 LINE",
"230 556 LINE",
"108 33 LINE",
"33 33 LINE"
);
}
);
width = 600;
},
{
associatedMasterId = "BDF0B11D-FE68-4F4A-8590-9F0E2F87A31C";
layerId = "DE20C962-15EB-477D-B67E-F9D0CEA1F274";
width = 600;
},
{
associatedMasterId = "BDF0B11D-FE68-4F4A-8590-9F0E2F87A31C";
layerId = "973A99CF-5566-4D95-9A66-8029989EFD9C";
width = 600;
},
{
anchors = (
{
name = top;
position = "{385, 602}";
}
);
associatedMasterId = "BDF0B11D-FE68-4F4A-8590-9F0E2F87A31C";
layerId = "FF889182-500B-48AA-B7E2-25D699E88953";
name = "Dessin avant de le penché";
paths = (
{
closed = 1;
nodes = (
"92.4 0 LINE",
"283.2 0 LINE",
"277.2 33.6 LINE",
"198 33.6 LINE",
"207.6 555.6 LINE",
"466.8 0 LINE",
"517.2 0 LINE",
"526.8 556.8 LINE",
"598.8 556.8 LINE",
"598.8 590.4 LINE",
"410.4 589.2 LINE",
"410.4 556.8 LINE",
"493.2 556.8 LINE",
"483.6 39.6 LINE",
"225.6 589.2 LINE",
"92.4 589.2 LINE",
"92.4 555.6 LINE",
"174 555.6 LINE",
"163.2 33.6 LINE",
"92.4 33.6 LINE"
);
}
);
width = 600;
},
{
anchors = (
{
name = top;
position = "{385, 602}";
}
);
associatedMasterId = "BDF0B11D-FE68-4F4A-8590-9F0E2F87A31C";
layerId = "BFC27611-1667-4B5C-90FF-1FF6051FDB5B";
paths = (
{
closed = 1;
nodes = (
"88.8 0 LINE",
"277.2 0 LINE",
"270 33.6 LINE",
"190.8 33.6 LINE",
"200.4 555.6 LINE",
"459.6 0 LINE",
"510 0 LINE",
"519.6 556.8 LINE",
"595.2 556.8 LINE",
"588 590.4 LINE",
"400.8 589.2 LINE",
"406.8 556.8 LINE",
"486 556.8 LINE",
"476.4 39.6 LINE",
"218.4 589.2 LINE",
"81.6 589.2 LINE",
"88.8 555.6 LINE",
"168 555.6 LINE",
"157.2 33.6 LINE",
"81.6 33.6 LINE"
);
}
);
width = 600;
},
{
anchors = (
{
name = top;
position = "{450, 602.4}";
}
);
associatedMasterId = "BDF0B11D-FE68-4F4A-8590-9F0E2F87A31C";
layerId = "FC013752-18AA-4E46-878C-F04C595D432F";
paths = (
{
closed = 1;
nodes = (
"244.8 590.4 LINE",
"90 590.4 LINE",
"84 560.4 LINE",
"189.6 560.4 LINE",
"76.8 30 LINE",
"19.2 30 LINE",
"13.2 0 LINE",
"176.4 0 LINE",
"182.4 30 LINE",
"106.8 30 LINE",
"219.6 560.4 LINE",
"366 0 LINE",
"396 0 LINE"
);
},
{
closed = 1;
nodes = (
"609.6 560.4 LINE",
"615.6 590.4 LINE",
"412.8 590.4 LINE",
"406.8 560.4 LINE",
"500.4 560.4 LINE",
"381.6 0 LINE",
"412.8 0 LINE",
"530.4 560.4 LINE"
);
}
);
width = 600;
},
{
associatedMasterId = "BDF0B11D-FE68-4F4A-8590-9F0E2F87A31C";
layerId = "CD740F51-25FF-459A-AA3D-F130AC1BD218";
paths = (
{
closed = 1;
nodes = (
"577 590 LINE",
"373 590 LINE",
"373 560 LINE",
"455 560 LINE",
"455 30 LINE",
"168 590 LINE",
"165 590 LINE SMOOTH",
"117 590 OFFCURVE",
"78 593 OFFCURVE",
"30 603 CURVE",
"23 575 LINE",
"51 569 OFFCURVE",
"92 562 OFFCURVE",
"122 560 CURVE",
"122 30 LINE",
"30 30 LINE",
"30 0 LINE",
"234 0 LINE",
"234 30 LINE",
"152 30 LINE",
"153 554 LINE",
"437 0 LINE",
"485 0 LINE",
"485 560 LINE",
"577 560 LINE"
);
}
);
width = 600;
}
);
leftKerningGroup = N2;
rightKerningGroup = N2;
unicode = 004E;
},
{
glyphname = Ntilde;
lastChange = "2018-06-03 19:07:56 +0000";
layers = (
{
components = (
{
name = N;
}
);
layerId = "BDF0B11D-FE68-4F4A-8590-9F0E2F87A31C";
width = 600;
},
{
associatedMasterId = "BDF0B11D-FE68-4F4A-8590-9F0E2F87A31C";
layerId = "503A1C46-F934-44FB-A59A-495C9A2692C7";
width = 600;
},
{
associatedMasterId = "BDF0B11D-FE68-4F4A-8590-9F0E2F87A31C";
layerId = "D665805D-61DF-42D2-80F5-880565CCB1A0";
width = 600;
},
{
associatedMasterId = "BDF0B11D-FE68-4F4A-8590-9F0E2F87A31C";
components = (
{
name = N;
}
);
layerId = "693FD62F-EB1D-4CC9-AB7C-A2E65219A9DD";
width = 600;
},
{
associatedMasterId = "BDF0B11D-FE68-4F4A-8590-9F0E2F87A31C";
layerId = "22DDB9EF-5331-4396-B510-403A9AA7ADFF";
width = 600;
},
{
associatedMasterId = "BDF0B11D-FE68-4F4A-8590-9F0E2F87A31C";
layerId = "59EBE382-3BB3-409A-8E60-614FD266DD96";
width = 600;
},
{
associatedMasterId = "BDF0B11D-FE68-4F4A-8590-9F0E2F87A31C";
components = (
{
name = N;
}
);
layerId = "D49F81A5-12E4-4C50-A3B9-3BD01989B1C7";
width = 600;
},
{
associatedMasterId = "BDF0B11D-FE68-4F4A-8590-9F0E2F87A31C";
layerId = "CD740F51-25FF-459A-AA3D-F130AC1BD218";
paths = (
{
closed = 1;
nodes = (
"299 699 OFFCURVE",
"316 626 OFFCURVE",
"388 626 CURVE SMOOTH",
"417 626 OFFCURVE",
"454 647 OFFCURVE",
"501 703 CURVE",
"480 723 LINE",
"441 675 OFFCURVE",
"415 656 OFFCURVE",
"388 656 CURVE SMOOTH",
"335 656 OFFCURVE",
"318 729 OFFCURVE",
"246 729 CURVE SMOOTH",
"217 729 OFFCURVE",
"180 706 OFFCURVE",
"132 651 CURVE",
"153 631 LINE",
"193 678 OFFCURVE",
"219 699 OFFCURVE",
"246 699 CURVE SMOOTH"
);
},
{
closed = 1;
nodes = (
"577 590 LINE",
"373 590 LINE",
"373 560 LINE",
"455 560 LINE",
"455 30 LINE",
"168 590 LINE",
"165 590 LINE SMOOTH",
"117 590 OFFCURVE",
"78 593 OFFCURVE",
"30 603 CURVE",
"23 575 LINE",
"51 569 OFFCURVE",
"92 562 OFFCURVE",
"122 560 CURVE",
"122 30 LINE",
"30 30 LINE",
"30 0 LINE",
"234 0 LINE",
"234 30 LINE",
"152 30 LINE",
"153 554 LINE",
"437 0 LINE",
"485 0 LINE",
"485 560 LINE",
"577 560 LINE"
);
}
);
width = 600;
}
);
leftKerningGroup = N2;
rightKerningGroup = N2;
unicode = 00D1;
},
{
glyphname = O;
lastChange = "2018-06-03 19:07:56 +0000";
layers = (
{
anchors = (
{
name = top;
position = "{376.8, 602.4}";
}
);
components = (
{
name = zero;
transform = "{1, 0, 0, 1, 14, 0}";
}
);
layerId = "BDF0B11D-FE68-4F4A-8590-9F0E2F87A31C";
width = 600;
},
{
associatedMasterId = "BDF0B11D-FE68-4F4A-8590-9F0E2F87A31C";
layerId = "503A1C46-F934-44FB-A59A-495C9A2692C7";
width = 600;
},
{
associatedMasterId = "BDF0B11D-FE68-4F4A-8590-9F0E2F87A31C";
layerId = "D665805D-61DF-42D2-80F5-880565CCB1A0";
width = 600;
},
{
associatedMasterId = "BDF0B11D-FE68-4F4A-8590-9F0E2F87A31C";
components = (
{
name = zero;
}
);
layerId = "693FD62F-EB1D-4CC9-AB7C-A2E65219A9DD";
width = 600;
},
{
associatedMasterId = "BDF0B11D-FE68-4F4A-8590-9F0E2F87A31C";
layerId = "1D38CFCF-4A6D-4C8B-ADFA-FE3F5D5AF66E";
width = 600;
},
{
associatedMasterId = "BDF0B11D-FE68-4F4A-8590-9F0E2F87A31C";
layerId = "178A3AA5-3E2F-4B9F-B78C-91AFE45F2C6D";
width = 600;
},
{
associatedMasterId = "BDF0B11D-FE68-4F4A-8590-9F0E2F87A31C";
components = (
{
name = zero;
}
);
layerId = "2C45C617-886C-48C8-93C6-811A5C03FD20";
width = 600;
},
{
associatedMasterId = "BDF0B11D-FE68-4F4A-8590-9F0E2F87A31C";
layerId = "CD740F51-25FF-459A-AA3D-F130AC1BD218";
paths = (
{
closed = 1;
nodes = (
"134 603 OFFCURVE",
"21 458 OFFCURVE",
"23 296 CURVE SMOOTH",
"25 120 OFFCURVE",
"142 -13 OFFCURVE",
"300 -13 CURVE SMOOTH",
"458 -13 OFFCURVE",
"577 120 OFFCURVE",
"577 296 CURVE SMOOTH",
"577 458 OFFCURVE",
"466 603 OFFCURVE",
"300 603 CURVE SMOOTH"
);
},
{
closed = 1;
nodes = (
"165 16 OFFCURVE",
"51 128 OFFCURVE",
"53 296 CURVE SMOOTH",
"55 463 OFFCURVE",
"166 572 OFFCURVE",
"300 573 CURVE SMOOTH",
"434 574 OFFCURVE",
"545 463 OFFCURVE",
"547 296 CURVE SMOOTH",
"549 128 OFFCURVE",
"435 18 OFFCURVE",
"300 17 CURVE SMOOTH"
);
}
);
width = 600;
}
);
leftKerningGroup = O;
rightKerningGroup = O;
unicode = 004F;
},
{
glyphname = Oacute;
lastChange = "2018-06-03 19:07:56 +0000";
layers = (
{
components = (
{
name = O;
},
{
name = acute;
transform = "{1, 0, 0, 1, 18, 159.6}";
}
);
layerId = "BDF0B11D-FE68-4F4A-8590-9F0E2F87A31C";
width = 600;
},
{
associatedMasterId = "BDF0B11D-FE68-4F4A-8590-9F0E2F87A31C";
layerId = "503A1C46-F934-44FB-A59A-495C9A2692C7";
width = 600;
},
{
associatedMasterId = "BDF0B11D-FE68-4F4A-8590-9F0E2F87A31C";
layerId = "D665805D-61DF-42D2-80F5-880565CCB1A0";
width = 600;
},
{
associatedMasterId = "BDF0B11D-FE68-4F4A-8590-9F0E2F87A31C";
layerId = "693FD62F-EB1D-4CC9-AB7C-A2E65219A9DD";
width = 600;
},
{
associatedMasterId = "BDF0B11D-FE68-4F4A-8590-9F0E2F87A31C";
layerId = "462C6B54-13B1-4453-A073-9F21C99FD186";
width = 600;
},
{
associatedMasterId = "BDF0B11D-FE68-4F4A-8590-9F0E2F87A31C";
layerId = "DC63014A-2AF3-46B4-BBF7-CD87592C36FA";
width = 600;
},
{
associatedMasterId = "BDF0B11D-FE68-4F4A-8590-9F0E2F87A31C";
layerId = "EC7BB424-659A-4B6E-97F6-FE42FEB5E273";
width = 600;
},
{
associatedMasterId = "BDF0B11D-FE68-4F4A-8590-9F0E2F87A31C";
layerId = "CD740F51-25FF-459A-AA3D-F130AC1BD218";
paths = (
{
closed = 1;
nodes = (
"138 636 LINE",
"134 656 LINE",
"443 737 LINE",
"452 699 LINE"
);
},
{
closed = 1;
nodes = (
"134 603 OFFCURVE",
"21 458 OFFCURVE",
"23 296 CURVE SMOOTH",
"25 120 OFFCURVE",
"142 -13 OFFCURVE",
"300 -13 CURVE SMOOTH",
"458 -13 OFFCURVE",
"577 120 OFFCURVE",
"577 296 CURVE SMOOTH",
"577 458 OFFCURVE",
"466 603 OFFCURVE",
"300 603 CURVE SMOOTH"
);
},
{
closed = 1;
nodes = (
"165 16 OFFCURVE",
"51 128 OFFCURVE",
"53 296 CURVE SMOOTH",
"55 463 OFFCURVE",
"166 572 OFFCURVE",
"300 573 CURVE SMOOTH",
"434 574 OFFCURVE",
"545 463 OFFCURVE",
"547 296 CURVE SMOOTH",
"549 128 OFFCURVE",
"435 18 OFFCURVE",
"300 17 CURVE SMOOTH"
);
}
);
width = 600;
}
);
unicode = 00D3;
},
{
glyphname = Ocircumflex;
lastChange = "2018-06-03 19:07:56 +0000";
layers = (
{
components = (
{
name = O;
},
{
name = circumflex;
transform = "{1, 0, 0, 1, -13.2, 159.6}";
}
);
layerId = "BDF0B11D-FE68-4F4A-8590-9F0E2F87A31C";
width = 600;
},
{
associatedMasterId = "BDF0B11D-FE68-4F4A-8590-9F0E2F87A31C";
layerId = "503A1C46-F934-44FB-A59A-495C9A2692C7";
width = 600;
},
{
associatedMasterId = "BDF0B11D-FE68-4F4A-8590-9F0E2F87A31C";
layerId = "D665805D-61DF-42D2-80F5-880565CCB1A0";
width = 600;
},
{
associatedMasterId = "BDF0B11D-FE68-4F4A-8590-9F0E2F87A31C";
layerId = "693FD62F-EB1D-4CC9-AB7C-A2E65219A9DD";
width = 600;
},
{
associatedMasterId = "BDF0B11D-FE68-4F4A-8590-9F0E2F87A31C";
layerId = "8675BB7D-161A-4274-9968-9AFEC0513E5C";
width = 600;
},
{
associatedMasterId = "BDF0B11D-FE68-4F4A-8590-9F0E2F87A31C";
layerId = "20A4C3BE-0AA3-46A3-B2EF-12FD128977C9";
width = 600;
},
{
associatedMasterId = "BDF0B11D-FE68-4F4A-8590-9F0E2F87A31C";
layerId = "CA2A767F-C60A-499A-8FED-A826706DF5C1";
width = 600;
},
{
associatedMasterId = "BDF0B11D-FE68-4F4A-8590-9F0E2F87A31C";
layerId = "CD740F51-25FF-459A-AA3D-F130AC1BD218";
paths = (
{
closed = 1;
nodes = (
"94 642 LINE",
"299 748 LINE",
"505 642 LINE",
"499 629 LINE",
"299 712 LINE",
"99 629 LINE"
);
},
{
closed = 1;
nodes = (
"134 603 OFFCURVE",
"21 458 OFFCURVE",
"23 296 CURVE SMOOTH",
"25 120 OFFCURVE",
"142 -13 OFFCURVE",
"300 -13 CURVE SMOOTH",
"458 -13 OFFCURVE",
"577 120 OFFCURVE",
"577 296 CURVE SMOOTH",
"577 458 OFFCURVE",
"466 603 OFFCURVE",
"300 603 CURVE SMOOTH"
);
},
{
closed = 1;
nodes = (
"165 16 OFFCURVE",
"51 128 OFFCURVE",
"53 296 CURVE SMOOTH",
"55 463 OFFCURVE",
"166 572 OFFCURVE",
"300 573 CURVE SMOOTH",
"434 574 OFFCURVE",
"545 463 OFFCURVE",
"547 296 CURVE SMOOTH",
"549 128 OFFCURVE",
"435 18 OFFCURVE",
"300 17 CURVE SMOOTH"
);
}
);
width = 600;
}
);
unicode = 00D4;
},
{
glyphname = Odieresis;
lastChange = "2018-06-03 19:07:56 +0000";
layers = (
{
components = (
{
name = O;
},
{
name = dieresis;
transform = "{1, 0, 0, 1, 16.8, 159.6}";
}
);
layerId = "BDF0B11D-FE68-4F4A-8590-9F0E2F87A31C";
width = 600;
},
{
associatedMasterId = "BDF0B11D-FE68-4F4A-8590-9F0E2F87A31C";
layerId = "503A1C46-F934-44FB-A59A-495C9A2692C7";
width = 600;
},
{
associatedMasterId = "BDF0B11D-FE68-4F4A-8590-9F0E2F87A31C";
layerId = "D665805D-61DF-42D2-80F5-880565CCB1A0";
width = 600;
},
{
associatedMasterId = "BDF0B11D-FE68-4F4A-8590-9F0E2F87A31C";
layerId = "693FD62F-EB1D-4CC9-AB7C-A2E65219A9DD";
width = 600;
},
{
associatedMasterId = "BDF0B11D-FE68-4F4A-8590-9F0E2F87A31C";
layerId = "2C08538F-ECBC-40DA-BBEB-C82DF2F00756";
width = 600;
},
{
associatedMasterId = "BDF0B11D-FE68-4F4A-8590-9F0E2F87A31C";
layerId = "AD71EB86-01C7-4A7C-9116-12048297BB03";
width = 600;
},
{
associatedMasterId = "BDF0B11D-FE68-4F4A-8590-9F0E2F87A31C";
layerId = "7B727CE3-3D85-4E90-AFD2-EA21AE24DB07";
width = 600;
},
{
associatedMasterId = "BDF0B11D-FE68-4F4A-8590-9F0E2F87A31C";
layerId = "CD740F51-25FF-459A-AA3D-F130AC1BD218";
paths = (
{
closed = 1;
nodes = (
"221 642 OFFCURVE",
"236 657 OFFCURVE",
"236 676 CURVE SMOOTH",
"236 695 OFFCURVE",
"221 710 OFFCURVE",
"203 710 CURVE SMOOTH",
"184 710 OFFCURVE",
"169 695 OFFCURVE",
"169 676 CURVE SMOOTH",
"169 657 OFFCURVE",
"184 642 OFFCURVE",
"203 642 CURVE SMOOTH"
);
},
{
closed = 1;
nodes = (
"402 642 OFFCURVE",
"417 657 OFFCURVE",
"417 676 CURVE SMOOTH",
"417 695 OFFCURVE",
"402 710 OFFCURVE",
"384 710 CURVE SMOOTH",
"365 710 OFFCURVE",
"350 695 OFFCURVE",
"350 676 CURVE SMOOTH",
"350 657 OFFCURVE",
"365 642 OFFCURVE",
"384 642 CURVE SMOOTH"
);
},
{
closed = 1;
nodes = (
"134 603 OFFCURVE",
"21 458 OFFCURVE",
"23 296 CURVE SMOOTH",
"25 120 OFFCURVE",
"142 -13 OFFCURVE",
"300 -13 CURVE SMOOTH",
"458 -13 OFFCURVE",
"577 120 OFFCURVE",
"577 296 CURVE SMOOTH",
"577 458 OFFCURVE",
"466 603 OFFCURVE",
"300 603 CURVE SMOOTH"
);
},
{
closed = 1;
nodes = (
"165 16 OFFCURVE",
"51 128 OFFCURVE",
"53 296 CURVE SMOOTH",
"55 463 OFFCURVE",
"166 572 OFFCURVE",
"300 573 CURVE SMOOTH",
"434 574 OFFCURVE",
"545 463 OFFCURVE",
"547 296 CURVE SMOOTH",
"549 128 OFFCURVE",
"435 18 OFFCURVE",
"300 17 CURVE SMOOTH"
);
}
);
width = 600;
}
);
unicode = 00D6;
},
{
glyphname = Ograve;
lastChange = "2018-06-03 19:07:56 +0000";
layers = (
{
components = (
{
name = O;
},
{
name = grave;
transform = "{1, 0, 0, 1, 63.6, 159.6}";
}
);
layerId = "BDF0B11D-FE68-4F4A-8590-9F0E2F87A31C";
width = 600;
},
{
associatedMasterId = "BDF0B11D-FE68-4F4A-8590-9F0E2F87A31C";
layerId = "503A1C46-F934-44FB-A59A-495C9A2692C7";
width = 600;
},
{
associatedMasterId = "BDF0B11D-FE68-4F4A-8590-9F0E2F87A31C";
layerId = "D665805D-61DF-42D2-80F5-880565CCB1A0";
width = 600;
},
{
associatedMasterId = "BDF0B11D-FE68-4F4A-8590-9F0E2F87A31C";
layerId = "693FD62F-EB1D-4CC9-AB7C-A2E65219A9DD";
width = 600;
},
{
associatedMasterId = "BDF0B11D-FE68-4F4A-8590-9F0E2F87A31C";
layerId = "3F773019-E57C-4BCF-93DE-5A8E08D497EF";
width = 600;
},
{
associatedMasterId = "BDF0B11D-FE68-4F4A-8590-9F0E2F87A31C";
layerId = "90C46B79-84AD-4841-A033-371883D065A1";
width = 600;
},
{
associatedMasterId = "BDF0B11D-FE68-4F4A-8590-9F0E2F87A31C";
layerId = "88B23E19-3861-4B1E-9BC2-7251E8C3FDAB";
width = 600;
},
{
associatedMasterId = "BDF0B11D-FE68-4F4A-8590-9F0E2F87A31C";
layerId = "CD740F51-25FF-459A-AA3D-F130AC1BD218";
paths = (
{
closed = 1;
nodes = (
"143 737 LINE",
"452 656 LINE",
"448 636 LINE",
"134 699 LINE"
);
},
{
closed = 1;
nodes = (
"134 603 OFFCURVE",
"21 458 OFFCURVE",
"23 296 CURVE SMOOTH",
"25 120 OFFCURVE",
"142 -13 OFFCURVE",
"300 -13 CURVE SMOOTH",
"458 -13 OFFCURVE",
"577 120 OFFCURVE",
"577 296 CURVE SMOOTH",
"577 458 OFFCURVE",
"466 603 OFFCURVE",
"300 603 CURVE SMOOTH"
);
},
{
closed = 1;
nodes = (
"165 16 OFFCURVE",
"51 128 OFFCURVE",
"53 296 CURVE SMOOTH",
"55 463 OFFCURVE",
"166 572 OFFCURVE",
"300 573 CURVE SMOOTH",
"434 574 OFFCURVE",
"545 463 OFFCURVE",
"547 296 CURVE SMOOTH",
"549 128 OFFCURVE",
"435 18 OFFCURVE",
"300 17 CURVE SMOOTH"
);
}
);
width = 600;
}
);
unicode = 00D2;
},
{
glyphname = Oslash;
lastChange = "2018-06-03 19:07:56 +0000";
layers = (
{
components = (
{
name = O;
},
{
name = slash;
transform = "{1, 0, 0, 1, 17, 0}";
}
);
layerId = "BDF0B11D-FE68-4F4A-8590-9F0E2F87A31C";
width = 600;
},
{
associatedMasterId = "BDF0B11D-FE68-4F4A-8590-9F0E2F87A31C";
layerId = "503A1C46-F934-44FB-A59A-495C9A2692C7";
width = 600;
},
{
associatedMasterId = "BDF0B11D-FE68-4F4A-8590-9F0E2F87A31C";
layerId = "D665805D-61DF-42D2-80F5-880565CCB1A0";
width = 600;
},
{
associatedMasterId = "BDF0B11D-FE68-4F4A-8590-9F0E2F87A31C";
layerId = "693FD62F-EB1D-4CC9-AB7C-A2E65219A9DD";
width = 600;
},
{
associatedMasterId = "BDF0B11D-FE68-4F4A-8590-9F0E2F87A31C";
layerId = "D1C6A449-D357-4560-9BEE-F3A90DE5F7E6";
width = 600;
},
{
associatedMasterId = "BDF0B11D-FE68-4F4A-8590-9F0E2F87A31C";
layerId = "ED8BA115-B681-4138-BAC1-C2C315F3250B";
width = 600;
},
{
associatedMasterId = "BDF0B11D-FE68-4F4A-8590-9F0E2F87A31C";
layerId = "7653CE2E-6437-43C5-B61B-F5AB18121529";
width = 600;
},
{
associatedMasterId = "BDF0B11D-FE68-4F4A-8590-9F0E2F87A31C";
layerId = "CD740F51-25FF-459A-AA3D-F130AC1BD218";
paths = (
{
closed = 1;
nodes = (
"525 584 LINE",
"502 603 LINE",
"452 532 LINE",
"410 568 OFFCURVE",
"359 590 OFFCURVE",
"300 590 CURVE SMOOTH",
"152 590 OFFCURVE",
"54 449 OFFCURVE",
"56 296 CURVE SMOOTH",
"57 210 OFFCURVE",
"84 135 OFFCURVE",
"130 81 CURVE",
"76 6 LINE",
"99 -13 LINE",
"151 60 LINE",
"191 23 OFFCURVE",
"242 1 OFFCURVE",
"300 1 CURVE SMOOTH",
"441 1 OFFCURVE",
"554 130 OFFCURVE",
"554 296 CURVE SMOOTH",
"554 378 OFFCURVE",
"524 456 OFFCURVE",
"473 511 CURVE"
);
},
{
closed = 1;
nodes = (
"86 451 OFFCURVE",
"183 559 OFFCURVE",
"300 560 CURVE SMOOTH",
"349 560 OFFCURVE",
"396 541 OFFCURVE",
"434 508 CURVE",
"148 106 LINE",
"110 153 OFFCURVE",
"86 219 OFFCURVE",
"86 296 CURVE SMOOTH"
);
},
{
closed = 1;
nodes = (
"251 31 OFFCURVE",
"205 50 OFFCURVE",
"168 84 CURVE",
"456 487 LINE",
"497 440 OFFCURVE",
"524 374 OFFCURVE",
"524 296 CURVE SMOOTH",
"524 139 OFFCURVE",
"418 32 OFFCURVE",
"300 31 CURVE SMOOTH"
);
}
);
width = 600;
}
);
unicode = 00D8;
},
{
glyphname = Otilde;
lastChange = "2018-06-03 19:07:56 +0000";
layers = (
{
components = (
{
name = zero;
}
);
layerId = "BDF0B11D-FE68-4F4A-8590-9F0E2F87A31C";
width = 600;
},
{
associatedMasterId = "BDF0B11D-FE68-4F4A-8590-9F0E2F87A31C";
layerId = "503A1C46-F934-44FB-A59A-495C9A2692C7";
width = 600;
},
{
associatedMasterId = "BDF0B11D-FE68-4F4A-8590-9F0E2F87A31C";
layerId = "D665805D-61DF-42D2-80F5-880565CCB1A0";
width = 600;
},
{
associatedMasterId = "BDF0B11D-FE68-4F4A-8590-9F0E2F87A31C";
components = (
{
name = zero;
}
);
layerId = "693FD62F-EB1D-4CC9-AB7C-A2E65219A9DD";
width = 600;
},
{
associatedMasterId = "BDF0B11D-FE68-4F4A-8590-9F0E2F87A31C";
layerId = "9C8462DE-0EF4-4E3B-98B7-AA6668A56B4C";
width = 600;
},
{
associatedMasterId = "BDF0B11D-FE68-4F4A-8590-9F0E2F87A31C";
layerId = "66A244D4-B4D3-4F81-9046-062353C3E616";
width = 600;
},
{
associatedMasterId = "BDF0B11D-FE68-4F4A-8590-9F0E2F87A31C";
components = (
{
name = zero;
}
);
layerId = "CDA4A007-B13F-451D-A797-ED042FB0C5AC";
width = 600;
},
{
associatedMasterId = "BDF0B11D-FE68-4F4A-8590-9F0E2F87A31C";
layerId = "CD740F51-25FF-459A-AA3D-F130AC1BD218";
paths = (
{
closed = 1;
nodes = (
"316 682 OFFCURVE",
"299 755 OFFCURVE",
"227 755 CURVE SMOOTH",
"198 755 OFFCURVE",
"161 732 OFFCURVE",
"113 677 CURVE",
"134 657 LINE",
"174 704 OFFCURVE",
"200 725 OFFCURVE",
"227 725 CURVE SMOOTH",
"280 725 OFFCURVE",
"297 652 OFFCURVE",
"369 652 CURVE SMOOTH",
"398 652 OFFCURVE",
"435 673 OFFCURVE",
"482 729 CURVE",
"461 749 LINE",
"422 701 OFFCURVE",
"396 682 OFFCURVE",
"369 682 CURVE SMOOTH"
);
},
{
closed = 1;
nodes = (
"134 603 OFFCURVE",
"21 458 OFFCURVE",
"23 296 CURVE SMOOTH",
"25 120 OFFCURVE",
"142 -13 OFFCURVE",
"300 -13 CURVE SMOOTH",
"458 -13 OFFCURVE",
"577 120 OFFCURVE",
"577 296 CURVE SMOOTH",
"577 458 OFFCURVE",
"466 603 OFFCURVE",
"300 603 CURVE SMOOTH"
);
},
{
closed = 1;
nodes = (
"165 16 OFFCURVE",
"51 128 OFFCURVE",
"53 296 CURVE SMOOTH",
"55 463 OFFCURVE",
"166 572 OFFCURVE",
"300 573 CURVE SMOOTH",
"434 574 OFFCURVE",
"545 463 OFFCURVE",
"547 296 CURVE SMOOTH",
"549 128 OFFCURVE",
"435 18 OFFCURVE",
"300 17 CURVE SMOOTH"
);
}
);
width = 600;
}
);
leftKerningGroup = O;
rightKerningGroup = O;
unicode = 00D5;
},
{
glyphname = OE;
lastChange = "2018-06-03 19:07:56 +0000";
layers = (
{
anchors = (
{
name = top;
position = "{430.8, 590.4}";
}
);
layerId = "BDF0B11D-FE68-4F4A-8590-9F0E2F87A31C";
paths = (
{
closed = 1;
nodes = (
"324 590.4 LINE",
"211 589 OFFCURVE",
"92 511 OFFCURVE",
"37.2 355.2 CURVE SMOOTH",
"-21 190 OFFCURVE",
"68 0 OFFCURVE",
"213.6 0 CURVE",
"212.4 30 LINE",
"85 30 OFFCURVE",
"17 207 OFFCURVE",
"67.2 349.2 CURVE SMOOTH",
"119 495 OFFCURVE",
"224 558 OFFCURVE",
"316.8 558 CURVE"
);
},
{
closed = 1;
nodes = (
"321.6 590.4 LINE",
"208.8 30 LINE",
"208.8 30 LINE",
"207.6 0 LINE",
"520.8 0 LINE",
"565.2 210 LINE",
"535.2 213.6 LINE",
"495.6 30 LINE",
"238.8 30 LINE",
"289.2 279.6 LINE",
"450 279.6 LINE",
"429.6 189.6 LINE",
"460.8 189.6 LINE",
"504 380.4 LINE",
"472.8 380.4 LINE",
"457.2 309.6 LINE",
"295.2 309.6 LINE",
"346.8 560.4 LINE",
"608.4 560.4 LINE",
"571.2 380.4 LINE",
"602.4 380.4 LINE",
"645.6 590.4 LINE"
);
}
);
width = 600;
},
{
associatedMasterId = "BDF0B11D-FE68-4F4A-8590-9F0E2F87A31C";
layerId = "503A1C46-F934-44FB-A59A-495C9A2692C7";
width = 600;
},
{
associatedMasterId = "BDF0B11D-FE68-4F4A-8590-9F0E2F87A31C";
layerId = "D665805D-61DF-42D2-80F5-880565CCB1A0";
width = 600;
},
{
associatedMasterId = "BDF0B11D-FE68-4F4A-8590-9F0E2F87A31C";
layerId = "693FD62F-EB1D-4CC9-AB7C-A2E65219A9DD";
width = 600;
},
{
associatedMasterId = "BDF0B11D-FE68-4F4A-8590-9F0E2F87A31C";
layerId = "66A09076-2E94-4751-B475-4382569D8A35";
width = 600;
},
{
associatedMasterId = "BDF0B11D-FE68-4F4A-8590-9F0E2F87A31C";
layerId = "CE73056A-84F7-4BB0-BDFF-7D2AA2E8AF60";
width = 600;
},
{
associatedMasterId = "BDF0B11D-FE68-4F4A-8590-9F0E2F87A31C";
layerId = "C2753DC9-4D97-4A67-931E-776A16555FEA";
width = 600;
},
{
associatedMasterId = "BDF0B11D-FE68-4F4A-8590-9F0E2F87A31C";
layerId = "CD740F51-25FF-459A-AA3D-F130AC1BD218";
paths = (
{
closed = 1;
nodes = (
"558 83 LINE",
"553 17 LINE",
"310 17 LINE",
"310 277 LINE",
"449 277 LINE",
"449 162 LINE",
"479 162 LINE",
"479 427 LINE",
"449 427 LINE",
"449 307 LINE",
"310 307 LINE",
"310 573 LINE",
"553 573 LINE",
"558 504 LINE",
"588 507 LINE",
"580 603 LINE",
"280 603 LINE SMOOTH",
"120 603 OFFCURVE",
"9 465 OFFCURVE",
"9 295 CURVE SMOOTH",
"9 125 OFFCURVE",
"120 -13 OFFCURVE",
"280 -13 CURVE SMOOTH",
"580 -13 LINE",
"588 80 LINE"
);
},
{
closed = 1;
nodes = (
"280 17 LINE",
"142 17 OFFCURVE",
"39 140 OFFCURVE",
"39 295 CURVE SMOOTH",
"39 450 OFFCURVE",
"142 573 OFFCURVE",
"280 573 CURVE"
);
}
);
width = 600;
}
);
unicode = 0152;
},
{
glyphname = P;
lastChange = "2018-06-03 19:07:56 +0000";
layers = (
{
components = (
{
name = Swash;
transform = "{1, 0, 0, 1, -154, 0}";
}
);
layerId = "BDF0B11D-FE68-4F4A-8590-9F0E2F87A31C";
paths = (
{
closed = 1;
nodes = (
"591 318 OFFCURVE",
"590.4 418.8 CURVE SMOOTH",
"590 512 OFFCURVE",
"529 590 OFFCURVE",
"370.8 590.4 CURVE SMOOTH",
"213.6 590.4 LINE",
"207.6 560.4 LINE",
"244.8 560.4 LINE",
"132 30 LINE",
"42 30 LINE",
"36 0 LINE",
"253.2 0 LINE",
"259.2 30 LINE",
"162 30 LINE",
"206.4 240 LINE",
"345.6 240 LINE SMOOTH",
"524 240 OFFCURVE"
);
},
{
closed = 1;
nodes = (
"213.6 270 LINE",
"274.8 560.4 LINE",
"364.8 560.4 LINE SMOOTH",
"514 560 OFFCURVE",
"564 491 OFFCURVE",
"560.4 420 CURVE SMOOTH",
"556 334 OFFCURVE",
"501 270 OFFCURVE",
"352.8 270 CURVE SMOOTH"
);
}
);
width = 600;
},
{
associatedMasterId = "BDF0B11D-FE68-4F4A-8590-9F0E2F87A31C";
layerId = "503A1C46-F934-44FB-A59A-495C9A2692C7";
width = 600;
},
{
associatedMasterId = "BDF0B11D-FE68-4F4A-8590-9F0E2F87A31C";
layerId = "D665805D-61DF-42D2-80F5-880565CCB1A0";
width = 600;
},
{
associatedMasterId = "BDF0B11D-FE68-4F4A-8590-9F0E2F87A31C";
layerId = "693FD62F-EB1D-4CC9-AB7C-A2E65219A9DD";
paths = (
{
closed = 1;
nodes = (
"18 0 LINE",
"18 33 LINE",
"105 33 LINE",
"218 558 LINE",
"121 558 LINE",
"121 591 LINE",
"400 591 LINE",
"522 591 OFFCURVE",
"618 518 OFFCURVE",
"597 403 CURVE SMOOTH",
"577 293 OFFCURVE",
"491 237 OFFCURVE",
"400 237 CURVE",
"187 236 LINE",
"143 33 LINE",
"245 33 LINE",
"245 0 LINE"
);
},
{
closed = 1;
nodes = (
"400 270 LINE SMOOTH",
"472 270 OFFCURVE",
"543 312 OFFCURVE",
"563 403 CURVE SMOOTH",
"584 499 OFFCURVE",
"504 558 OFFCURVE",
"400 558 CURVE SMOOTH",
"252 558 LINE",
"191 270 LINE"
);
}
);
width = 600;
},
{
associatedMasterId = "BDF0B11D-FE68-4F4A-8590-9F0E2F87A31C";
layerId = "801528C7-DC62-4687-8F44-D6FBF447FF6B";
width = 600;
},
{
associatedMasterId = "BDF0B11D-FE68-4F4A-8590-9F0E2F87A31C";
layerId = "4576C2CF-81EE-497C-A799-B5DA111FAE54";
width = 600;
},
{
associatedMasterId = "BDF0B11D-FE68-4F4A-8590-9F0E2F87A31C";
layerId = "D426C1B6-1080-493F-8BEB-632703530B56";
paths = (
{
closed = 1;
nodes = (
"18 0 LINE",
"18 33 LINE",
"105 33 LINE",
"218 558 LINE",
"121 558 LINE",
"121 591 LINE",
"400 591 LINE",
"522 591 OFFCURVE",
"618 518 OFFCURVE",
"597 403 CURVE SMOOTH",
"577 293 OFFCURVE",
"491 237 OFFCURVE",
"400 237 CURVE",
"187 236 LINE",
"143 33 LINE",
"245 33 LINE",
"245 0 LINE"
);
},
{
closed = 1;
nodes = (
"400 270 LINE SMOOTH",
"472 270 OFFCURVE",
"543 312 OFFCURVE",
"563 403 CURVE SMOOTH",
"584 499 OFFCURVE",
"504 558 OFFCURVE",
"400 558 CURVE SMOOTH",
"252 558 LINE",
"191 270 LINE"
);
}
);
width = 600;
},
{
associatedMasterId = "BDF0B11D-FE68-4F4A-8590-9F0E2F87A31C";
layerId = "D917AC5A-DFB1-4C8E-AAD4-8D3D4F9B102D";
paths = (
{
closed = 1;
nodes = (
"8 0 LINE",
"8.4 30 LINE",
"94.8 30 LINE",
"209 561 LINE",
"211 591 LINE",
"390 591 LINE",
"512 591 OFFCURVE",
"608 518 OFFCURVE",
"587 403 CURVE SMOOTH",
"567 293 OFFCURVE",
"481 237 OFFCURVE",
"390 237 CURVE",
"177 236 LINE",
"133.2 30 LINE",
"235.2 30 LINE",
"235 0 LINE"
);
},
{
closed = 1;
nodes = (
"390 270 LINE SMOOTH",
"462 270 OFFCURVE",
"533 312 OFFCURVE",
"553 403 CURVE SMOOTH",
"574 499 OFFCURVE",
"494 558 OFFCURVE",
"390 558 CURVE SMOOTH",
"242 558 LINE",
"181 270 LINE"
);
},
{
closed = 1;
nodes = (
"133 564 OFFCURVE",
"88 575 CURVE",
"102 603 LINE",
"152 592 OFFCURVE",
"202 591 OFFCURVE",
"259 591 CURVE",
"247 559 LINE",
"167 559 OFFCURVE"
);
}
);
width = 600;
},
{
associatedMasterId = "BDF0B11D-FE68-4F4A-8590-9F0E2F87A31C";
layerId = "B473066F-2514-48C8-8F5D-0D9E57EB152F";
paths = (
{
closed = 1;
nodes = (
"570 521 OFFCURVE",
"514 590 OFFCURVE",
"342 590.4 CURVE SMOOTH",
"100.8 590.4 LINE",
"100.8 560.4 LINE",
"162 560.4 LINE",
"162 30 LINE",
"73.2 30 LINE",
"73.2 0 LINE",
"301.2 0 LINE",
"301.2 30 LINE",
"192 30 LINE",
"192 240 LINE",
"402 240 LINE SMOOTH",
"496 240 OFFCURVE",
"570 293 OFFCURVE",
"570 403.2 CURVE SMOOTH"
);
},
{
closed = 1;
nodes = (
"192 270 LINE",
"192 560.4 LINE",
"342 560.4 LINE SMOOTH",
"498 560 OFFCURVE",
"540 499 OFFCURVE",
"540 403.2 CURVE SMOOTH",
"540 312 OFFCURVE",
"481 270 OFFCURVE",
"402 270 CURVE SMOOTH"
);
}
);
width = 600;
},
{
associatedMasterId = "BDF0B11D-FE68-4F4A-8590-9F0E2F87A31C";
layerId = "6C731A13-4D32-4006-B8F5-C7861A3A1DA6";
paths = (
{
closed = 1;
nodes = (
"618 521 OFFCURVE",
"577 590 OFFCURVE",
"404.4 590.4 CURVE SMOOTH",
"115.2 590.4 LINE",
"109.2 560.4 LINE",
"218.4 560.4 LINE",
"105.6 30 LINE",
"16.8 30 LINE",
"10.8 0 LINE",
"238.8 0 LINE",
"244.8 30 LINE",
"135.6 30 LINE",
"180 240 LINE",
"390 240 LINE SMOOTH",
"484 240 OFFCURVE",
"570 293 OFFCURVE",
"592.8 403.2 CURVE SMOOTH"
);
},
{
closed = 1;
nodes = (
"187.2 270 LINE",
"248.4 560.4 LINE",
"398.4 560.4 LINE SMOOTH",
"568 560 OFFCURVE",
"583 505 OFFCURVE",
"562.8 404.4 CURVE SMOOTH",
"546 324 OFFCURVE",
"476 270 OFFCURVE",
"397.2 270 CURVE SMOOTH"
);
}
);
width = 600;
},
{
associatedMasterId = "BDF0B11D-FE68-4F4A-8590-9F0E2F87A31C";
components = (
{
name = Swash;
transform = "{1, 0, 0, 1, -180, 0}";
}
);
layerId = "D9234D7B-747D-4136-AFF6-6CE6AD8D1B54";
paths = (
{
closed = 1;
nodes = (
"618 521 OFFCURVE",
"577 590 OFFCURVE",
"404.4 590.4 CURVE SMOOTH",
"187.2 590.4 LINE",
"181.2 560.4 LINE",
"218.4 560.4 LINE",
"105.6 30 LINE",
"16.8 30 LINE",
"10.8 0 LINE",
"238.8 0 LINE",
"244.8 30 LINE",
"135.6 30 LINE",
"180 240 LINE",
"390 240 LINE SMOOTH",
"484 240 OFFCURVE",
"570 293 OFFCURVE",
"592.8 403.2 CURVE SMOOTH"
);
},
{
closed = 1;
nodes = (
"187.2 270 LINE",
"248.4 560.4 LINE",
"398.4 560.4 LINE SMOOTH",
"568 560 OFFCURVE",
"583 505 OFFCURVE",
"562.8 404.4 CURVE SMOOTH",
"546 324 OFFCURVE",
"476 270 OFFCURVE",
"397.2 270 CURVE SMOOTH"
);
}
);
width = 600;
},
{
associatedMasterId = "BDF0B11D-FE68-4F4A-8590-9F0E2F87A31C";
components = (
{
name = Swash;
transform = "{1, 0, 0, 1, -154, 0}";
}
);
layerId = "7C7039FA-EC63-4B8F-A16B-6928B29A3E6D";
paths = (
{
closed = 1;
nodes = (
"590 330 OFFCURVE",
"590.4 418.8 CURVE SMOOTH",
"590 505 OFFCURVE",
"515 590 OFFCURVE",
"346.8 590.4 CURVE SMOOTH",
"213.6 590.4 LINE",
"207.6 560.4 LINE",
"244.8 560.4 LINE",
"132 30 LINE",
"42 30 LINE",
"36 0 LINE",
"253.2 0 LINE",
"259.2 30 LINE",
"162 30 LINE",
"206.4 240 LINE",
"332.4 240 LINE SMOOTH",
"507 240 OFFCURVE"
);
},
{
closed = 1;
nodes = (
"213.6 270 LINE",
"274.8 560.4 LINE",
"340.8 560.4 LINE SMOOTH",
"500 560 OFFCURVE",
"562 491 OFFCURVE",
"560.4 420 CURVE SMOOTH",
"562 346 OFFCURVE",
"484 270 OFFCURVE",
"339.6 270 CURVE SMOOTH"
);
}
);
width = 600;
},
{
associatedMasterId = "BDF0B11D-FE68-4F4A-8590-9F0E2F87A31C";
layerId = "CD740F51-25FF-459A-AA3D-F130AC1BD218";
paths = (
{
closed = 1;
nodes = (
"303 593 OFFCURVE",
"210 592 OFFCURVE",
"167 590 CURVE",
"125 591 OFFCURVE",
"88 593 OFFCURVE",
"45 603 CURVE",
"38 575 LINE",
"67 569 OFFCURVE",
"108 561 OFFCURVE",
"139 560 CURVE",
"139 30 LINE",
"38 30 LINE",
"38 0 LINE",
"280 0 LINE",
"280 30 LINE",
"169 30 LINE",
"169 220 LINE",
"197 220 OFFCURVE",
"269 218 OFFCURVE",
"312 218 CURVE SMOOTH",
"460 218 OFFCURVE",
"555 282 OFFCURVE",
"556 403 CURVE SMOOTH",
"557 532 OFFCURVE",
"454 593 OFFCURVE",
"331 593 CURVE SMOOTH"
);
},
{
closed = 1;
nodes = (
"272 248 OFFCURVE",
"217 250 OFFCURVE",
"169 250 CURVE",
"169 559 LINE",
"196 559 OFFCURVE",
"307 563 OFFCURVE",
"331 563 CURVE SMOOTH",
"434 563 OFFCURVE",
"526 517 OFFCURVE",
"526 403 CURVE SMOOTH",
"526 296 OFFCURVE",
"437 248 OFFCURVE",
"312 248 CURVE SMOOTH"
);
}
);
width = 600;
}
);
unicode = 0050;
userData = {
com.typemytype.robofont.guides = (
{
angle = 257.97;
isGlobal = 0;
magnetic = 5;
x = 186;
y = 238;
}
);
};
},
{
glyphname = Thorn;
lastChange = "2018-06-03 19:07:56 +0000";
layers = (
{
components = (
{
name = Swash;
transform = "{1, 0, 0, 1, -144, 0}";
}
);
layerId = "BDF0B11D-FE68-4F4A-8590-9F0E2F87A31C";
paths = (
{
closed = 1;
nodes = (
"403.2 560.4 LINE",
"411.6 590.4 LINE",
"226.8 590.4 LINE",
"218.4 560.4 LINE",
"255.6 560.4 LINE",
"145.2 30 LINE",
"37.2 30 LINE",
"28.8 0 LINE",
"330 0 LINE",
"338.4 30 LINE",
"176.4 30 LINE",
"199.2 140.4 LINE",
"344.4 140.4 LINE SMOOTH",
"484 140 OFFCURVE",
"595 187 OFFCURVE",
"596.4 309.6 CURVE SMOOTH",
"598 406 OFFCURVE",
"516 443 OFFCURVE",
"408 442.8 CURVE SMOOTH",
"261.6 442.8 LINE",
"285.6 560.4 LINE"
);
},
{
closed = 1;
nodes = (
"399.6 412.8 LINE SMOOTH",
"492 413 OFFCURVE",
"565 389 OFFCURVE",
"566.4 308.4 CURVE SMOOTH",
"568 208 OFFCURVE",
"464 170 OFFCURVE",
"348 170.4 CURVE SMOOTH",
"205.2 170.4 LINE",
"256.8 412.8 LINE"
);
}
);
width = 600;
},
{
associatedMasterId = "BDF0B11D-FE68-4F4A-8590-9F0E2F87A31C";
layerId = "CD740F51-25FF-459A-AA3D-F130AC1BD218";
paths = (
{
closed = 1;
nodes = (
"38 0 LINE",
"279 0 LINE",
"279 30 LINE",
"175 30 LINE",
"175 134 LINE",
"338 135 LINE SMOOTH",
"458 135 OFFCURVE",
"541 195 OFFCURVE",
"541 295 CURVE SMOOTH",
"541 395 OFFCURVE",
"458 455 OFFCURVE",
"338 455 CURVE SMOOTH",
"175 455 LINE",
"175 590 LINE",
"38 590 LINE",
"38 560 LINE",
"145 560 LINE",
"145 30 LINE",
"38 30 LINE"
);
},
{
closed = 1;
nodes = (
"175 164 LINE",
"175 425 LINE",
"338 425 LINE SMOOTH",
"435 425 OFFCURVE",
"511 381 OFFCURVE",
"511 295 CURVE SMOOTH",
"511 211 OFFCURVE",
"435 164 OFFCURVE",
"338 164 CURVE SMOOTH"
);
}
);
width = 600;
}
);
unicode = 00DE;
},
{
glyphname = Q;
lastChange = "2018-06-03 19:07:56 +0000";
layers = (
{
components = (
{
name = zero;
}
);
layerId = "BDF0B11D-FE68-4F4A-8590-9F0E2F87A31C";
paths = (
{
closed = 1;
nodes = (
"172 118 OFFCURVE",
"222 185 OFFCURVE",
"273.6 186 CURVE SMOOTH",
"321 187 OFFCURVE",
"320 110 OFFCURVE",
"303.6 34.8 CURVE SMOOTH",
"279 -78 OFFCURVE",
"316 -150 OFFCURVE",
"384 -150 CURVE SMOOTH",
"446.1 -150 OFFCURVE",
"499.8 -88.5 OFFCURVE",
"530.1 12.6 CURVE",
"502.8 21.6 LINE",
"475 -67 OFFCURVE",
"430 -120 OFFCURVE",
"384 -120 CURVE SMOOTH",
"337 -120 OFFCURVE",
"306 -60 OFFCURVE",
"333.6 34.8 CURVE SMOOTH",
"363 135 OFFCURVE",
"341 215 OFFCURVE",
"274.8 216 CURVE SMOOTH",
"204 217 OFFCURVE",
"146 138 OFFCURVE",
"123.6 34.8 CURVE",
"153.6 34.8 LINE"
);
}
);
width = 600;
},
{
associatedMasterId = "BDF0B11D-FE68-4F4A-8590-9F0E2F87A31C";
layerId = "503A1C46-F934-44FB-A59A-495C9A2692C7";
width = 600;
},
{
associatedMasterId = "BDF0B11D-FE68-4F4A-8590-9F0E2F87A31C";
layerId = "D665805D-61DF-42D2-80F5-880565CCB1A0";
width = 600;
},
{
associatedMasterId = "BDF0B11D-FE68-4F4A-8590-9F0E2F87A31C";
layerId = "693FD62F-EB1D-4CC9-AB7C-A2E65219A9DD";
paths = (
{
closed = 1;
nodes = (
"246 603 OFFCURVE",
"125 514 OFFCURVE",
"66 357 CURVE",
"4 191 OFFCURVE",
"50 -12 OFFCURVE",
"249 -12 CURVE",
"399 -12 OFFCURVE",
"528 120 OFFCURVE",
"581 256 CURVE",
"650 432 OFFCURVE",
"561 603 OFFCURVE",
"385 603 CURVE"
);
},
{
closed = 1;
nodes = (
"534 571 OFFCURVE",
"607 416 OFFCURVE",
"545 259 CURVE",
"498 140 OFFCURVE",
"380 20 OFFCURVE",
"249 20 CURVE",
"81 20 OFFCURVE",
"46 207 OFFCURVE",
"101 350 CURVE",
"155 490 OFFCURVE",
"264 571 OFFCURVE",
"385 571 CURVE"
);
},
{
closed = 1;
nodes = (
"193 111 OFFCURVE",
"233 160 OFFCURVE",
"280 158 CURVE",
"330 157 OFFCURVE",
"348 100 OFFCURVE",
"326 21 CURVE",
"297 -88 OFFCURVE",
"326 -161 OFFCURVE",
"391 -163 CURVE",
"458 -165 OFFCURVE",
"523 -92 OFFCURVE",
"550 13 CURVE",
"518 14 LINE",
"494 -73 OFFCURVE",
"447 -129 OFFCURVE",
"400 -127 CURVE",
"353 -125 OFFCURVE",
"340 -72 OFFCURVE",
"362 19 CURVE",
"388 122 OFFCURVE",
"358 191 OFFCURVE",
"289 193 CURVE",
"222 196 OFFCURVE",
"165 132 OFFCURVE",
"139 27 CURVE",
"172 26 LINE"
);
}
);
width = 600;
},
{
associatedMasterId = "BDF0B11D-FE68-4F4A-8590-9F0E2F87A31C";
layerId = "22822B4F-2697-4F79-B8CF-0C53608CC3A7";
width = 600;
},
{
associatedMasterId = "BDF0B11D-FE68-4F4A-8590-9F0E2F87A31C";
layerId = "997AF7BF-4D82-4B4A-AF29-B58C313C075B";
width = 600;
},
{
associatedMasterId = "BDF0B11D-FE68-4F4A-8590-9F0E2F87A31C";
layerId = "505410EC-BEF7-4EAE-97E7-814B22D1DEDA";
paths = (
{
closed = 1;
nodes = (
"246 603 OFFCURVE",
"125 514 OFFCURVE",
"66 357 CURVE",
"4 191 OFFCURVE",
"50 -12 OFFCURVE",
"249 -12 CURVE",
"399 -12 OFFCURVE",
"528 120 OFFCURVE",
"581 256 CURVE",
"650 432 OFFCURVE",
"561 603 OFFCURVE",
"385 603 CURVE"
);
},
{
closed = 1;
nodes = (
"534 571 OFFCURVE",
"607 416 OFFCURVE",
"545 259 CURVE",
"498 140 OFFCURVE",
"380 20 OFFCURVE",
"249 20 CURVE",
"81 20 OFFCURVE",
"46 207 OFFCURVE",
"101 350 CURVE",
"155 490 OFFCURVE",
"264 571 OFFCURVE",
"385 571 CURVE"
);
},
{
closed = 1;
nodes = (
"193 111 OFFCURVE",
"233 160 OFFCURVE",
"280 158 CURVE",
"330 157 OFFCURVE",
"348 100 OFFCURVE",
"326 21 CURVE",
"297 -88 OFFCURVE",
"326 -161 OFFCURVE",
"391 -163 CURVE",
"458 -165 OFFCURVE",
"523 -92 OFFCURVE",
"550 13 CURVE",
"518 14 LINE",
"494 -73 OFFCURVE",
"447 -129 OFFCURVE",
"400 -127 CURVE",
"353 -125 OFFCURVE",
"340 -72 OFFCURVE",
"362 19 CURVE",
"388 122 OFFCURVE",
"358 191 OFFCURVE",
"289 193 CURVE",
"222 196 OFFCURVE",
"165 132 OFFCURVE",
"139 27 CURVE",
"172 26 LINE"
);
}
);
width = 600;
},
{
associatedMasterId = "BDF0B11D-FE68-4F4A-8590-9F0E2F87A31C";
layerId = "CD740F51-25FF-459A-AA3D-F130AC1BD218";
paths = (
{
closed = 1;
nodes = (
"40 130 OFFCURVE",
"140 -5 OFFCURVE",
"288 -13 CURVE",
"288 -44 LINE SMOOTH",
"288 -130 OFFCURVE",
"327 -172 OFFCURVE",
"387 -172 CURVE SMOOTH",
"442 -172 OFFCURVE",
"484 -128 OFFCURVE",
"484 -30 CURVE",
"454 -30 LINE",
"453 -84 OFFCURVE",
"439 -142 OFFCURVE",
"387 -142 CURVE SMOOTH",
"338 -142 OFFCURVE",
"318 -106 OFFCURVE",
"318 -45 CURVE SMOOTH",
"318 -12 LINE",
"464 -3 OFFCURVE",
"561 131 OFFCURVE",
"561 295 CURVE SMOOTH",
"561 465 OFFCURVE",
"456 603 OFFCURVE",
"301 603 CURVE SMOOTH",
"146 603 OFFCURVE",
"40 465 OFFCURVE",
"40 295 CURVE SMOOTH"
);
},
{
closed = 1;
nodes = (
"70 450 OFFCURVE",
"168 573 OFFCURVE",
"301 573 CURVE SMOOTH",
"434 573 OFFCURVE",
"531 450 OFFCURVE",
"531 295 CURVE SMOOTH",
"531 147 OFFCURVE",
"442 28 OFFCURVE",
"318 18 CURVE",
"318 87 LINE SMOOTH",
"318 191 OFFCURVE",
"286 255 OFFCURVE",
"205 255 CURVE SMOOTH",
"146 255 OFFCURVE",
"110 213 OFFCURVE",
"99 156 CURVE",
"81 197 OFFCURVE",
"70 244 OFFCURVE",
"70 295 CURVE SMOOTH"
);
},
{
closed = 1;
nodes = (
"130 185 OFFCURVE",
"159 225 OFFCURVE",
"205 225 CURVE SMOOTH",
"265 225 OFFCURVE",
"288 184 OFFCURVE",
"288 87 CURVE SMOOTH",
"288 17 LINE",
"219 22 OFFCURVE",
"160 60 OFFCURVE",
"121 118 CURVE"
);
}
);
width = 600;
}
);
unicode = 0051;
},
{
glyphname = R;
lastChange = "2018-06-03 19:07:56 +0000";
layers = (
{
anchors = (
{
name = top;
position = "{360, 602.4}";
}
);
components = (
{
name = Swash;
transform = "{1, 0, 0, 1, -171, 0}";
}
);
layerId = "BDF0B11D-FE68-4F4A-8590-9F0E2F87A31C";
paths = (
{
closed = 1;
nodes = (
"211.2 560.4 LINE",
"325.2 560.4 LINE SMOOTH",
"453 560 OFFCURVE",
"497 512 OFFCURVE",
"496.8 440.4 CURVE SMOOTH",
"497 367 OFFCURVE",
"436 298 OFFCURVE",
"294 298.8 CURVE SMOOTH",
"150 300 LINE",
"146.4 270 LINE",
"286.8 268.8 LINE SMOOTH",
"459 267 OFFCURVE",
"525 351 OFFCURVE",
"526.8 439.2 CURVE SMOOTH",
"529 526 OFFCURVE",
"468 590 OFFCURVE",
"331.2 590.4 CURVE SMOOTH",
"235.2 590.4 LINE",
"181.2 560.4 LINE",
"181.2 560.4 LINE",
"68.4 30 LINE",
"-21.6 30 LINE",
"-27.6 0 LINE",
"189.6 0 LINE",
"195.6 30 LINE",
"98.4 30 LINE"
);
},
{
closed = 1;
nodes = (
"263.1 282.3 LINE",
"362.7 42 OFFCURVE",
"366.6 -14.1 OFFCURVE",
"448.8 -13.2 CURVE SMOOTH",
"480.3 -12.9 OFFCURVE",
"534.3 8.7 OFFCURVE",
"559.5 103.8 CURVE",
"530.4 111.6 LINE",
"508.2 50.1 OFFCURVE",
"493.2 16.5 OFFCURVE",
"447.6 16.8 CURVE SMOOTH",
"388.5 17.1 OFFCURVE",
"388.8 57 OFFCURVE",
"296.1 282.3 CURVE"
);
}
);
width = 600;
},
{
associatedMasterId = "BDF0B11D-FE68-4F4A-8590-9F0E2F87A31C";
layerId = "503A1C46-F934-44FB-A59A-495C9A2692C7";
width = 600;
},
{
associatedMasterId = "BDF0B11D-FE68-4F4A-8590-9F0E2F87A31C";
layerId = "D665805D-61DF-42D2-80F5-880565CCB1A0";
width = 600;
},
{
anchors = (
{
name = top;
position = "{380, 602}";
}
);
associatedMasterId = "BDF0B11D-FE68-4F4A-8590-9F0E2F87A31C";
layerId = "693FD62F-EB1D-4CC9-AB7C-A2E65219A9DD";
paths = (
{
closed = 1;
nodes = (
"18 0 LINE",
"197 0 LINE",
"197 33 LINE",
"123 33 LINE",
"167 236 LINE",
"382 237 LINE",
"434 33 LINE",
"368 33 LINE",
"368 0 LINE",
"547 0 LINE",
"547 33 LINE",
"468 33 LINE",
"416 238 LINE",
"481 244 OFFCURVE",
"558 299 OFFCURVE",
"577 403 CURVE SMOOTH",
"598 518 OFFCURVE",
"502 591 OFFCURVE",
"380 591 CURVE SMOOTH",
"112 591 LINE",
"112 558 LINE",
"198 558 LINE",
"85 33 LINE",
"18 33 LINE"
);
},
{
closed = 1;
nodes = (
"171 270 LINE",
"232 558 LINE",
"380 558 LINE SMOOTH",
"484 558 OFFCURVE",
"564 499 OFFCURVE",
"543 403 CURVE SMOOTH",
"523 312 OFFCURVE",
"452 270 OFFCURVE",
"380 270 CURVE SMOOTH"
);
}
);
width = 600;
},
{
associatedMasterId = "BDF0B11D-FE68-4F4A-8590-9F0E2F87A31C";
layerId = "0ACD107A-FF22-41E0-BDAE-1B86A46E4EC0";
width = 600;
},
{
associatedMasterId = "BDF0B11D-FE68-4F4A-8590-9F0E2F87A31C";
layerId = "9838AA0F-C705-4720-87C3-607E82DE5591";
width = 600;
},
{
anchors = (
{
name = top;
position = "{380, 602}";
}
);
associatedMasterId = "BDF0B11D-FE68-4F4A-8590-9F0E2F87A31C";
layerId = "24F6AE70-6BA3-457C-8D2E-08A48651E175";
paths = (
{
closed = 1;
nodes = (
"18 0 LINE",
"197 0 LINE",
"197 33 LINE",
"123 33 LINE",
"167 236 LINE",
"382 237 LINE",
"434 33 LINE",
"368 33 LINE",
"368 0 LINE",
"547 0 LINE",
"547 33 LINE",
"468 33 LINE",
"416 238 LINE",
"481 244 OFFCURVE",
"558 299 OFFCURVE",
"577 403 CURVE SMOOTH",
"598 518 OFFCURVE",
"502 591 OFFCURVE",
"380 591 CURVE SMOOTH",
"112 591 LINE",
"112 558 LINE",
"198 558 LINE",
"85 33 LINE",
"18 33 LINE"
);
},
{
closed = 1;
nodes = (
"171 270 LINE",
"232 558 LINE",
"380 558 LINE SMOOTH",
"484 558 OFFCURVE",
"564 499 OFFCURVE",
"543 403 CURVE SMOOTH",
"523 312 OFFCURVE",
"452 270 OFFCURVE",
"380 270 CURVE SMOOTH"
);
}
);
width = 600;
},
{
anchors = (
{
name = top;
position = "{380, 602}";
}
);
associatedMasterId = "BDF0B11D-FE68-4F4A-8590-9F0E2F87A31C";
layerId = "E1F9460C-0FBC-4B89-B38A-7790C8C98263";
paths = (
{
closed = 1;
nodes = (
"18 0 LINE",
"197 0 LINE",
"197 33 LINE",
"123 33 LINE",
"167 236 LINE",
"382 237 LINE",
"434 33 LINE",
"368 33 LINE",
"368 0 LINE",
"547 0 LINE",
"547 33 LINE",
"468 33 LINE",
"416 238 LINE",
"481 244 OFFCURVE",
"558 299 OFFCURVE",
"577 403 CURVE SMOOTH",
"598 518 OFFCURVE",
"502 591 OFFCURVE",
"380 591 CURVE SMOOTH",
"112 591 LINE",
"112 558 LINE",
"198 558 LINE",
"85 33 LINE",
"18 33 LINE"
);
},
{
closed = 1;
nodes = (
"171 270 LINE",
"232 558 LINE",
"380 558 LINE SMOOTH",
"484 558 OFFCURVE",
"564 499 OFFCURVE",
"543 403 CURVE SMOOTH",
"523 312 OFFCURVE",
"452 270 OFFCURVE",
"380 270 CURVE SMOOTH"
);
}
);
width = 600;
},
{
anchors = (
{
name = top;
position = "{380, 602}";
}
);
associatedMasterId = "BDF0B11D-FE68-4F4A-8590-9F0E2F87A31C";
layerId = "2024E5A7-F674-4395-905A-B64AC543ECC7";
paths = (
{
closed = 1;
nodes = (
"277.2 312 LINE",
"346.8 90 LINE SMOOTH",
"369 18 OFFCURVE",
"420 -13 OFFCURVE",
"457.2 -13.2 CURVE SMOOTH",
"502 -13 OFFCURVE",
"557 10 OFFCURVE",
"580.8 111.6 CURVE",
"549.6 111.6 LINE",
"540 66 OFFCURVE",
"510 17 OFFCURVE",
"464.4 16.8 CURVE SMOOTH",
"430 17 OFFCURVE",
"394 41 OFFCURVE",
"374.4 103.2 CURVE SMOOTH",
"306 318 LINE"
);
},
{
closed = 1;
nodes = (
"618 521 OFFCURVE",
"577.2 590.4 OFFCURVE",
"404.4 590.4 CURVE SMOOTH",
"115.2 590.4 LINE",
"109.2 560.4 LINE",
"218.4 560.4 LINE",
"105.6 30 LINE",
"16.8 30 LINE",
"10.8 0 LINE",
"238.8 0 LINE",
"244.8 30 LINE",
"135.6 30 LINE",
"192 300 LINE",
"390 300 LINE SMOOTH",
"485 300 OFFCURVE",
"575 319 OFFCURVE",
"600 434.4 CURVE SMOOTH"
);
},
{
closed = 1;
nodes = (
"199.2 330 LINE",
"248.4 560.4 LINE",
"398.4 560.4 LINE SMOOTH",
"567.6 560.4 OFFCURVE",
"583 505 OFFCURVE",
"568.8 435.6 CURVE SMOOTH",
"552 350 OFFCURVE",
"477 330 OFFCURVE",
"397.2 330 CURVE SMOOTH"
);
}
);
width = 600;
},
{
anchors = (
{
name = top;
position = "{380, 602}";
}
);
associatedMasterId = "BDF0B11D-FE68-4F4A-8590-9F0E2F87A31C";
components = (
{
name = Swash;
transform = "{1, 0, 0, 1, -165, 0}";
}
);
layerId = "B0353A74-EFBC-4A01-86A2-D7669B26F3D0";
paths = (
{
closed = 1;
nodes = (
"277.2 312 LINE",
"346.8 90 LINE SMOOTH",
"369 18 OFFCURVE",
"420 -13 OFFCURVE",
"457.2 -13.2 CURVE SMOOTH",
"502 -13 OFFCURVE",
"557 10 OFFCURVE",
"580.8 111.6 CURVE",
"549.6 111.6 LINE",
"540 66 OFFCURVE",
"510 17 OFFCURVE",
"464.4 16.8 CURVE SMOOTH",
"430 17 OFFCURVE",
"394 41 OFFCURVE",
"374.4 103.2 CURVE SMOOTH",
"306 318 LINE"
);
},
{
closed = 1;
nodes = (
"618 521 OFFCURVE",
"577.2 590.4 OFFCURVE",
"404.4 590.4 CURVE SMOOTH",
"187.2 590.4 LINE",
"181.2 560.4 LINE",
"218.4 560.4 LINE",
"105.6 30 LINE",
"16.8 30 LINE",
"10.8 0 LINE",
"238.8 0 LINE",
"244.8 30 LINE",
"135.6 30 LINE",
"192 300 LINE",
"390 300 LINE SMOOTH",
"485 300 OFFCURVE",
"575 319 OFFCURVE",
"600 434.4 CURVE SMOOTH"
);
},
{
closed = 1;
nodes = (
"199.2 330 LINE",
"248.4 560.4 LINE",
"398.4 560.4 LINE SMOOTH",
"567.6 560.4 OFFCURVE",
"583 505 OFFCURVE",
"568.8 435.6 CURVE SMOOTH",
"552 350 OFFCURVE",
"477 330 OFFCURVE",
"397.2 330 CURVE SMOOTH"
);
}
);
width = 600;
},
{
anchors = (
{
name = top;
position = "{360, 602.4}";
}
);
associatedMasterId = "BDF0B11D-FE68-4F4A-8590-9F0E2F87A31C";
components = (
{
name = Swash;
transform = "{1, 0, 0, 1, -165, 0}";
}
);
layerId = "971053AA-AFD9-4E0E-AFDF-552ED6ECAA45";
paths = (
{
closed = 1;
nodes = (
"211.2 560.4 LINE",
"277.2 560.4 LINE SMOOTH",
"435 560 OFFCURVE",
"497 491 OFFCURVE",
"496.8 420 CURVE SMOOTH",
"497 346 OFFCURVE",
"412 300 OFFCURVE",
"270 300 CURVE SMOOTH",
"150 300 LINE",
"146.4 270 LINE",
"262.8 270 LINE SMOOTH",
"435 270 OFFCURVE",
"525 330 OFFCURVE",
"526.8 418.8 CURVE SMOOTH",
"529 505 OFFCURVE",
"450 590 OFFCURVE",
"283.2 590.4 CURVE SMOOTH",
"235.2 590.4 LINE",
"181.2 560.4 LINE",
"181.2 560.4 LINE",
"68.4 30 LINE",
"-21.6 30 LINE",
"-27.6 0 LINE",
"189.6 0 LINE",
"195.6 30 LINE",
"98.4 30 LINE"
);
},
{
closed = 1;
nodes = (
"273.6 277.2 LINE",
"361 66 OFFCURVE",
"367 -14 OFFCURVE",
"457.2 -13.2 CURVE SMOOTH",
"488 -13 OFFCURVE",
"544 10 OFFCURVE",
"570 111.6 CURVE",
"538.8 111.6 LINE",
"527 66 OFFCURVE",
"500 17 OFFCURVE",
"456 16.8 CURVE SMOOTH",
"392 17 OFFCURVE",
"395 68 OFFCURVE",
"298.8 296.4 CURVE"
);
}
);
width = 600;
},
{
associatedMasterId = "BDF0B11D-FE68-4F4A-8590-9F0E2F87A31C";
layerId = "CD740F51-25FF-459A-AA3D-F130AC1BD218";
paths = (
{
closed = 1;
nodes = (
"557 126 LINE",
"557 61 OFFCURVE",
"547 17 OFFCURVE",
"501 17 CURVE SMOOTH",
"458 17 OFFCURVE",
"437 81 OFFCURVE",
"412 184 CURVE SMOOTH",
"407 205 OFFCURVE",
"390 254 OFFCURVE",
"350 275 CURVE",
"448 295 OFFCURVE",
"510 352 OFFCURVE",
"511 433 CURVE SMOOTH",
"512 540 OFFCURVE",
"423 593 OFFCURVE",
"289 593 CURVE SMOOTH",
"260 593 OFFCURVE",
"167 592 OFFCURVE",
"124 590 CURVE",
"90 590 OFFCURVE",
"60 592 OFFCURVE",
"27 598 CURVE",
"21 570 LINE",
"47 566 OFFCURVE",
"74 561 OFFCURVE",
"97 560 CURVE",
"97 30 LINE",
"19 30 LINE",
"19 0 LINE",
"218 0 LINE",
"218 30 LINE",
"127 30 LINE",
"127 270 LINE",
"153 270 OFFCURVE",
"218 268 OFFCURVE",
"261 268 CURVE SMOOTH",
"328 268 OFFCURVE",
"370 239 OFFCURVE",
"385 170 CURVE",
"413 63 OFFCURVE",
"432 -13 OFFCURVE",
"501 -13 CURVE SMOOTH",
"568 -13 OFFCURVE",
"587 43 OFFCURVE",
"587 126 CURVE"
);
},
{
closed = 1;
nodes = (
"127 559 LINE",
"154 559 OFFCURVE",
"265 563 OFFCURVE",
"289 563 CURVE SMOOTH",
"392 563 OFFCURVE",
"481 531 OFFCURVE",
"481 433 CURVE SMOOTH",
"481 346 OFFCURVE",
"395 298 OFFCURVE",
"270 298 CURVE SMOOTH",
"230 298 OFFCURVE",
"175 300 OFFCURVE",
"127 300 CURVE"
);
}
);
width = 600;
}
);
unicode = 0052;
},
{
glyphname = S;
lastChange = "2018-06-03 19:07:56 +0000";
layers = (
{
layerId = "BDF0B11D-FE68-4F4A-8590-9F0E2F87A31C";
paths = (
{
closed = 1;
nodes = (
"462 216 OFFCURVE",
"385.2 249 OFFCURVE",
"283.5 286.8 CURVE SMOOTH",
"185.1 323.1 OFFCURVE",
"119.1 348.6 OFFCURVE",
"120 442.8 CURVE SMOOTH",
"120.9 542.4 OFFCURVE",
"233 602 OFFCURVE",
"342 602.4 CURVE SMOOTH",
"443 603 OFFCURVE",
"543 559 OFFCURVE",
"543.6 477.6 CURVE SMOOTH",
"544 448 OFFCURVE",
"527 411 OFFCURVE",
"481.2 410.4 CURVE SMOOTH",
"462 410 OFFCURVE",
"427 427 OFFCURVE",
"426 466.8 CURVE SMOOTH",
"425 507 OFFCURVE",
"460 529 OFFCURVE",
"495.6 523.2 CURVE",
"456 560 OFFCURVE",
"395 573 OFFCURVE",
"340.8 572.4 CURVE SMOOTH",
"264 571.5 OFFCURVE",
"150.6 532.2 OFFCURVE",
"150 442.8 CURVE SMOOTH",
"149.4 367.8 OFFCURVE",
"192 353.1 OFFCURVE",
"324.3 303.6 CURVE SMOOTH",
"414 270 OFFCURVE",
"492 229 OFFCURVE",
"490.8 150 CURVE",
"492 34 OFFCURVE",
"368 -13 OFFCURVE",
"264 -13.2 CURVE SMOOTH",
"183 -13 OFFCURVE",
"27 37 OFFCURVE",
"25.2 120 CURVE SMOOTH",
"24 175 OFFCURVE",
"52 198 OFFCURVE",
"81.6 199.2 CURVE SMOOTH",
"113 200 OFFCURVE",
"141 175 OFFCURVE",
"140.4 144 CURVE SMOOTH",
"140 110 OFFCURVE",
"112 76 OFFCURVE",
"73.2 85.2 CURVE",
"111 48 OFFCURVE",
"197.1 17.7 OFFCURVE",
"265.2 16.8 CURVE SMOOTH",
"337.8 15.9 OFFCURVE",
"461 46 OFFCURVE",
"460.8 150 CURVE"
);
}
);
width = 600;
},
{
anchors = (
{
name = top;
position = "{391, 602}";
}
);
associatedMasterId = "BDF0B11D-FE68-4F4A-8590-9F0E2F87A31C";
layerId = "01493369-DF38-4AE5-A79D-FD4D75712723";
paths = (
{
closed = 1;
nodes = (
"47 112 LINE",
"72 44 OFFCURVE",
"164 -13 OFFCURVE",
"247 -13 CURVE SMOOTH",
"415 -13 OFFCURVE",
"536 95 OFFCURVE",
"536 194 CURVE SMOOTH",
"536 234 OFFCURVE",
"519 269 OFFCURVE",
"478 287 CURVE SMOOTH",
"404 319 OFFCURVE",
"320 301 OFFCURVE",
"246 325 CURVE SMOOTH",
"205 338 OFFCURVE",
"187 371 OFFCURVE",
"187 406 CURVE SMOOTH",
"187 518 OFFCURVE",
"286 569 OFFCURVE",
"391 569 CURVE SMOOTH",
"447 569 OFFCURVE",
"491 550 OFFCURVE",
"509 517 CURVE",
"507 513 LINE",
"461 499 OFFCURVE",
"447 496 OFFCURVE",
"441 470 CURVE SMOOTH",
"433 436 OFFCURVE",
"471 417 OFFCURVE",
"507 417 CURVE SMOOTH",
"544 417 OFFCURVE",
"567 435 OFFCURVE",
"567 466 CURVE",
"561 565 OFFCURVE",
"478 602 OFFCURVE",
"391 602 CURVE SMOOTH",
"264 602 OFFCURVE",
"154 530 OFFCURVE",
"154 401 CURVE SMOOTH",
"154 357 OFFCURVE",
"173 319 OFFCURVE",
"218 299 CURVE SMOOTH",
"290 267 OFFCURVE",
"378 290 OFFCURVE",
"448 258 CURVE SMOOTH",
"483 242 OFFCURVE",
"501 219 OFFCURVE",
"501 187 CURVE SMOOTH",
"501 104 OFFCURVE",
"379 20 OFFCURVE",
"257 20 CURVE SMOOTH",
"193 20 OFFCURVE",
"126 55 OFFCURVE",
"93 106 CURVE",
"96 111 LINE",
"122 111 OFFCURVE",
"162 126 OFFCURVE",
"162 162 CURVE SMOOTH",
"162 187 OFFCURVE",
"133 206 OFFCURVE",
"95 206 CURVE SMOOTH",
"59 206 OFFCURVE",
"35 188 OFFCURVE",
"35 158 CURVE SMOOTH",
"35 155 OFFCURVE",
"35 150 OFFCURVE",
"36 147 CURVE SMOOTH"
);
}
);
width = 600;
},
{
associatedMasterId = "BDF0B11D-FE68-4F4A-8590-9F0E2F87A31C";
layerId = "503A1C46-F934-44FB-A59A-495C9A2692C7";
width = 600;
},
{
associatedMasterId = "BDF0B11D-FE68-4F4A-8590-9F0E2F87A31C";
layerId = "D665805D-61DF-42D2-80F5-880565CCB1A0";
width = 600;
},
{
associatedMasterId = "BDF0B11D-FE68-4F4A-8590-9F0E2F87A31C";
layerId = "693FD62F-EB1D-4CC9-AB7C-A2E65219A9DD";
paths = (
{
closed = 1;
nodes = (
"456 220 OFFCURVE",
"380 250 OFFCURVE",
"280 287 CURVE SMOOTH",
"180 323 OFFCURVE",
"115 349 OFFCURVE",
"115 443 CURVE",
"115 555 OFFCURVE",
"243 602 OFFCURVE",
"340 602 CURVE",
"411 602 OFFCURVE",
"541 576 OFFCURVE",
"541 489 CURVE",
"541 454 OFFCURVE",
"518 426 OFFCURVE",
"483 426 CURVE",
"450 426 OFFCURVE",
"427 444 OFFCURVE",
"427 478 CURVE",
"427 510 OFFCURVE",
"445 525 OFFCURVE",
"481 536 CURVE",
"435 564 OFFCURVE",
"396 572 OFFCURVE",
"334 572 CURVE",
"260 572 OFFCURVE",
"146 540 OFFCURVE",
"146 443 CURVE",
"146 368 OFFCURVE",
"204 347 OFFCURVE",
"320 304 CURVE SMOOTH",
"409 271 OFFCURVE",
"489 237 OFFCURVE",
"489 144 CURVE",
"489 29 OFFCURVE",
"362 -13 OFFCURVE",
"259 -13 CURVE",
"178 -13 OFFCURVE",
"22 31 OFFCURVE",
"22 128 CURVE",
"22 164 OFFCURVE",
"40 194 OFFCURVE",
"77 194 CURVE",
"107 194 OFFCURVE",
"139 178 OFFCURVE",
"139 147 CURVE",
"139 109 OFFCURVE",
"122 93 OFFCURVE",
"81 85 CURVE",
"123 43 OFFCURVE",
"184 18 OFFCURVE",
"260 18 CURVE",
"331 18 OFFCURVE",
"456 49 OFFCURVE",
"456 147 CURVE"
);
}
);
width = 600;
},
{
anchors = (
{
name = top;
position = "{391, 602}";
}
);
associatedMasterId = "BDF0B11D-FE68-4F4A-8590-9F0E2F87A31C";
layerId = "E9C85A29-790E-4453-A0E9-52E6B56848A1";
paths = (
{
closed = 1;
nodes = (
"47 112 LINE",
"72 44 OFFCURVE",
"164 -13 OFFCURVE",
"247 -13 CURVE SMOOTH",
"415 -13 OFFCURVE",
"536 95 OFFCURVE",
"536 194 CURVE SMOOTH",
"536 234 OFFCURVE",
"519 269 OFFCURVE",
"478 287 CURVE SMOOTH",
"404 319 OFFCURVE",
"320 301 OFFCURVE",
"246 325 CURVE SMOOTH",
"205 338 OFFCURVE",
"187 371 OFFCURVE",
"187 406 CURVE SMOOTH",
"187 518 OFFCURVE",
"286 569 OFFCURVE",
"391 569 CURVE SMOOTH",
"447 569 OFFCURVE",
"491 550 OFFCURVE",
"509 517 CURVE",
"507 513 LINE",
"461 499 OFFCURVE",
"447 496 OFFCURVE",
"441 470 CURVE SMOOTH",
"433 436 OFFCURVE",
"471 417 OFFCURVE",
"507 417 CURVE SMOOTH",
"544 417 OFFCURVE",
"567 435 OFFCURVE",
"567 466 CURVE",
"561 565 OFFCURVE",
"478 602 OFFCURVE",
"391 602 CURVE SMOOTH",
"264 602 OFFCURVE",
"154 530 OFFCURVE",
"154 401 CURVE SMOOTH",
"154 357 OFFCURVE",
"173 319 OFFCURVE",
"218 299 CURVE SMOOTH",
"290 267 OFFCURVE",
"378 290 OFFCURVE",
"448 258 CURVE SMOOTH",
"483 242 OFFCURVE",
"501 219 OFFCURVE",
"501 187 CURVE SMOOTH",
"501 104 OFFCURVE",
"379 20 OFFCURVE",
"257 20 CURVE SMOOTH",
"193 20 OFFCURVE",
"126 55 OFFCURVE",
"93 106 CURVE",
"96 111 LINE",
"122 111 OFFCURVE",
"162 126 OFFCURVE",
"162 162 CURVE SMOOTH",
"162 187 OFFCURVE",
"133 206 OFFCURVE",
"95 206 CURVE SMOOTH",
"59 206 OFFCURVE",
"35 188 OFFCURVE",
"35 158 CURVE SMOOTH",
"35 155 OFFCURVE",
"35 150 OFFCURVE",
"36 147 CURVE SMOOTH"
);
}
);
width = 600;
},
{
associatedMasterId = "BDF0B11D-FE68-4F4A-8590-9F0E2F87A31C";
layerId = "82237DC1-EF8A-4047-9D08-9B4CB193C0F2";
width = 600;
},
{
associatedMasterId = "BDF0B11D-FE68-4F4A-8590-9F0E2F87A31C";
layerId = "349A7C56-FBD5-4E48-BB66-5C8F69097827";
width = 600;
},
{
associatedMasterId = "BDF0B11D-FE68-4F4A-8590-9F0E2F87A31C";
layerId = "3B173959-6BFD-4981-9051-06A7EEE82281";
paths = (
{
closed = 1;
nodes = (
"456 220 OFFCURVE",
"380 250 OFFCURVE",
"280 287 CURVE SMOOTH",
"180 323 OFFCURVE",
"115 349 OFFCURVE",
"115 443 CURVE",
"115 555 OFFCURVE",
"243 602 OFFCURVE",
"340 602 CURVE",
"411 602 OFFCURVE",
"541 576 OFFCURVE",
"541 489 CURVE",
"541 454 OFFCURVE",
"518 426 OFFCURVE",
"483 426 CURVE",
"450 426 OFFCURVE",
"427 444 OFFCURVE",
"427 478 CURVE",
"427 510 OFFCURVE",
"445 525 OFFCURVE",
"481 536 CURVE",
"435 564 OFFCURVE",
"396 572 OFFCURVE",
"334 572 CURVE",
"260 572 OFFCURVE",
"146 540 OFFCURVE",
"146 443 CURVE",
"146 368 OFFCURVE",
"204 347 OFFCURVE",
"320 304 CURVE SMOOTH",
"409 271 OFFCURVE",
"489 237 OFFCURVE",
"489 144 CURVE",
"489 29 OFFCURVE",
"362 -13 OFFCURVE",
"259 -13 CURVE",
"178 -13 OFFCURVE",
"22 31 OFFCURVE",
"22 128 CURVE",
"22 164 OFFCURVE",
"40 194 OFFCURVE",
"77 194 CURVE",
"107 194 OFFCURVE",
"139 178 OFFCURVE",
"139 147 CURVE",
"139 109 OFFCURVE",
"122 93 OFFCURVE",
"81 85 CURVE",
"123 43 OFFCURVE",
"184 18 OFFCURVE",
"260 18 CURVE",
"331 18 OFFCURVE",
"456 49 OFFCURVE",
"456 147 CURVE"
);
}
);
width = 600;
},
{
associatedMasterId = "BDF0B11D-FE68-4F4A-8590-9F0E2F87A31C";
layerId = "66BDE0FC-031D-44F2-B5F4-AB06C22FAB6C";
paths = (
{
closed = 1;
nodes = (
"462 216 OFFCURVE",
"386 249 OFFCURVE",
"284.4 286.8 CURVE SMOOTH",
"186 323 OFFCURVE",
"121 349 OFFCURVE",
"120 442.8 CURVE",
"121 542 OFFCURVE",
"233 602 OFFCURVE",
"342 602.4 CURVE SMOOTH",
"443 603 OFFCURVE",
"543 559 OFFCURVE",
"543.6 477.6 CURVE SMOOTH",
"544 448 OFFCURVE",
"519 435 OFFCURVE",
"504 434.4 CURVE SMOOTH",
"484 433 OFFCURVE",
"454 447 OFFCURVE",
"453.6 477.6 CURVE SMOOTH",
"453 504 OFFCURVE",
"472 523 OFFCURVE",
"495.6 523.2 CURVE",
"456 560 OFFCURVE",
"395 573 OFFCURVE",
"340.8 572.4 CURVE SMOOTH",
"276 572 OFFCURVE",
"151 540 OFFCURVE",
"150 442.8 CURVE",
"151 368 OFFCURVE",
"198 351 OFFCURVE",
"325.2 303.6 CURVE SMOOTH",
"415 270 OFFCURVE",
"492 229 OFFCURVE",
"490.8 150 CURVE",
"492 34 OFFCURVE",
"368 -13 OFFCURVE",
"264 -13.2 CURVE SMOOTH",
"183 -13 OFFCURVE",
"26 37 OFFCURVE",
"25.2 120 CURVE SMOOTH",
"25 156 OFFCURVE",
"49 172 OFFCURVE",
"69.6 171.6 CURVE SMOOTH",
"90 172 OFFCURVE",
"116 163 OFFCURVE",
"116.4 132 CURVE SMOOTH",
"116 105 OFFCURVE",
"108 80 OFFCURVE",
"73.2 85.2 CURVE",
"111 48 OFFCURVE",
"197 17 OFFCURVE",
"265.2 16.8 CURVE",
"342 16 OFFCURVE",
"461 46 OFFCURVE",
"460.8 150 CURVE"
);
}
);
width = 600;
},
{
associatedMasterId = "BDF0B11D-FE68-4F4A-8590-9F0E2F87A31C";
layerId = "CD740F51-25FF-459A-AA3D-F130AC1BD218";
paths = (
{
closed = 1;
nodes = (
"472 540 OFFCURVE",
"385 573 OFFCURVE",
"297 573 CURVE SMOOTH",
"210 573 OFFCURVE",
"116 529 OFFCURVE",
"116 462 CURVE SMOOTH",
"116 388 OFFCURVE",
"171 358 OFFCURVE",
"269 339 CURVE SMOOTH",
"343 325 LINE SMOOTH",
"453 304 OFFCURVE",
"535 252 OFFCURVE",
"535 156 CURVE SMOOTH",
"535 44 OFFCURVE",
"425 -13 OFFCURVE",
"309 -13 CURVE SMOOTH",
"195 -13 OFFCURVE",
"65 42 OFFCURVE",
"65 133 CURVE SMOOTH",
"65 174 OFFCURVE",
"88 203 OFFCURVE",
"123 203 CURVE SMOOTH",
"157 203 OFFCURVE",
"183 178 OFFCURVE",
"183 146 CURVE SMOOTH",
"183 97 OFFCURVE",
"123 80 OFFCURVE",
"99 111 CURVE",
"134 42 OFFCURVE",
"210 17 OFFCURVE",
"309 17 CURVE SMOOTH",
"420 17 OFFCURVE",
"505 70 OFFCURVE",
"505 156 CURVE SMOOTH",
"505 233 OFFCURVE",
"435 278 OFFCURVE",
"341 295 CURVE SMOOTH",
"263 309 LINE SMOOTH",
"160 327 OFFCURVE",
"86 370 OFFCURVE",
"86 462 CURVE SMOOTH",
"86 550 OFFCURVE",
"195 603 OFFCURVE",
"297 603 CURVE SMOOTH",
"410 603 OFFCURVE",
"520 556 OFFCURVE",
"520 468 CURVE SMOOTH",
"520 427 OFFCURVE",
"495 397 OFFCURVE",
"461 397 CURVE SMOOTH",
"426 397 OFFCURVE",
"399 421 OFFCURVE",
"399 453 CURVE SMOOTH",
"399 502 OFFCURVE",
"461 520 OFFCURVE",
"485 487 CURVE"
);
}
);
width = 600;
}
);
leftKerningGroup = S2;
rightKerningGroup = S2;
unicode = 0053;
},
{
glyphname = Scaron;
lastChange = "2018-06-03 19:07:56 +0000";
layers = (
{
components = (
{
name = S;
},
{
name = caron;
transform = "{1, 0, 0, 1, 18, 159}";
}
);
layerId = "BDF0B11D-FE68-4F4A-8590-9F0E2F87A31C";
width = 600;
},
{
associatedMasterId = "BDF0B11D-FE68-4F4A-8590-9F0E2F87A31C";
layerId = "503A1C46-F934-44FB-A59A-495C9A2692C7";
width = 600;
},
{
associatedMasterId = "BDF0B11D-FE68-4F4A-8590-9F0E2F87A31C";
layerId = "D665805D-61DF-42D2-80F5-880565CCB1A0";
width = 600;
},
{
associatedMasterId = "BDF0B11D-FE68-4F4A-8590-9F0E2F87A31C";
components = (
{
name = S;
},
{
name = caron;
transform = "{1, 0, 0, 1, 18, 159}";
}
);
layerId = "693FD62F-EB1D-4CC9-AB7C-A2E65219A9DD";
width = 600;
},
{
associatedMasterId = "BDF0B11D-FE68-4F4A-8590-9F0E2F87A31C";
layerId = "1F68D6CB-96C9-450A-88D6-FE60A4458488";
width = 600;
},
{
associatedMasterId = "BDF0B11D-FE68-4F4A-8590-9F0E2F87A31C";
layerId = "BF5E7BB2-7414-4817-876C-EE0601EDCC19";
width = 600;
},
{
associatedMasterId = "BDF0B11D-FE68-4F4A-8590-9F0E2F87A31C";
components = (
{
name = S;
},
{
name = caron;
transform = "{1, 0, 0, 1, 18, 159}";
}
);
layerId = "D2C1C7C7-DF98-4658-921C-E44B41AF87E1";
width = 600;
},
{
associatedMasterId = "BDF0B11D-FE68-4F4A-8590-9F0E2F87A31C";
layerId = "CD740F51-25FF-459A-AA3D-F130AC1BD218";
paths = (
{
closed = 1;
nodes = (
"502 740 LINE",
"296 634 LINE",
"91 740 LINE",
"96 753 LINE",
"296 670 LINE",
"496 753 LINE"
);
},
{
closed = 1;
nodes = (
"472 540 OFFCURVE",
"385 573 OFFCURVE",
"297 573 CURVE SMOOTH",
"210 573 OFFCURVE",
"116 529 OFFCURVE",
"116 462 CURVE SMOOTH",
"116 388 OFFCURVE",
"171 358 OFFCURVE",
"269 339 CURVE SMOOTH",
"343 325 LINE SMOOTH",
"453 304 OFFCURVE",
"535 252 OFFCURVE",
"535 156 CURVE SMOOTH",
"535 44 OFFCURVE",
"425 -13 OFFCURVE",
"309 -13 CURVE SMOOTH",
"195 -13 OFFCURVE",
"65 42 OFFCURVE",
"65 133 CURVE SMOOTH",
"65 174 OFFCURVE",
"88 203 OFFCURVE",
"123 203 CURVE SMOOTH",
"157 203 OFFCURVE",
"183 178 OFFCURVE",
"183 146 CURVE SMOOTH",
"183 97 OFFCURVE",
"123 80 OFFCURVE",
"99 111 CURVE",
"134 42 OFFCURVE",
"210 17 OFFCURVE",
"309 17 CURVE SMOOTH",
"420 17 OFFCURVE",
"505 70 OFFCURVE",
"505 156 CURVE SMOOTH",
"505 233 OFFCURVE",
"435 278 OFFCURVE",
"341 295 CURVE SMOOTH",
"263 309 LINE SMOOTH",
"160 327 OFFCURVE",
"86 370 OFFCURVE",
"86 462 CURVE SMOOTH",
"86 550 OFFCURVE",
"195 603 OFFCURVE",
"297 603 CURVE SMOOTH",
"410 603 OFFCURVE",
"520 556 OFFCURVE",
"520 468 CURVE SMOOTH",
"520 427 OFFCURVE",
"495 397 OFFCURVE",
"461 397 CURVE SMOOTH",
"426 397 OFFCURVE",
"399 421 OFFCURVE",
"399 453 CURVE SMOOTH",
"399 502 OFFCURVE",
"461 520 OFFCURVE",
"485 487 CURVE"
);
}
);
width = 600;
}
);
unicode = 0160;
},
{
glyphname = T;
lastChange = "2018-06-03 19:07:56 +0000";
layers = (
{
anchors = (
{
name = top;
position = "{374.4, 602.4}";
}
);
layerId = "BDF0B11D-FE68-4F4A-8590-9F0E2F87A31C";
paths = (
{
closed = 1;
nodes = (
"116.4 0 LINE",
"122.4 30 LINE",
"242.4 30 LINE",
"356.4 560.4 LINE",
"157.2 560.4 LINE",
"115.2 360 LINE",
"85.2 360 LINE",
"133.2 590.4 LINE",
"622.8 590.4 LINE",
"573.6 360 LINE",
"543.6 360 LINE",
"586.8 560.4 LINE",
"387.6 560.4 LINE",
"273.6 30 LINE",
"393.6 30 LINE",
"387.6 0 LINE"
);
}
);
width = 600;
},
{
associatedMasterId = "BDF0B11D-FE68-4F4A-8590-9F0E2F87A31C";
layerId = "503A1C46-F934-44FB-A59A-495C9A2692C7";
width = 600;
},
{
associatedMasterId = "BDF0B11D-FE68-4F4A-8590-9F0E2F87A31C";
layerId = "D665805D-61DF-42D2-80F5-880565CCB1A0";
width = 600;
},
{
anchors = (
{
name = top;
position = "{370, 602}";
}
);
associatedMasterId = "BDF0B11D-FE68-4F4A-8590-9F0E2F87A31C";
layerId = "693FD62F-EB1D-4CC9-AB7C-A2E65219A9DD";
paths = (
{
closed = 1;
nodes = (
"125 -1 LINE",
"125 30 LINE",
"240 30 LINE",
"355 559 LINE",
"157 559 LINE",
"108 326 LINE",
"78 327 LINE",
"131 590 LINE",
"622 590 LINE",
"565 326 LINE",
"532 326 LINE",
"587 559 LINE",
"387 559 LINE",
"272 30 LINE",
"388 30 LINE",
"388 -1 LINE"
);
}
);
width = 600;
},
{
associatedMasterId = "BDF0B11D-FE68-4F4A-8590-9F0E2F87A31C";
layerId = "EE56B77A-22B2-4A53-93C0-9A28779C1283";
width = 600;
},
{
associatedMasterId = "BDF0B11D-FE68-4F4A-8590-9F0E2F87A31C";
layerId = "C37928D7-FF63-4EB5-8E31-017B92040012";
width = 600;
},
{
anchors = (
{
name = top;
position = "{370, 602}";
}
);
associatedMasterId = "BDF0B11D-FE68-4F4A-8590-9F0E2F87A31C";
layerId = "5650A7F8-06EF-4348-8F20-AC15D6131905";
paths = (
{
closed = 1;
nodes = (
"125 -1 LINE",
"125 30 LINE",
"240 30 LINE",
"355 559 LINE",
"157 559 LINE",
"108 326 LINE",
"78 327 LINE",
"131 590 LINE",
"622 590 LINE",
"565 326 LINE",
"532 326 LINE",
"587 559 LINE",
"387 559 LINE",
"272 30 LINE",
"388 30 LINE",
"388 -1 LINE"
);
}
);
width = 600;
},
{
associatedMasterId = "BDF0B11D-FE68-4F4A-8590-9F0E2F87A31C";
layerId = "CD740F51-25FF-459A-AA3D-F130AC1BD218";
paths = (
{
closed = 1;
nodes = (
"60 300 LINE",
"30 303 LINE",
"53 590 LINE",
"552 590 LINE",
"576 303 LINE",
"546 300 LINE",
"524 560 LINE",
"318 560 LINE",
"318 30 LINE",
"443 30 LINE",
"443 0 LINE",
"163 0 LINE",
"163 30 LINE",
"288 30 LINE",
"288 560 LINE",
"82 560 LINE"
);
}
);
width = 600;
}
);
leftKerningGroup = T;
rightKerningGroup = T;
unicode = 0054;
},
{
glyphname = U;
lastChange = "2018-06-03 19:07:56 +0000";
layers = (
{
associatedMasterId = "BDF0B11D-FE68-4F4A-8590-9F0E2F87A31C";
layerId = "503A1C46-F934-44FB-A59A-495C9A2692C7";
width = 600;
},
{
associatedMasterId = "BDF0B11D-FE68-4F4A-8590-9F0E2F87A31C";
layerId = "D665805D-61DF-42D2-80F5-880565CCB1A0";
width = 600;
},
{
anchors = (
{
name = top;
position = "{378, 590}";
}
);
associatedMasterId = "BDF0B11D-FE68-4F4A-8590-9F0E2F87A31C";
layerId = "693FD62F-EB1D-4CC9-AB7C-A2E65219A9DD";
paths = (
{
closed = 1;
nodes = (
"102 139 LINE SMOOTH",
"80 49 OFFCURVE",
"171 -10 OFFCURVE",
"275 -10 CURVE SMOOTH",
"382 -10 OFFCURVE",
"437 52 OFFCURVE",
"458 139 CURVE SMOOTH",
"558 556 LINE",
"642 556 LINE",
"642 590 LINE",
"440 590 LINE",
"440 556 LINE",
"524 556 LINE",
"424 155 LINE SMOOTH",
"405 79 OFFCURVE",
"363 25 OFFCURVE",
"275 25 CURVE SMOOTH",
"190 25 OFFCURVE",
"120 72 OFFCURVE",
"141 155 CURVE SMOOTH",
"241 556 LINE",
"320 556 LINE",
"320 590 LINE",
"118 590 LINE",
"118 556 LINE",
"202 556 LINE"
);
}
);
width = 600;
},
{
associatedMasterId = "BDF0B11D-FE68-4F4A-8590-9F0E2F87A31C";
layerId = "148A6F63-9BDA-450F-B7AA-5BCBC4FBDA99";
width = 600;
},
{
associatedMasterId = "BDF0B11D-FE68-4F4A-8590-9F0E2F87A31C";
layerId = "EDE13942-6DBA-48DE-8362-D56471B08275";
width = 600;
},
{
anchors = (
{
name = top;
position = "{378, 590}";
}
);
associatedMasterId = "BDF0B11D-FE68-4F4A-8590-9F0E2F87A31C";
layerId = "B0EA7393-E806-4263-94CB-2D922A089502";
paths = (
{
closed = 1;
nodes = (
"102 139 LINE SMOOTH",
"80 49 OFFCURVE",
"171 -10 OFFCURVE",
"275 -10 CURVE SMOOTH",
"382 -10 OFFCURVE",
"437 52 OFFCURVE",
"458 139 CURVE SMOOTH",
"558 556 LINE",
"642 556 LINE",
"642 590 LINE",
"440 590 LINE",
"440 556 LINE",
"524 556 LINE",
"424 155 LINE SMOOTH",
"405 79 OFFCURVE",
"363 25 OFFCURVE",
"275 25 CURVE SMOOTH",
"190 25 OFFCURVE",
"120 72 OFFCURVE",
"141 155 CURVE SMOOTH",
"241 556 LINE",
"320 556 LINE",
"320 590 LINE",
"118 590 LINE",
"118 556 LINE",
"202 556 LINE"
);
}
);
width = 600;
},
{
anchors = (
{
name = top;
position = "{378, 590}";
}
);
associatedMasterId = "BDF0B11D-FE68-4F4A-8590-9F0E2F87A31C";
layerId = "2D94CEB8-7AEC-4819-836F-8AD8440FC3D8";
paths = (
{
closed = 1;
nodes = (
"102 139 LINE SMOOTH",
"80 49 OFFCURVE",
"171 -10 OFFCURVE",
"275 -10 CURVE SMOOTH",
"382 -10 OFFCURVE",
"437 52 OFFCURVE",
"458 139 CURVE SMOOTH",
"558 556 LINE",
"642 556 LINE",
"642 590 LINE",
"440 590 LINE",
"440 556 LINE",
"524 556 LINE",
"424 155 LINE SMOOTH",
"405 79 OFFCURVE",
"363 25 OFFCURVE",
"275 25 CURVE SMOOTH",
"190 25 OFFCURVE",
"120 72 OFFCURVE",
"141 155 CURVE SMOOTH",
"241 556 LINE",
"320 556 LINE",
"320 590 LINE",
"118 590 LINE",
"118 556 LINE",
"202 556 LINE"
);
}
);
width = 600;
},
{
anchors = (
{
name = top;
position = "{378, 590}";
}
);
associatedMasterId = "BDF0B11D-FE68-4F4A-8590-9F0E2F87A31C";
layerId = "6736CB45-4C4C-4803-9DCA-5BC2B97C0182";
paths = (
{
closed = 1;
nodes = (
"361 -13 OFFCURVE",
"463 56 OFFCURVE",
"499.2 218.4 CURVE SMOOTH",
"576 560.4 LINE",
"546 560.4 LINE",
"469.2 218.4 LINE SMOOTH",
"438 79 OFFCURVE",
"352 19 OFFCURVE",
"259.2 19.2 CURVE SMOOTH",
"162 19 OFFCURVE",
"105 79 OFFCURVE",
"135.6 218.4 CURVE SMOOTH",
"207.6 560.4 LINE",
"303.6 560.4 LINE",
"310.8 590.4 LINE",
"108 590.4 LINE",
"100.8 560.4 LINE",
"177.6 560.4 LINE",
"105.6 218.4 LINE SMOOTH",
"71 56 OFFCURVE",
"145 -13 OFFCURVE",
"253.2 -13.2 CURVE SMOOTH"
);
}
);
width = 600;
},
{
anchors = (
{
name = top_;
position = "{384, 602.4}";
}
);
layerId = "BDF0B11D-FE68-4F4A-8590-9F0E2F87A31C";
paths = (
{
closed = 1;
nodes = (
"358 -13 OFFCURVE",
"459 49 OFFCURVE",
"488.4 180 CURVE SMOOTH",
"573.6 560.4 LINE",
"661.2 560.4 LINE",
"666 590.4 LINE",
"456 590.4 LINE",
"451.2 560.4 LINE",
"542.4 560.4 LINE",
"457.2 180 LINE SMOOTH",
"435 79 OFFCURVE",
"347 17 OFFCURVE",
"255.6 16.8 CURVE SMOOTH",
"161 17 OFFCURVE",
"101 74 OFFCURVE",
"123.6 178.8 CURVE SMOOTH",
"205.2 560.4 LINE",
"292.8 560.4 LINE",
"300 590.4 LINE",
"90 590.4 LINE",
"82.8 560.4 LINE",
"174 560.4 LINE",
"93.6 178.8 LINE SMOOTH",
"70 65 OFFCURVE",
"142 -13 OFFCURVE",
"249.6 -13.2 CURVE SMOOTH"
);
}
);
width = 600;
},
{
associatedMasterId = "BDF0B11D-FE68-4F4A-8590-9F0E2F87A31C";
layerId = "CD740F51-25FF-459A-AA3D-F130AC1BD218";
paths = (
{
closed = 1;
nodes = (
"27 590 LINE",
"27 560 LINE",
"104 560 LINE",
"104 208 LINE SMOOTH",
"104 75 OFFCURVE",
"177 -13 OFFCURVE",
"300 -13 CURVE SMOOTH",
"423 -13 OFFCURVE",
"496 75 OFFCURVE",
"496 208 CURVE SMOOTH",
"496 560 LINE",
"573 560 LINE",
"573 590 LINE",
"368 590 LINE",
"368 560 LINE",
"466 560 LINE",
"466 208 LINE SMOOTH",
"466 95 OFFCURVE",
"410 17 OFFCURVE",
"300 17 CURVE SMOOTH",
"190 17 OFFCURVE",
"134 95 OFFCURVE",
"134 208 CURVE SMOOTH",
"134 560 LINE",
"232 560 LINE",
"232 590 LINE"
);
}
);
width = 600;
}
);
leftKerningGroup = U;
rightKerningGroup = U;
unicode = 0055;
},
{
glyphname = Uacute;
lastChange = "2020-04-02 10:12:17 +0000";
layers = (
{
components = (
{
name = U;
},
{
name = acute;
transform = "{1, 0, 0, 1, 9.6, 147.6}";
}
);
layerId = "BDF0B11D-FE68-4F4A-8590-9F0E2F87A31C";
width = 600;
},
{
associatedMasterId = "BDF0B11D-FE68-4F4A-8590-9F0E2F87A31C";
layerId = "503A1C46-F934-44FB-A59A-495C9A2692C7";
width = 600;
},
{
associatedMasterId = "BDF0B11D-FE68-4F4A-8590-9F0E2F87A31C";
layerId = "D665805D-61DF-42D2-80F5-880565CCB1A0";
width = 600;
},
{
associatedMasterId = "BDF0B11D-FE68-4F4A-8590-9F0E2F87A31C";
components = (
{
name = U;
},
{
name = acute;
transform = "{1, 0, 0, 1, 89.1, 147}";
}
);
layerId = "693FD62F-EB1D-4CC9-AB7C-A2E65219A9DD";
width = 600;
},
{
associatedMasterId = "BDF0B11D-FE68-4F4A-8590-9F0E2F87A31C";
layerId = "271D9282-8EC7-479D-B802-7B19D38FB6DD";
width = 600;
},
{
associatedMasterId = "BDF0B11D-FE68-4F4A-8590-9F0E2F87A31C";
layerId = "C6CBF719-0672-4C81-93AF-03DA096DAF34";
width = 600;
},
{
associatedMasterId = "BDF0B11D-FE68-4F4A-8590-9F0E2F87A31C";
components = (
{
name = U;
},
{
name = acute;
transform = "{1, 0, 0, 1, 89, 147}";
}
);
layerId = "7375BEB8-D6DA-4149-BA7A-5695F5D6EB1E";
width = 600;
},
{
associatedMasterId = "BDF0B11D-FE68-4F4A-8590-9F0E2F87A31C";
layerId = "CD740F51-25FF-459A-AA3D-F130AC1BD218";
paths = (
{
closed = 1;
nodes = (
"138 635 LINE",
"134 655 LINE",
"443 736 LINE",
"452 698 LINE"
);
},
{
closed = 1;
nodes = (
"27 590 LINE",
"27 560 LINE",
"104 560 LINE",
"104 208 LINE SMOOTH",
"104 75 OFFCURVE",
"177 -13 OFFCURVE",
"300 -13 CURVE SMOOTH",
"423 -13 OFFCURVE",
"496 75 OFFCURVE",
"496 208 CURVE SMOOTH",
"496 560 LINE",
"573 560 LINE",
"573 590 LINE",
"368 590 LINE",
"368 560 LINE",
"466 560 LINE",
"466 208 LINE SMOOTH",
"466 95 OFFCURVE",
"410 17 OFFCURVE",
"300 17 CURVE SMOOTH",
"190 17 OFFCURVE",
"134 95 OFFCURVE",
"134 208 CURVE SMOOTH",
"134 560 LINE",
"232 560 LINE",
"232 590 LINE"
);
}
);
width = 600;
}
);
leftKerningGroup = U;
rightKerningGroup = U;
unicode = 00DA;
},
{
glyphname = Ucircumflex;
lastChange = "2018-06-03 19:07:56 +0000";
layers = (
{
components = (
{
name = U;
}
);
layerId = "BDF0B11D-FE68-4F4A-8590-9F0E2F87A31C";
width = 600;
},
{
associatedMasterId = "BDF0B11D-FE68-4F4A-8590-9F0E2F87A31C";
layerId = "503A1C46-F934-44FB-A59A-495C9A2692C7";
width = 600;
},
{
associatedMasterId = "BDF0B11D-FE68-4F4A-8590-9F0E2F87A31C";
layerId = "D665805D-61DF-42D2-80F5-880565CCB1A0";
width = 600;
},
{
associatedMasterId = "BDF0B11D-FE68-4F4A-8590-9F0E2F87A31C";
components = (
{
name = U;
}
);
layerId = "693FD62F-EB1D-4CC9-AB7C-A2E65219A9DD";
width = 600;
},
{
associatedMasterId = "BDF0B11D-FE68-4F4A-8590-9F0E2F87A31C";
layerId = "274FB2B8-7946-4517-84F4-3516C4425640";
width = 600;
},
{
associatedMasterId = "BDF0B11D-FE68-4F4A-8590-9F0E2F87A31C";
layerId = "668FF945-641F-448D-885D-69364C51B1FC";
width = 600;
},
{
associatedMasterId = "BDF0B11D-FE68-4F4A-8590-9F0E2F87A31C";
components = (
{
name = U;
}
);
layerId = "9F9012B1-CF4D-406B-8795-54A25BA6BB2C";
width = 600;
},
{
associatedMasterId = "BDF0B11D-FE68-4F4A-8590-9F0E2F87A31C";
layerId = "CD740F51-25FF-459A-AA3D-F130AC1BD218";
paths = (
{
closed = 1;
nodes = (
"94 641 LINE",
"299 747 LINE",
"505 641 LINE",
"499 628 LINE",
"299 711 LINE",
"99 628 LINE"
);
},
{
closed = 1;
nodes = (
"27 590 LINE",
"27 560 LINE",
"104 560 LINE",
"104 208 LINE SMOOTH",
"104 75 OFFCURVE",
"177 -13 OFFCURVE",
"300 -13 CURVE SMOOTH",
"423 -13 OFFCURVE",
"496 75 OFFCURVE",
"496 208 CURVE SMOOTH",
"496 560 LINE",
"573 560 LINE",
"573 590 LINE",
"368 590 LINE",
"368 560 LINE",
"466 560 LINE",
"466 208 LINE SMOOTH",
"466 95 OFFCURVE",
"410 17 OFFCURVE",
"300 17 CURVE SMOOTH",
"190 17 OFFCURVE",
"134 95 OFFCURVE",
"134 208 CURVE SMOOTH",
"134 560 LINE",
"232 560 LINE",
"232 590 LINE"
);
}
);
width = 600;
}
);
leftKerningGroup = U;
rightKerningGroup = U;
unicode = 00DB;
},
{
glyphname = Udieresis;
lastChange = "2018-06-03 19:07:56 +0000";
layers = (
{
components = (
{
name = U;
},
{
name = dieresis;
transform = "{1, 0, 0, 1, 8.4, 147.6}";
}
);
layerId = "BDF0B11D-FE68-4F4A-8590-9F0E2F87A31C";
width = 600;
},
{
associatedMasterId = "BDF0B11D-FE68-4F4A-8590-9F0E2F87A31C";
layerId = "503A1C46-F934-44FB-A59A-495C9A2692C7";
width = 600;
},
{
associatedMasterId = "BDF0B11D-FE68-4F4A-8590-9F0E2F87A31C";
layerId = "D665805D-61DF-42D2-80F5-880565CCB1A0";
width = 600;
},
{
associatedMasterId = "BDF0B11D-FE68-4F4A-8590-9F0E2F87A31C";
components = (
{
name = U;
}
);
layerId = "693FD62F-EB1D-4CC9-AB7C-A2E65219A9DD";
paths = (
{
closed = 1;
nodes = (
"273 707 CURVE SMOOTH",
"273 684 OFFCURVE",
"294 664 OFFCURVE",
"317 664 CURVE SMOOTH",
"341 664 OFFCURVE",
"360 684 OFFCURVE",
"360 707 CURVE SMOOTH",
"360 730 OFFCURVE",
"341 750 OFFCURVE",
"317 750 CURVE SMOOTH",
"294 750 OFFCURVE",
"273 730 OFFCURVE"
);
}
);
width = 600;
},
{
associatedMasterId = "BDF0B11D-FE68-4F4A-8590-9F0E2F87A31C";
layerId = "4EEBEF3C-28BA-4088-B2BB-119E96357405";
width = 600;
},
{
associatedMasterId = "BDF0B11D-FE68-4F4A-8590-9F0E2F87A31C";
layerId = "596B4BAA-72F9-450D-AB7B-26F74915A5BD";
width = 600;
},
{
associatedMasterId = "BDF0B11D-FE68-4F4A-8590-9F0E2F87A31C";
components = (
{
name = U;
}
);
layerId = "47BCA913-AF63-4B5B-9418-575ABFA9B00E";
paths = (
{
closed = 1;
nodes = (
"273 707 CURVE SMOOTH",
"273 684 OFFCURVE",
"294 664 OFFCURVE",
"317 664 CURVE SMOOTH",
"341 664 OFFCURVE",
"360 684 OFFCURVE",
"360 707 CURVE SMOOTH",
"360 730 OFFCURVE",
"341 750 OFFCURVE",
"317 750 CURVE SMOOTH",
"294 750 OFFCURVE",
"273 730 OFFCURVE"
);
}
);
width = 600;
},
{
associatedMasterId = "BDF0B11D-FE68-4F4A-8590-9F0E2F87A31C";
layerId = "CD740F51-25FF-459A-AA3D-F130AC1BD218";
paths = (
{
closed = 1;
nodes = (
"221 641 OFFCURVE",
"236 656 OFFCURVE",
"236 675 CURVE SMOOTH",
"236 694 OFFCURVE",
"221 709 OFFCURVE",
"203 709 CURVE SMOOTH",
"184 709 OFFCURVE",
"169 694 OFFCURVE",
"169 675 CURVE SMOOTH",
"169 656 OFFCURVE",
"184 641 OFFCURVE",
"203 641 CURVE SMOOTH"
);
},
{
closed = 1;
nodes = (
"402 641 OFFCURVE",
"417 656 OFFCURVE",
"417 675 CURVE SMOOTH",
"417 694 OFFCURVE",
"402 709 OFFCURVE",
"384 709 CURVE SMOOTH",
"365 709 OFFCURVE",
"350 694 OFFCURVE",
"350 675 CURVE SMOOTH",
"350 656 OFFCURVE",
"365 641 OFFCURVE",
"384 641 CURVE SMOOTH"
);
},
{
closed = 1;
nodes = (
"27 590 LINE",
"27 560 LINE",
"104 560 LINE",
"104 208 LINE SMOOTH",
"104 75 OFFCURVE",
"177 -13 OFFCURVE",
"300 -13 CURVE SMOOTH",
"423 -13 OFFCURVE",
"496 75 OFFCURVE",
"496 208 CURVE SMOOTH",
"496 560 LINE",
"573 560 LINE",
"573 590 LINE",
"368 590 LINE",
"368 560 LINE",
"466 560 LINE",
"466 208 LINE SMOOTH",
"466 95 OFFCURVE",
"410 17 OFFCURVE",
"300 17 CURVE SMOOTH",
"190 17 OFFCURVE",
"134 95 OFFCURVE",
"134 208 CURVE SMOOTH",
"134 560 LINE",
"232 560 LINE",
"232 590 LINE"
);
}
);
width = 600;
}
);
leftKerningGroup = U;
rightKerningGroup = U;
unicode = 00DC;
},
{
glyphname = Ugrave;
lastChange = "2020-04-02 10:12:17 +0000";
layers = (
{
components = (
{
name = U;
},
{
name = grave;
transform = "{1, 0, 0, 1, 55.2, 147.6}";
}
);
layerId = "BDF0B11D-FE68-4F4A-8590-9F0E2F87A31C";
width = 600;
},
{
associatedMasterId = "BDF0B11D-FE68-4F4A-8590-9F0E2F87A31C";
layerId = "503A1C46-F934-44FB-A59A-495C9A2692C7";
width = 600;
},
{
associatedMasterId = "BDF0B11D-FE68-4F4A-8590-9F0E2F87A31C";
layerId = "D665805D-61DF-42D2-80F5-880565CCB1A0";
width = 600;
},
{
associatedMasterId = "BDF0B11D-FE68-4F4A-8590-9F0E2F87A31C";
components = (
{
name = U;
},
{
name = grave;
transform = "{1, 0, 0, 1, 41.1, 147}";
}
);
layerId = "693FD62F-EB1D-4CC9-AB7C-A2E65219A9DD";
width = 600;
},
{
associatedMasterId = "BDF0B11D-FE68-4F4A-8590-9F0E2F87A31C";
layerId = "BAFBE8FC-B1BC-4474-8699-224979A32457";
width = 600;
},
{
associatedMasterId = "BDF0B11D-FE68-4F4A-8590-9F0E2F87A31C";
layerId = "D80521E1-B43A-484B-BEE9-C7052E567190";
width = 600;
},
{
associatedMasterId = "BDF0B11D-FE68-4F4A-8590-9F0E2F87A31C";
components = (
{
name = U;
},
{
name = grave;
transform = "{1, 0, 0, 1, 41, 147}";
}
);
layerId = "8598ED66-65D9-47D0-BE96-222635BD30C6";
width = 600;
},
{
associatedMasterId = "BDF0B11D-FE68-4F4A-8590-9F0E2F87A31C";
layerId = "CD740F51-25FF-459A-AA3D-F130AC1BD218";
paths = (
{
closed = 1;
nodes = (
"143 736 LINE",
"452 655 LINE",
"448 635 LINE",
"134 698 LINE"
);
},
{
closed = 1;
nodes = (
"27 590 LINE",
"27 560 LINE",
"104 560 LINE",
"104 208 LINE SMOOTH",
"104 75 OFFCURVE",
"177 -13 OFFCURVE",
"300 -13 CURVE SMOOTH",
"423 -13 OFFCURVE",
"496 75 OFFCURVE",
"496 208 CURVE SMOOTH",
"496 560 LINE",
"573 560 LINE",
"573 590 LINE",
"368 590 LINE",
"368 560 LINE",
"466 560 LINE",
"466 208 LINE SMOOTH",
"466 95 OFFCURVE",
"410 17 OFFCURVE",
"300 17 CURVE SMOOTH",
"190 17 OFFCURVE",
"134 95 OFFCURVE",
"134 208 CURVE SMOOTH",
"134 560 LINE",
"232 560 LINE",
"232 590 LINE"
);
}
);
width = 600;
}
);
leftKerningGroup = U;
rightKerningGroup = U;
unicode = 00D9;
},
{
glyphname = V;
lastChange = "2018-06-03 19:07:56 +0000";
layers = (
{
associatedMasterId = "BDF0B11D-FE68-4F4A-8590-9F0E2F87A31C";
layerId = "503A1C46-F934-44FB-A59A-495C9A2692C7";
width = 600;
},
{
associatedMasterId = "BDF0B11D-FE68-4F4A-8590-9F0E2F87A31C";
layerId = "D665805D-61DF-42D2-80F5-880565CCB1A0";
width = 600;
},
{
associatedMasterId = "BDF0B11D-FE68-4F4A-8590-9F0E2F87A31C";
layerId = "693FD62F-EB1D-4CC9-AB7C-A2E65219A9DD";
paths = (
{
closed = 1;
nodes = (
"165 0 LINE",
"207 0 LINE",
"554 556 LINE",
"634 556 LINE",
"634 589 LINE",
"432 589 LINE",
"432 556 LINE",
"519 556 LINE",
"197 36 LINE",
"224 556 LINE",
"311 556 LINE",
"311 589 LINE",
"109 589 LINE",
"109 556 LINE",
"192 555 LINE"
);
}
);
width = 600;
},
{
associatedMasterId = "BDF0B11D-FE68-4F4A-8590-9F0E2F87A31C";
layerId = "41CC0016-4464-4ADD-961D-7120E17E5607";
width = 600;
},
{
associatedMasterId = "BDF0B11D-FE68-4F4A-8590-9F0E2F87A31C";
layerId = "8F6F4DB6-9827-456C-AE68-BBD05CB2EB03";
width = 600;
},
{
associatedMasterId = "BDF0B11D-FE68-4F4A-8590-9F0E2F87A31C";
layerId = "D188B70D-8B27-4CAF-BABF-0FC4CD82CCA0";
paths = (
{
closed = 1;
nodes = (
"165 0 LINE",
"207 0 LINE",
"554 556 LINE",
"634 556 LINE",
"634 589 LINE",
"432 589 LINE",
"432 556 LINE",
"519 556 LINE",
"197 36 LINE",
"224 556 LINE",
"311 556 LINE",
"311 589 LINE",
"109 589 LINE",
"109 556 LINE",
"192 555 LINE"
);
}
);
width = 600;
},
{
associatedMasterId = "BDF0B11D-FE68-4F4A-8590-9F0E2F87A31C";
layerId = "DA7994FC-64F6-4FF7-B70E-81B7F6DF9CED";
paths = (
{
closed = 1;
nodes = (
"457.2 560.4 LINE",
"517 560 OFFCURVE",
"558 557 OFFCURVE",
"540 450 CURVE SMOOTH",
"527 371 OFFCURVE",
"405 197 OFFCURVE",
"158.4 33.6 CURVE",
"279.6 559.2 LINE",
"344.4 559.2 LINE",
"344.4 589.2 LINE",
"166.8 589.2 LINE",
"166.8 559.2 LINE",
"249.6 559.2 LINE",
"126 0 LINE",
"170.4 0 LINE",
"433 184 OFFCURVE",
"555 360 OFFCURVE",
"570 450 CURVE SMOOTH",
"589 562 OFFCURVE",
"542 590 OFFCURVE",
"457.2 590.4 CURVE"
);
}
);
width = 600;
},
{
layerId = "BDF0B11D-FE68-4F4A-8590-9F0E2F87A31C";
paths = (
{
closed = 1;
nodes = (
"181.2 0 LINE",
"223.2 0 LINE",
"568.8 560.4 LINE",
"654.3 560.4 LINE",
"660.9 590.4 LINE",
"447.3 590.4 LINE",
"440.7 560.4 LINE",
"534 560.4 LINE",
"211.2 37.2 LINE",
"210 560.4 LINE",
"296.7 560.4 LINE",
"303.3 590.4 LINE",
"93.3 590.4 LINE",
"86.7 560.4 LINE",
"180 560.4 LINE"
);
}
);
width = 600;
},
{
associatedMasterId = "BDF0B11D-FE68-4F4A-8590-9F0E2F87A31C";
layerId = "CD740F51-25FF-459A-AA3D-F130AC1BD218";
paths = (
{
closed = 1;
nodes = (
"21 590 LINE",
"21 560 LINE",
"69 560 LINE",
"279 0 LINE",
"321 0 LINE",
"531 560 LINE",
"579 560 LINE",
"579 590 LINE",
"391 590 LINE",
"391 560 LINE",
"499 560 LINE",
"300 29 LINE",
"101 560 LINE",
"209 560 LINE",
"209 590 LINE"
);
}
);
width = 600;
}
);
unicode = 0056;
},
{
glyphname = W;
lastChange = "2018-06-03 19:07:56 +0000";
layers = (
{
associatedMasterId = "BDF0B11D-FE68-4F4A-8590-9F0E2F87A31C";
layerId = "503A1C46-F934-44FB-A59A-495C9A2692C7";
width = 600;
},
{
associatedMasterId = "BDF0B11D-FE68-4F4A-8590-9F0E2F87A31C";
layerId = "D665805D-61DF-42D2-80F5-880565CCB1A0";
width = 600;
},
{
associatedMasterId = "BDF0B11D-FE68-4F4A-8590-9F0E2F87A31C";
layerId = "693FD62F-EB1D-4CC9-AB7C-A2E65219A9DD";
paths = (
{
closed = 1;
nodes = (
"135 0 LINE",
"181 0 LINE",
"335 308 LINE",
"327 0 LINE",
"367 0 LINE",
"594 557 LINE",
"664 557 LINE",
"664 590 LINE",
"472 590 LINE",
"472 557 LINE",
"559 557 LINE",
"356 37 LINE",
"366 337 LINE",
"319 338 LINE",
"166 36 LINE",
"194 557 LINE",
"281 557 LINE",
"281 590 LINE",
"89 590 LINE",
"89 557 LINE",
"162 556 LINE"
);
}
);
width = 600;
},
{
associatedMasterId = "BDF0B11D-FE68-4F4A-8590-9F0E2F87A31C";
layerId = "09EA5062-B50E-43E4-B401-159B3E02452C";
width = 600;
},
{
associatedMasterId = "BDF0B11D-FE68-4F4A-8590-9F0E2F87A31C";
layerId = "2C39606C-BD06-417E-8721-360B77FA816A";
width = 600;
},
{
associatedMasterId = "BDF0B11D-FE68-4F4A-8590-9F0E2F87A31C";
layerId = "72D23158-6977-4E07-9691-2D457F986678";
paths = (
{
closed = 1;
nodes = (
"135 0 LINE",
"181 0 LINE",
"335 308 LINE",
"327 0 LINE",
"367 0 LINE",
"594 557 LINE",
"664 557 LINE",
"664 590 LINE",
"472 590 LINE",
"472 557 LINE",
"559 557 LINE",
"356 37 LINE",
"366 337 LINE",
"319 338 LINE",
"166 36 LINE",
"194 557 LINE",
"281 557 LINE",
"281 590 LINE",
"89 590 LINE",
"89 557 LINE",
"162 556 LINE"
);
}
);
width = 600;
},
{
associatedMasterId = "BDF0B11D-FE68-4F4A-8590-9F0E2F87A31C";
layerId = "4BCD9708-DD78-4AC6-8C25-E9ECDE5E8DE5";
paths = (
{
closed = 1;
nodes = (
"123.6 0 LINE",
"171.6 0 LINE",
"310.8 354 LINE",
"315.6 0 LINE",
"366 0 LINE",
"507.6 368.4 LINE",
"475.2 368.4 LINE",
"348 37.2 LINE",
"340.8 382.8 LINE",
"292.8 384 LINE",
"156 36 LINE",
"180 560.4 LINE",
"270 560.4 LINE",
"270 590.4 LINE",
"78 590.4 LINE",
"78 560.4 LINE",
"150 559.2 LINE"
);
},
{
closed = 1;
nodes = (
"529 501 OFFCURVE",
"469 579 OFFCURVE",
"414 554.4 CURVE SMOOTH",
"384 541.2 LINE",
"398.4 516 LINE",
"408 519.6 LINE SMOOTH",
"468 542 OFFCURVE",
"494 484 OFFCURVE",
"484.8 427.2 CURVE SMOOTH",
"475.2 368.4 LINE",
"504 362.4 LINE",
"514.8 422.4 LINE SMOOTH"
);
}
);
width = 600;
},
{
associatedMasterId = "BDF0B11D-FE68-4F4A-8590-9F0E2F87A31C";
layerId = "EEB78B53-4FD6-4E7E-8969-FB923518353D";
paths = (
{
closed = 1;
nodes = (
"510 571 OFFCURVE",
"582 508 OFFCURVE",
"548.4 426 CURVE SMOOTH",
"391.2 37.2 LINE",
"391.2 450 LINE",
"343.2 450 LINE",
"166.8 36 LINE",
"166.8 560.4 LINE",
"226.8 560.4 LINE",
"226.8 590.4 LINE",
"76.8 590.4 LINE",
"76.8 560.4 LINE",
"136.8 560.4 LINE",
"136.8 0 LINE",
"184.8 0 LINE",
"361.2 420 LINE",
"361.2 0 LINE",
"408 0 LINE",
"580.8 426 LINE SMOOTH",
"615 511 OFFCURVE",
"542 603 OFFCURVE",
"433.2 603.6 CURVE",
"426 571.2 LINE"
);
}
);
width = 600;
},
{
layerId = "BDF0B11D-FE68-4F4A-8590-9F0E2F87A31C";
paths = (
{
closed = 1;
nodes = (
"123.6 0 LINE",
"171.6 0 LINE",
"348 420 LINE",
"348 0 LINE",
"394.8 0 LINE",
"621.6 560.4 LINE",
"660.6 560.4 LINE",
"667.2 590.4 LINE",
"548.4 590.4 LINE",
"541.8 560.4 LINE",
"589.2 560.4 LINE",
"378 37.2 LINE",
"378 450 LINE",
"330 450 LINE",
"153.6 36 LINE",
"153.6 560.4 LINE",
"198.6 560.4 LINE",
"205.2 590.4 LINE",
"84 590.4 LINE",
"77.4 560.4 LINE",
"123.6 560.4 LINE"
);
}
);
visible = 1;
width = 600;
},
{
associatedMasterId = "BDF0B11D-FE68-4F4A-8590-9F0E2F87A31C";
layerId = "CD740F51-25FF-459A-AA3D-F130AC1BD218";
paths = (
{
closed = 1;
nodes = (
"580 590 LINE",
"427 590 LINE",
"427 560 LINE",
"516 560 LINE",
"410 42 LINE",
"315 500 LINE",
"284 500 LINE",
"189 42 LINE",
"83 560 LINE",
"172 560 LINE",
"172 590 LINE",
"19 590 LINE",
"19 560 LINE",
"52 560 LINE",
"166 0 LINE",
"211 0 LINE",
"300 425 LINE",
"388 0 LINE",
"433 0 LINE",
"547 560 LINE",
"580 560 LINE"
);
}
);
width = 600;
}
);
unicode = 0057;
},
{
glyphname = X;
lastChange = "2018-06-03 19:07:56 +0000";
layers = (
{
associatedMasterId = "BDF0B11D-FE68-4F4A-8590-9F0E2F87A31C";
layerId = "503A1C46-F934-44FB-A59A-495C9A2692C7";
width = 600;
},
{
associatedMasterId = "BDF0B11D-FE68-4F4A-8590-9F0E2F87A31C";
layerId = "D665805D-61DF-42D2-80F5-880565CCB1A0";
width = 600;
},
{
associatedMasterId = "BDF0B11D-FE68-4F4A-8590-9F0E2F87A31C";
layerId = "693FD62F-EB1D-4CC9-AB7C-A2E65219A9DD";
paths = (
{
closed = 1;
nodes = (
"58 0 LINE",
"237 0 LINE",
"237 32 LINE",
"178 32 LINE",
"338 263 LINE",
"418 32 LINE",
"361 32 LINE",
"361 0 LINE",
"537 0 LINE",
"537 32 LINE",
"450 32 LINE",
"359 293 LINE",
"543 558 LINE",
"626 558 LINE",
"626 589 LINE",
"452 589 LINE",
"452 558 LINE",
"506 558 LINE",
"347 328 LINE",
"267 558 LINE",
"323 558 LINE",
"323 589 LINE",
"152 589 LINE",
"152 558 LINE",
"236 558 LINE",
"326 298 LINE",
"142 32 LINE",
"58 32 LINE"
);
}
);
width = 600;
},
{
associatedMasterId = "BDF0B11D-FE68-4F4A-8590-9F0E2F87A31C";
layerId = "6AE6D380-8B66-4FE0-A443-B4DD3E6D2BED";
width = 600;
},
{
associatedMasterId = "BDF0B11D-FE68-4F4A-8590-9F0E2F87A31C";
layerId = "11202DB3-00E0-440A-8BCB-A1E9BB9CC9CD";
width = 600;
},
{
associatedMasterId = "BDF0B11D-FE68-4F4A-8590-9F0E2F87A31C";
layerId = "9964C0FF-B1E8-4834-A25C-3A768D0250B3";
paths = (
{
closed = 1;
nodes = (
"58 0 LINE",
"237 0 LINE",
"237 32 LINE",
"178 32 LINE",
"338 263 LINE",
"418 32 LINE",
"361 32 LINE",
"361 0 LINE",
"537 0 LINE",
"537 32 LINE",
"450 32 LINE",
"359 293 LINE",
"543 558 LINE",
"626 558 LINE",
"626 589 LINE",
"452 589 LINE",
"452 558 LINE",
"506 558 LINE",
"347 328 LINE",
"267 558 LINE",
"323 558 LINE",
"323 589 LINE",
"152 589 LINE",
"152 558 LINE",
"236 558 LINE",
"326 298 LINE",
"142 32 LINE",
"58 32 LINE"
);
}
);
width = 600;
},
{
associatedMasterId = "BDF0B11D-FE68-4F4A-8590-9F0E2F87A31C";
layerId = "998F1E5E-1BE2-4C94-9780-1F4C612A8CC3";
paths = (
{
closed = 1;
nodes = (
"452.4 560.4 LINE",
"506.4 560.4 LINE",
"346.8 327.6 LINE",
"340.8 346.8 LINE SMOOTH",
"267 560 OFFCURVE",
"230 567 OFFCURVE",
"174 566.4 CURVE SMOOTH",
"147 566 OFFCURVE",
"120 547 OFFCURVE",
"90 507.6 CURVE",
"115.2 492 LINE",
"135 520 OFFCURVE",
"154 534 OFFCURVE",
"174 534 CURVE SMOOTH",
"215 534 OFFCURVE",
"253 508 OFFCURVE",
"313.2 336 CURVE SMOOTH",
"326.4 297.6 LINE",
"141.6 30 LINE",
"57.6 30 LINE",
"57.6 0 LINE",
"237.6 0 LINE",
"237.6 30 LINE",
"177.6 30 LINE",
"338.4 262.8 LINE",
"417.6 30 LINE",
"361.2 30 LINE",
"361.2 0 LINE",
"537.6 0 LINE",
"537.6 30 LINE",
"450 30 LINE",
"358.8 292.8 LINE",
"543.6 560.4 LINE",
"626.4 560.4 LINE",
"626.4 590.4 LINE",
"452.4 590.4 LINE"
);
}
);
width = 600;
},
{
associatedMasterId = "BDF0B11D-FE68-4F4A-8590-9F0E2F87A31C";
layerId = "F9111DA2-7218-4880-80E4-1561EAC53722";
paths = (
{
closed = 1;
nodes = (
"489 48 OFFCURVE",
"464 29 OFFCURVE",
"440.4 28.8 CURVE SMOOTH",
"315 28 OFFCURVE",
"345 605 OFFCURVE",
"184.8 603.6 CURVE SMOOTH",
"125 603 OFFCURVE",
"97 560 OFFCURVE",
"67.2 528 CURVE",
"91.2 513.6 LINE",
"109 530 OFFCURVE",
"129 575 OFFCURVE",
"182.4 573.6 CURVE SMOOTH",
"316 570 OFFCURVE",
"279 0 OFFCURVE",
"439.2 0 CURVE SMOOTH",
"470 0 OFFCURVE",
"505 21 OFFCURVE",
"536.4 61.2 CURVE",
"512.4 80.4 LINE"
);
},
{
closed = 1;
nodes = (
"606 581 OFFCURVE",
"585 604 OFFCURVE",
"554.4 603.6 CURVE SMOOTH",
"467 602 OFFCURVE",
"432 522 OFFCURVE",
"384 426 CURVE SMOOTH",
"302 262 OFFCURVE",
"238 18 OFFCURVE",
"122.4 18 CURVE SMOOTH",
"105 18 OFFCURVE",
"75 23 OFFCURVE",
"60 36 CURVE",
"45.6 9.6 LINE",
"67 -6 OFFCURVE",
"101 -12 OFFCURVE",
"122.4 -12 CURVE SMOOTH",
"257 -14 OFFCURVE",
"324 241 OFFCURVE",
"409.2 409.2 CURVE SMOOTH",
"436 465 OFFCURVE",
"463 509 OFFCURVE",
"478.8 532.8 CURVE SMOOTH",
"487 545 OFFCURVE",
"503 556 OFFCURVE",
"510 555.6 CURVE",
"510 523 OFFCURVE",
"527 504 OFFCURVE",
"559.2 504 CURVE SMOOTH",
"593 504 OFFCURVE",
"606 528 OFFCURVE",
"606 556.8 CURVE SMOOTH"
);
}
);
visible = 1;
width = 600;
},
{
layerId = "BDF0B11D-FE68-4F4A-8590-9F0E2F87A31C";
paths = (
{
closed = 1;
nodes = (
"30.3 0 LINE",
"210.3 0 LINE",
"216.9 30 LINE",
"153.6 30 LINE",
"314.4 262.8 LINE",
"393.6 30 LINE",
"340.5 30 LINE",
"333.9 0 LINE",
"510.3 0 LINE",
"516.9 30 LINE",
"426 30 LINE",
"334.8 292.8 LINE",
"519.6 560.4 LINE",
"599.1 560.4 LINE",
"605.7 590.4 LINE",
"431.7 590.4 LINE",
"425.1 560.4 LINE",
"482.4 560.4 LINE",
"322.8 327.6 LINE",
"243.6 560.4 LINE",
"295.5 560.4 LINE",
"302.1 590.4 LINE",
"131.7 590.4 LINE",
"125.1 560.4 LINE",
"212.4 560.4 LINE",
"302.4 297.6 LINE",
"117.6 30 LINE",
"36.9 30 LINE"
);
}
);
width = 600;
},
{
associatedMasterId = "BDF0B11D-FE68-4F4A-8590-9F0E2F87A31C";
layerId = "CD740F51-25FF-459A-AA3D-F130AC1BD218";
paths = (
{
closed = 1;
nodes = (
"490 560 LINE",
"569 560 LINE",
"569 590 LINE",
"375 590 LINE",
"375 560 LINE",
"454 560 LINE",
"299 323 LINE",
"144 560 LINE",
"223 560 LINE",
"223 590 LINE",
"29 590 LINE",
"29 560 LINE",
"108 560 LINE",
"281 295 LINE",
"108 30 LINE",
"29 30 LINE",
"29 0 LINE",
"223 0 LINE",
"223 30 LINE",
"144 30 LINE",
"299 267 LINE",
"454 30 LINE",
"375 30 LINE",
"375 0 LINE",
"569 0 LINE",
"569 30 LINE",
"490 30 LINE",
"317 295 LINE"
);
}
);
width = 600;
}
);
unicode = 0058;
},
{
glyphname = Y;
lastChange = "2018-06-03 19:07:56 +0000";
layers = (
{
anchors = (
{
name = top;
position = "{369.6, 603.6}";
}
);
layerId = "BDF0B11D-FE68-4F4A-8590-9F0E2F87A31C";
paths = (
{
closed = 1;
nodes = (
"114 0 LINE",
"384 0 LINE",
"391.2 30 LINE",
"270 30 LINE",
"316.8 237.6 LINE",
"554.4 559.2 LINE",
"627.6 559.2 LINE",
"634.8 590.4 LINE",
"434.4 590.4 LINE",
"427.2 559.2 LINE",
"518.4 559.2 LINE",
"307.2 272.4 LINE",
"220.8 559.2 LINE",
"308.4 560.4 LINE",
"315.6 590.4 LINE",
"114 590.4 LINE",
"105.6 559.2 LINE",
"190.8 559.2 LINE",
"286.8 237.6 LINE",
"240 30 LINE",
"120 30 LINE"
);
}
);
width = 600;
},
{
associatedMasterId = "BDF0B11D-FE68-4F4A-8590-9F0E2F87A31C";
layerId = "503A1C46-F934-44FB-A59A-495C9A2692C7";
width = 600;
},
{
associatedMasterId = "BDF0B11D-FE68-4F4A-8590-9F0E2F87A31C";
layerId = "D665805D-61DF-42D2-80F5-880565CCB1A0";
width = 600;
},
{
anchors = (
{
name = top;
position = "{387, 603}";
}
);
associatedMasterId = "BDF0B11D-FE68-4F4A-8590-9F0E2F87A31C";
layerId = "693FD62F-EB1D-4CC9-AB7C-A2E65219A9DD";
paths = (
{
closed = 1;
nodes = (
"171 0 LINE",
"428 0 LINE",
"427 30 LINE",
"311 30 LINE",
"362 240 LINE",
"570 557 LINE",
"651 557 LINE",
"651 590 LINE",
"450 590 LINE",
"450 557 LINE",
"539 557 LINE",
"348 267 LINE",
"241 557 LINE",
"331 558 LINE",
"331 590 LINE",
"130 590 LINE",
"129 557 LINE",
"210 557 LINE",
"330 240 LINE",
"285 30 LINE",
"170 30 LINE"
);
}
);
width = 600;
},
{
associatedMasterId = "BDF0B11D-FE68-4F4A-8590-9F0E2F87A31C";
layerId = "A311749F-A1CD-4935-9B8C-C9DE852923E8";
width = 600;
},
{
associatedMasterId = "BDF0B11D-FE68-4F4A-8590-9F0E2F87A31C";
layerId = "0950D777-837F-448E-B1C4-47B61908D1B4";
width = 600;
},
{
anchors = (
{
name = top;
position = "{387, 603}";
}
);
associatedMasterId = "BDF0B11D-FE68-4F4A-8590-9F0E2F87A31C";
layerId = "14F71738-7E02-4254-8A26-D71962E78AFC";
paths = (
{
closed = 1;
nodes = (
"171 0 LINE",
"428 0 LINE",
"427 30 LINE",
"311 30 LINE",
"362 240 LINE",
"570 557 LINE",
"651 557 LINE",
"651 590 LINE",
"450 590 LINE",
"450 557 LINE",
"539 557 LINE",
"348 267 LINE",
"241 557 LINE",
"331 558 LINE",
"331 590 LINE",
"130 590 LINE",
"129 557 LINE",
"210 557 LINE",
"330 240 LINE",
"285 30 LINE",
"170 30 LINE"
);
}
);
width = 600;
},
{
associatedMasterId = "BDF0B11D-FE68-4F4A-8590-9F0E2F87A31C";
layerId = "CD740F51-25FF-459A-AA3D-F130AC1BD218";
paths = (
{
closed = 1;
nodes = (
"105 560 LINE",
"22 560 LINE",
"22 590 LINE",
"240 590 LINE",
"240 560 LINE",
"139 560 LINE",
"300 263 LINE",
"461 560 LINE",
"360 560 LINE",
"360 590 LINE",
"578 590 LINE",
"578 560 LINE",
"495 560 LINE",
"316 229 LINE",
"316 30 LINE",
"435 30 LINE",
"435 0 LINE",
"165 0 LINE",
"165 30 LINE",
"284 30 LINE",
"284 229 LINE"
);
}
);
width = 600;
}
);
unicode = 0059;
userData = {
com.typemytype.robofont.guides = (
{
angle = 78;
isGlobal = 0;
magnetic = 5;
x = 328;
y = 239;
}
);
};
},
